STARTFONT 2.1
COMMENT
COMMENT Converted from OpenType font "OpenSans-Italic.ttf" by "otf2bdf 3.0".
COMMENT
FONT -FreeType-Open Sans-Medium-I-Normal--33-240-100-100-P-171-ISO10646-1
SIZE 24 100 100
FONTBOUNDINGBOX 57 44 -16 -9
STARTPROPERTIES 19
FOUNDRY "FreeType"
FAMILY_NAME "Open Sans"
WEIGHT_NAME "Medium"
SLANT "I"
SETWIDTH_NAME "Normal"
ADD_STYLE_NAME ""
PIXEL_SIZE 33
POINT_SIZE 240
RESOLUTION_X 100
RESOLUTION_Y 100
SPACING "P"
AVERAGE_WIDTH 171
CHARSET_REGISTRY "ISO10646"
CHARSET_ENCODING "1"
FONT_ASCENT 35
FONT_DESCENT 9
COPYRIGHT "Copyright 2020 The Open Sans Project Authors (https://github.com/googlefonts/opensans)"
_OTF_FONTFILE "OpenSans-Italic.ttf"
_OTF_PSNAME "OpenSans-Italic"
ENDPROPERTIES
CHARS 1010
STARTCHAR 0000
ENCODING 0
SWIDTH 0 0
DWIDTH 0 0
BBX 0 0 0 0
BITMAP
ENDCHAR
STARTCHAR 000D
ENCODING 13
SWIDTH 240 0
DWIDTH 8 0
BBX 0 0 0 0
BITMAP
ENDCHAR
STARTCHAR 0020
ENCODING 32
SWIDTH 240 0
DWIDTH 8 0
BBX 0 0 0 0
BITMAP
ENDCHAR
STARTCHAR 0021
ENCODING 33
SWIDTH 240 0
DWIDTH 8 0
BBX 8 24 1 0
BITMAP
07
0F
0E
0E
0E
0E
0C
1C
1C
1C
18
18
38
38
30
30
30
00
00
00
60
F0
F0
E0
ENDCHAR
STARTCHAR 0022
ENCODING 34
SWIDTH 360 0
DWIDTH 12 0
BBX 9 9 4 15
BITMAP
7380
6380
6380
E380
E300
C300
C300
C600
8600
ENDCHAR
STARTCHAR 0023
ENCODING 35
SWIDTH 630 0
DWIDTH 21 0
BBX 21 24 1 0
BITMAP
0060C0
0060C0
00E0C0
00C180
00C180
00C180
01C380
3FFFF8
3FFFF8
038700
030600
030600
030600
060E00
060C00
FFFFE0
FFFFE0
0C1800
0C1800
0C1800
183800
183000
183000
387000
ENDCHAR
STARTCHAR 0024
ENCODING 36
SWIDTH 540 0
DWIDTH 18 0
BBX 16 27 1 -2
BITMAP
0030
0030
0030
03FF
07FF
0E63
1C60
1C60
1C60
1CC0
1EC0
0FC0
07E0
01F8
01FC
019C
018C
018C
030C
031C
C338
FFF0
7FE0
0600
0600
0600
0600
ENDCHAR
STARTCHAR 0025
ENCODING 37
SWIDTH 780 0
DWIDTH 26 0
BBX 22 24 3 0
BITMAP
0F0038
3F8070
31C060
61C0C0
60C1C0
E0C180
C1C300
C1C600
C18E00
C18C60
C399F8
C33BBC
E7771C
7E660C
38C60C
01CE0C
038C1C
030C1C
060C18
0E0C18
1C0C38
180C70
300FE0
7007C0
ENDCHAR
STARTCHAR 0026
ENCODING 38
SWIDTH 660 0
DWIDTH 22 0
BBX 20 24 1 0
BITMAP
00FC00
01FE00
038700
070300
070300
060300
060700
070F00
071E00
03F800
03F000
07C000
0FE000
3CE070
787070
7038E0
E01CC0
E01DC0
E00F80
E00700
E01F80
703F80
7FF1C0
1FE0E0
ENDCHAR
STARTCHAR 0027
ENCODING 39
SWIDTH 210 0
DWIDTH 7 0
BBX 4 9 4 15
BITMAP
70
60
60
E0
E0
C0
C0
C0
80
ENDCHAR
STARTCHAR 0028
ENCODING 40
SWIDTH 270 0
DWIDTH 9 0
BBX 11 29 1 -5
BITMAP
00E0
01C0
0380
0300
0700
0E00
0C00
1C00
1800
3800
3800
7000
7000
7000
6000
6000
E000
E000
E000
E000
E000
E000
E000
6000
6000
7000
7000
3000
3000
ENDCHAR
STARTCHAR 0029
ENCODING 41
SWIDTH 270 0
DWIDTH 9 0
BBX 10 29 -2 -5
BITMAP
0300
0300
0180
0180
01C0
01C0
01C0
01C0
00C0
00C0
00C0
00C0
01C0
01C0
01C0
01C0
0180
0380
0380
0300
0700
0700
0E00
0E00
1C00
3800
3000
7000
E000
ENDCHAR
STARTCHAR 002A
ENCODING 42
SWIDTH 540 0
DWIDTH 18 0
BBX 15 15 4 10
BITMAP
01C0
0180
0180
8180
E100
FB00
1FFE
07FE
0F02
1D80
3980
71C0
60C0
20E0
00C0
ENDCHAR
STARTCHAR 002B
ENCODING 43
SWIDTH 570 0
DWIDTH 19 0
BBX 16 16 2 4
BITMAP
0180
0180
0180
0180
0180
0180
0180
FFFF
FFFF
0180
0180
0180
0180
0180
0180
0180
ENDCHAR
STARTCHAR 002C
ENCODING 44
SWIDTH 240 0
DWIDTH 8 0
BBX 6 8 -1 -4
BITMAP
1C
38
38
30
70
60
E0
C0
ENDCHAR
STARTCHAR 002D
ENCODING 45
SWIDTH 300 0
DWIDTH 10 0
BBX 8 2 1 8
BITMAP
FF
FF
ENDCHAR
STARTCHAR 002E
ENCODING 46
SWIDTH 240 0
DWIDTH 8 0
BBX 4 4 1 0
BITMAP
60
F0
F0
E0
ENDCHAR
STARTCHAR 002F
ENCODING 47
SWIDTH 330 0
DWIDTH 11 0
BBX 15 24 -1 0
BITMAP
0006
000E
001C
001C
0038
0038
0070
0060
00E0
00C0
01C0
0380
0380
0700
0700
0E00
0C00
1C00
1800
3800
7000
7000
E000
E000
ENDCHAR
STARTCHAR 0030
ENCODING 48
SWIDTH 540 0
DWIDTH 18 0
BBX 16 24 2 0
BITMAP
01F8
07FC
0F1E
1E0E
1C06
3807
3807
7007
7007
7007
6007
E007
E006
E00E
E00E
E00E
E01C
E01C
E01C
E038
7078
70F0
3FE0
1F80
ENDCHAR
STARTCHAR 0031
ENCODING 49
SWIDTH 540 0
DWIDTH 18 0
BBX 10 24 5 0
BITMAP
01C0
0780
0F80
3F80
7B80
E380
4300
0700
0700
0700
0600
0E00
0E00
0E00
0E00
0C00
1C00
1C00
1C00
1C00
1800
3800
3800
3800
ENDCHAR
STARTCHAR 0032
ENCODING 50
SWIDTH 540 0
DWIDTH 18 0
BBX 18 24 0 0
BITMAP
00FE00
03FF00
078780
060380
000180
0001C0
000180
000380
000380
000700
000700
000E00
001C00
003800
007000
01E000
03C000
078000
0F0000
1C0000
380000
700000
FFFE00
FFFE00
ENDCHAR
STARTCHAR 0033
ENCODING 51
SWIDTH 540 0
DWIDTH 18 0
BBX 17 24 1 0
BITMAP
01FC00
07FE00
0F0F00
0C0700
000300
000380
000300
000700
000700
001E00
00FC00
07E000
07F000
003800
001C00
000C00
000E00
000E00
000E00
001C00
003C00
C07800
FFF000
7FC000
ENDCHAR
STARTCHAR 0034
ENCODING 52
SWIDTH 540 0
DWIDTH 18 0
BBX 18 24 0 0
BITMAP
000380
000780
000F80
001F80
001B80
003B00
007300
00E700
01C700
038600
070600
060E00
0E0E00
1C0E00
380C00
700C00
7FFFC0
FFFFC0
001C00
001800
003800
003800
003800
003800
ENDCHAR
STARTCHAR 0035
ENCODING 53
SWIDTH 540 0
DWIDTH 18 0
BBX 17 24 1 0
BITMAP
03FF80
03FF80
07FF00
070000
060000
0E0000
0E0000
0C0000
0C0000
1CC000
1FF800
1FFC00
001C00
000E00
000E00
000E00
000E00
000E00
000E00
001C00
001C00
E07800
FFF000
7FC000
ENDCHAR
STARTCHAR 0036
ENCODING 54
SWIDTH 540 0
DWIDTH 18 0
BBX 16 24 2 0
BITMAP
007F
01FF
03E1
0700
0E00
1C00
1C00
3800
3800
71F0
77F8
7E3C
781C
F00C
E00E
E00E
E00E
E00C
E01C
E01C
7038
7870
3FF0
1FC0
ENDCHAR
STARTCHAR 0037
ENCODING 55
SWIDTH 540 0
DWIDTH 18 0
BBX 16 24 3 0
BITMAP
7FFF
7FFE
7FFE
000E
001C
001C
0038
0070
0070
00E0
00E0
01C0
0180
0380
0700
0700
0E00
0E00
1C00
3800
3800
7000
7000
E000
ENDCHAR
STARTCHAR 0038
ENCODING 56
SWIDTH 540 0
DWIDTH 18 0
BBX 17 24 1 0
BITMAP
00FC00
03FF00
078700
070380
0E0380
0E0380
0E0380
0E0380
060700
071E00
03FC00
03F000
0FF800
1E3C00
381C00
700E00
700E00
600E00
E00E00
600E00
701E00
783C00
3FF800
1FE000
ENDCHAR
STARTCHAR 0039
ENCODING 57
SWIDTH 540 0
DWIDTH 18 0
BBX 15 24 2 0
BITMAP
03F0
0FFC
1E1C
3C0E
380E
7006
7006
7006
7006
700E
700E
701E
387E
3FEE
0F8C
001C
001C
0038
0038
0070
00E0
03E0
FF80
FF00
ENDCHAR
STARTCHAR 003A
ENCODING 58
SWIDTH 240 0
DWIDTH 8 0
BBX 6 18 1 0
BITMAP
1C
1C
3C
18
00
00
00
00
00
00
00
00
00
00
60
F0
F0
E0
ENDCHAR
STARTCHAR 003B
ENCODING 59
SWIDTH 240 0
DWIDTH 8 0
BBX 8 22 -1 -4
BITMAP
07
07
0F
06
00
00
00
00
00
00
00
00
00
00
1C
38
38
70
70
60
E0
C0
ENDCHAR
STARTCHAR 003C
ENCODING 60
SWIDTH 570 0
DWIDTH 19 0
BBX 16 16 2 4
BITMAP
0001
0007
001E
0078
01E0
0780
3E00
F800
F000
7C00
1F80
03E0
00F8
003F
000F
0001
ENDCHAR
STARTCHAR 003D
ENCODING 61
SWIDTH 570 0
DWIDTH 19 0
BBX 15 9 3 7
BITMAP
FFFE
FFFE
0000
0000
0000
0000
FFFE
FFFE
FFFE
ENDCHAR
STARTCHAR 003E
ENCODING 62
SWIDTH 570 0
DWIDTH 19 0
BBX 16 16 2 4
BITMAP
C000
F000
7C00
1F00
07C0
01F0
007C
001F
0007
003E
00F8
07E0
1F00
7C00
F000
C000
ENDCHAR
STARTCHAR 003F
ENCODING 63
SWIDTH 420 0
DWIDTH 14 0
BBX 12 24 3 0
BITMAP
1F80
FFE0
70E0
0070
0070
0070
0070
0070
00E0
01C0
0380
0700
1E00
1C00
3800
3000
7000
0000
0000
0000
6000
E000
E000
E000
ENDCHAR
STARTCHAR 0040
ENCODING 64
SWIDTH 840 0
DWIDTH 28 0
BBX 25 27 2 -3
BITMAP
000FC000
007FF800
01F87C00
03800E00
0F000700
1C000300
18000380
381FC180
707FE180
60E0C180
61C0C180
E180C180
C181C180
C3818180
C3018380
C3038300
C3038700
C3878600
C1FDFE00
E1F8F800
60000000
70000000
30000000
3C000000
1F01C000
07FFC000
01FE0000
ENDCHAR
STARTCHAR 0041
ENCODING 65
SWIDTH 540 0
DWIDTH 18 0
BBX 19 24 -2 0
BITMAP
000700
000F00
000F00
001F00
001B80
003B80
003380
007380
006380
00E180
00C180
01C180
0381C0
0381C0
07FFC0
07FFC0
0E01C0
0E00C0
1C00C0
1C00C0
3800E0
7000E0
7000E0
E000E0
ENDCHAR
STARTCHAR 0042
ENCODING 66
SWIDTH 600 0
DWIDTH 20 0
BBX 18 24 2 0
BITMAP
0FF800
0FFF00
0FFF80
0C0380
0C03C0
1C01C0
1C01C0
1C0380
180380
380700
3FFE00
3FF000
3FFC00
300E00
700700
700700
700700
700700
600700
E00F00
E01E00
E07C00
FFF800
FFE000
ENDCHAR
STARTCHAR 0043
ENCODING 67
SWIDTH 570 0
DWIDTH 19 0
BBX 19 24 2 0
BITMAP
007F80
01FFE0
03E1C0
078000
0E0000
1C0000
1C0000
380000
380000
700000
700000
700000
700000
E00000
E00000
E00000
E00000
700000
700000
700000
380000
3E0600
1FFE00
07FC00
ENDCHAR
STARTCHAR 0044
ENCODING 68
SWIDTH 660 0
DWIDTH 22 0
BBX 19 24 2 0
BITMAP
0FF800
0FFE00
0FFF80
0C07C0
0C01C0
1C01E0
1C00E0
1C00E0
1800E0
3800E0
3800E0
3800E0
3800E0
3000E0
7000E0
7001C0
7001C0
700380
600780
E00F00
E03E00
E1FC00
FFF000
FF8000
ENDCHAR
STARTCHAR 0045
ENCODING 69
SWIDTH 510 0
DWIDTH 17 0
BBX 16 24 2 0
BITMAP
0FFF
0FFF
0FFF
0C00
0C00
1C00
1C00
1C00
1800
3800
3FFC
3FFC
3FF8
3000
7000
7000
7000
7000
6000
E000
E000
E000
FFF0
FFF0
ENDCHAR
STARTCHAR 0046
ENCODING 70
SWIDTH 450 0
DWIDTH 15 0
BBX 16 24 2 0
BITMAP
0FFF
0FFF
0FFF
0C00
0C00
1C00
1C00
1C00
1800
3800
3800
3FFC
3FF8
3FF8
7000
7000
7000
7000
6000
E000
E000
E000
C000
C000
ENDCHAR
STARTCHAR 0047
ENCODING 71
SWIDTH 660 0
DWIDTH 22 0
BBX 20 24 2 0
BITMAP
007FC0
01FFF0
03F1F0
078000
0F0000
1E0000
1C0000
380000
380000
700000
700000
700000
701FE0
E01FC0
E001C0
E001C0
E001C0
7001C0
700180
780380
380380
3E0780
1FFF80
07FE00
ENDCHAR
STARTCHAR 0048
ENCODING 72
SWIDTH 660 0
DWIDTH 22 0
BBX 21 24 2 0
BITMAP
0E0038
0E0038
0E0030
0E0070
0C0070
1C0070
1C0060
1C0060
1800E0
3800E0
3FFFE0
3FFFC0
3FFFC0
3001C0
7001C0
7001C0
700180
700380
600380
E00380
E00300
E00300
C00700
C00700
ENDCHAR
STARTCHAR 0049
ENCODING 73
SWIDTH 270 0
DWIDTH 9 0
BBX 7 24 2 0
BITMAP
0E
0E
0E
0C
0C
1C
1C
1C
18
38
38
38
38
30
70
70
70
60
60
E0
E0
E0
C0
C0
ENDCHAR
STARTCHAR 004A
ENCODING 74
SWIDTH 240 0
DWIDTH 8 0
BBX 14 30 -5 -6
BITMAP
001C
001C
001C
001C
0018
0038
0038
0038
0030
0070
0070
0070
0070
0060
00E0
00E0
00E0
00E0
00C0
01C0
01C0
01C0
01C0
0180
0380
0380
0700
0F00
FE00
FC00
ENDCHAR
STARTCHAR 004B
ENCODING 75
SWIDTH 540 0
DWIDTH 18 0
BBX 19 24 2 0
BITMAP
0E00E0
0E01C0
0E0380
0C0700
0C0E00
1C1C00
1C3800
1C7000
18E000
39C000
3B8000
3FC000
3FC000
38C000
70E000
70E000
707000
707000
603800
E03800
E03800
E01C00
C01C00
C00E00
ENDCHAR
STARTCHAR 004C
ENCODING 76
SWIDTH 450 0
DWIDTH 15 0
BBX 12 24 2 0
BITMAP
0E00
0E00
0E00
0C00
0C00
1C00
1C00
1C00
1800
3800
3800
3800
3800
3000
7000
7000
7000
7000
6000
E000
E000
E000
FFF0
FFF0
ENDCHAR
STARTCHAR 004D
ENCODING 77
SWIDTH 810 0
DWIDTH 27 0
BBX 27 24 1 0
BITMAP
078001E0
078003E0
07C007E0
07C007C0
0FC00FC0
0EC00DC0
0EC01DC0
0CC01980
0CC03980
1CC03380
1CE07380
1CE06380
18E0E300
1861C700
38618700
38638700
38630700
30670600
30760E00
707E0E00
703C0E00
703C0E00
60380C00
E0301C00
ENDCHAR
STARTCHAR 004E
ENCODING 78
SWIDTH 690 0
DWIDTH 23 0
BBX 23 24 1 0
BITMAP
07000E
07800C
07801C
07C01C
0FC01C
0EC018
0EE018
0CE038
0C6038
1C7038
1C3030
1C3830
183870
181870
381C70
381C60
380CE0
300EE0
3006E0
7007C0
7007C0
7003C0
6003C0
E003C0
ENDCHAR
STARTCHAR 004F
ENCODING 79
SWIDTH 720 0
DWIDTH 24 0
BBX 21 24 2 0
BITMAP
007F00
01FFC0
07E7E0
0F00F0
0E0070
1C0070
380038
380038
700038
700038
700038
700038
700038
E00038
E00070
E00070
E00070
7000E0
7001E0
7001C0
380780
3E1F00
1FFE00
07F800
ENDCHAR
STARTCHAR 0050
ENCODING 80
SWIDTH 540 0
DWIDTH 18 0
BBX 17 24 2 0
BITMAP
0FF800
0FFE00
0FFF00
0C0700
0C0380
1C0380
1C0380
1C0380
180380
380700
380700
381E00
3FFC00
3FF800
7F0000
700000
700000
700000
600000
E00000
E00000
E00000
C00000
C00000
ENDCHAR
STARTCHAR 0051
ENCODING 81
SWIDTH 720 0
DWIDTH 24 0
BBX 21 30 2 -6
BITMAP
007F00
01FFC0
07E7E0
0F00F0
0E0070
1C0070
380038
380038
700038
700038
700038
700038
700038
E00038
E00070
E00070
600070
7000E0
7001E0
7001C0
380380
3E1F00
1FFE00
07F800
003800
003C00
001C00
000E00
000700
000780
ENDCHAR
STARTCHAR 0052
ENCODING 82
SWIDTH 570 0
DWIDTH 19 0
BBX 17 24 2 0
BITMAP
0FF000
0FFE00
0FFF00
0E0700
0C0380
1C0380
1C0380
1C0380
180380
380700
380F00
387E00
3FF800
3FE000
706000
707000
707000
703000
603800
E03800
E01C00
E01C00
C01C00
C00E00
ENDCHAR
STARTCHAR 0053
ENCODING 83
SWIDTH 480 0
DWIDTH 16 0
BBX 16 24 1 0
BITMAP
01FC
07FF
0F8F
1E00
1C00
1C00
1800
1C00
1C00
1E00
0F00
07C0
03F0
00F8
0078
003C
001C
001C
001C
003C
0038
C0F8
FFF0
FFC0
ENDCHAR
STARTCHAR 0054
ENCODING 84
SWIDTH 480 0
DWIDTH 16 0
BBX 17 24 3 0
BITMAP
FFFF80
FFFF00
FFFF00
038000
038000
038000
038000
030000
070000
070000
070000
070000
060000
0E0000
0E0000
0E0000
0E0000
1C0000
1C0000
1C0000
1C0000
180000
380000
380000
ENDCHAR
STARTCHAR 0055
ENCODING 85
SWIDTH 660 0
DWIDTH 22 0
BBX 20 24 3 0
BITMAP
1C0070
1C0070
180060
3800E0
3800E0
3800E0
3800E0
3000C0
7001C0
7001C0
7001C0
7001C0
E00180
E00380
E00380
E00380
E00300
C00700
C00700
E00E00
E01E00
783C00
7FF800
1FE000
ENDCHAR
STARTCHAR 0056
ENCODING 86
SWIDTH 540 0
DWIDTH 18 0
BBX 18 24 3 0
BITMAP
E001C0
E001C0
E00380
E00380
600700
600700
600E00
700C00
701C00
703800
703800
707000
707000
30E000
30E000
31C000
31C000
3B8000
3B8000
3F0000
3F0000
3E0000
1C0000
1C0000
ENDCHAR
STARTCHAR 0057
ENCODING 87
SWIDTH 840 0
DWIDTH 28 0
BBX 27 24 4 0
BITMAP
C00E00E0
C01E00E0
C01E01C0
C03E01C0
C0360380
E0360380
E0760300
E0660700
E0E60600
E0C60E00
E1C60E00
E1861C00
E3861C00
E3063800
E7073800
E6073000
EE077000
EE076000
EC07E000
FC07C000
7807C000
7803C000
70038000
70038000
ENDCHAR
STARTCHAR 0058
ENCODING 88
SWIDTH 510 0
DWIDTH 17 0
BBX 21 24 -1 0
BITMAP
070038
070070
0300E0
0380E0
0381C0
018380
01C700
00CE00
00CE00
00FC00
007800
007000
00F000
01F800
019800
039C00
071C00
0E0C00
0C0E00
1C0E00
380600
700700
E00700
E00300
ENDCHAR
STARTCHAR 0059
ENCODING 89
SWIDTH 480 0
DWIDTH 16 0
BBX 17 24 3 0
BITMAP
E00380
E00700
600E00
700E00
701C00
703800
303800
387000
38E000
18E000
19C000
1F8000
1F8000
0F0000
0E0000
0E0000
0C0000
1C0000
1C0000
1C0000
1C0000
180000
380000
380000
ENDCHAR
STARTCHAR 005A
ENCODING 90
SWIDTH 510 0
DWIDTH 17 0
BBX 19 24 0 0
BITMAP
07FFE0
07FFE0
07FFE0
0001C0
000380
000700
000E00
001E00
001C00
003800
007000
00F000
01E000
01C000
038000
070000
0F0000
0E0000
1C0000
380000
700000
F00000
FFFE00
FFFE00
ENDCHAR
STARTCHAR 005B
ENCODING 91
SWIDTH 270 0
DWIDTH 9 0
BBX 12 29 0 -5
BITMAP
03F0
03F0
0700
0700
0700
0600
0600
0E00
0E00
0C00
0C00
1C00
1C00
1C00
1800
1800
3800
3800
3800
3000
3000
7000
7000
7000
6000
E000
E000
FE00
FC00
ENDCHAR
STARTCHAR 005C
ENCODING 92
SWIDTH 330 0
DWIDTH 11 0
BBX 6 24 4 0
BITMAP
C0
C0
C0
E0
E0
E0
60
60
60
60
70
70
70
30
30
30
30
38
38
38
18
18
18
1C
ENDCHAR
STARTCHAR 005D
ENCODING 93
SWIDTH 270 0
DWIDTH 9 0
BBX 12 29 -2 -5
BITMAP
03F0
07F0
0070
0070
0060
00E0
00E0
00E0
00C0
00C0
01C0
01C0
01C0
0180
0180
0380
0380
0380
0300
0300
0700
0700
0600
0600
0E00
0E00
0E00
FC00
FC00
ENDCHAR
STARTCHAR 005E
ENCODING 94
SWIDTH 540 0
DWIDTH 18 0
BBX 15 15 2 9
BITMAP
0380
0380
03C0
06C0
06E0
0C60
0C60
1830
1830
3018
3018
600C
600C
E006
C006
ENDCHAR
STARTCHAR 005F
ENCODING 95
SWIDTH 390 0
DWIDTH 13 0
BBX 13 2 -3 -5
BITMAP
FFF8
FFF8
ENDCHAR
STARTCHAR 0060
ENCODING 96
SWIDTH 270 0
DWIDTH 9 0
BBX 5 6 5 20
BITMAP
E0
E0
70
30
38
18
ENDCHAR
STARTCHAR 0061
ENCODING 97
SWIDTH 540 0
DWIDTH 18 0
BBX 16 18 2 0
BITMAP
07E3
0FF3
1E3F
3C1E
780E
700E
700E
E00E
E00C
E01C
C01C
C01C
C03C
C078
E078
F1D8
7FB8
3E38
ENDCHAR
STARTCHAR 0062
ENCODING 98
SWIDTH 570 0
DWIDTH 19 0
BBX 17 25 1 0
BITMAP
070000
070000
060000
0E0000
0E0000
0E0000
0E0000
0C7C00
1CFE00
1D8F00
1F0700
1E0300
1C0380
3C0380
380380
380300
300700
300700
700700
700E00
700E00
781C00
FC3C00
EFF800
C7E000
ENDCHAR
STARTCHAR 0063
ENCODING 99
SWIDTH 450 0
DWIDTH 15 0
BBX 13 18 2 0
BITMAP
03F8
0FF8
1E18
3800
7800
7000
E000
E000
E000
E000
C000
C000
C000
E000
E000
7060
7FE0
1FC0
ENDCHAR
STARTCHAR 0064
ENCODING 100
SWIDTH 570 0
DWIDTH 19 0
BBX 18 25 2 0
BITMAP
0001C0
000180
000180
000380
000380
000380
000300
07E700
0FF700
1E3F00
381F00
780E00
700E00
700E00
E00E00
E00E00
E00C00
C01C00
C01C00
C03C00
C07800
E07800
F1D800
7FB800
3E3800
ENDCHAR
STARTCHAR 0065
ENCODING 101
SWIDTH 480 0
DWIDTH 16 0
BBX 14 18 2 0
BITMAP
03F0
0FF8
1E38
381C
701C
7018
6038
E1F0
FFE0
FF80
C000
C000
C000
E000
E000
7020
7FE0
1FC0
ENDCHAR
STARTCHAR 0066
ENCODING 102
SWIDTH 300 0
DWIDTH 10 0
BBX 19 33 -4 -7
BITMAP
000FE0
001FC0
001C00
003800
003800
003000
007000
00FF00
03FE00
006000
00E000
00E000
00E000
00E000
00C000
01C000
01C000
01C000
01C000
018000
038000
038000
038000
030000
030000
070000
070000
070000
060000
0E0000
9E0000
FC0000
F80000
ENDCHAR
STARTCHAR 0067
ENCODING 103
SWIDTH 510 0
DWIDTH 17 0
BBX 20 26 -2 -8
BITMAP
007FF0
01FFF0
038380
030180
070180
070180
060380
060380
070700
038F00
01FC00
03E000
060000
0E0000
0E0000
07F000
07FE00
1C3F00
300700
600300
600300
E00700
600700
701E00
3FFC00
0FE000
ENDCHAR
STARTCHAR 0068
ENCODING 104
SWIDTH 570 0
DWIDTH 19 0
BBX 16 25 1 0
BITMAP
0700
0700
0600
0E00
0E00
0E00
0E00
0C7C
1CFF
1D87
1F07
1E03
1C03
3C07
3807
3807
3006
300E
700E
700E
700E
600C
E01C
E01C
E01C
ENDCHAR
STARTCHAR 0069
ENCODING 105
SWIDTH 240 0
DWIDTH 8 0
BBX 8 24 1 0
BITMAP
07
0F
06
00
00
00
0C
1C
1C
1C
1C
18
38
38
38
30
30
70
70
70
60
E0
E0
E0
ENDCHAR
STARTCHAR 006A
ENCODING 106
SWIDTH 240 0
DWIDTH 8 0
BBX 13 32 -4 -8
BITMAP
0038
0078
0030
0000
0000
0000
0060
00E0
00E0
00E0
00E0
00C0
01C0
01C0
01C0
0180
0180
0380
0380
0380
0300
0700
0700
0700
0700
0600
0E00
0E00
0E00
1C00
F800
F000
ENDCHAR
STARTCHAR 006B
ENCODING 107
SWIDTH 480 0
DWIDTH 16 0
BBX 16 25 1 0
BITMAP
0700
0700
0600
0E00
0E00
0E00
0E00
0C07
1C0E
1C1C
1C38
1870
18E0
39C0
3B80
3780
3F80
79C0
71C0
70E0
70E0
6070
E070
E038
E038
ENDCHAR
STARTCHAR 006C
ENCODING 108
SWIDTH 240 0
DWIDTH 8 0
BBX 8 25 1 0
BITMAP
07
07
06
0E
0E
0E
0E
0C
1C
1C
1C
1C
18
38
38
38
30
70
70
70
70
60
E0
E0
E0
ENDCHAR
STARTCHAR 006D
ENCODING 109
SWIDTH 870 0
DWIDTH 29 0
BBX 26 18 1 0
BITMAP
0C7C1F00
1CFE3F80
1D8E73C0
1F06C1C0
1E0781C0
1C0701C0
380701C0
380601C0
380E01C0
300E0180
300E0380
700C0380
701C0380
701C0300
601C0700
E01C0700
E0180700
E0380700
ENDCHAR
STARTCHAR 006E
ENCODING 110
SWIDTH 570 0
DWIDTH 19 0
BBX 16 18 1 0
BITMAP
0C7E
1DFF
1FCF
1F07
1E03
3C07
3C07
3807
3807
3807
700E
700E
700E
700E
600C
E01C
E01C
E01C
ENDCHAR
STARTCHAR 006F
ENCODING 111
SWIDTH 540 0
DWIDTH 18 0
BBX 15 18 2 0
BITMAP
03F0
0FF8
1E3C
381E
700E
700E
E00E
E00E
E00E
E00E
C00E
C00C
C01C
E01C
E038
70F0
7FE0
1FC0
ENDCHAR
STARTCHAR 0070
ENCODING 112
SWIDTH 570 0
DWIDTH 19 0
BBX 19 26 -1 -8
BITMAP
031F00
073F80
0763C0
07C1C0
0780C0
0700E0
0F00E0
0E00E0
0E00C0
0C01C0
0C01C0
1C01C0
1C0380
1C0380
1E0700
3F0F00
3BFE00
39F800
380000
300000
700000
700000
700000
600000
600000
E00000
ENDCHAR
STARTCHAR 0071
ENCODING 113
SWIDTH 570 0
DWIDTH 19 0
BBX 16 26 2 -8
BITMAP
07E3
0FF3
1E3F
381F
780E
700E
700E
E00E
E00E
E01C
C01C
C01C
C03C
C078
E078
F1F8
7FB8
3E38
0030
0070
0070
0070
0070
0060
00E0
00E0
ENDCHAR
STARTCHAR 0072
ENCODING 114
SWIDTH 390 0
DWIDTH 13 0
BBX 13 18 1 0
BITMAP
0C78
1DF8
1DC0
1F00
1E00
1C00
3C00
3800
3800
3000
3000
7000
7000
7000
6000
E000
E000
E000
ENDCHAR
STARTCHAR 0073
ENCODING 115
SWIDTH 420 0
DWIDTH 14 0
BBX 14 18 0 0
BITMAP
07F0
0FFC
1C18
3800
3800
3800
1C00
1E00
0F80
03C0
01E0
0070
0070
0070
0070
C0E0
FFE0
7F80
ENDCHAR
STARTCHAR 0074
ENCODING 116
SWIDTH 300 0
DWIDTH 10 0
BBX 10 22 2 0
BITMAP
0C00
0C00
1C00
1C00
7FC0
FFC0
3800
3800
3800
3000
7000
7000
7000
6000
6000
E000
E000
E000
E000
E000
FE00
7E00
ENDCHAR
STARTCHAR 0075
ENCODING 117
SWIDTH 570 0
DWIDTH 19 0
BBX 16 18 2 0
BITMAP
3807
3807
3807
3807
3006
700E
700E
700E
600C
601C
E01C
E01C
E03C
E078
E078
E1F8
FFB8
7E38
ENDCHAR
STARTCHAR 0076
ENCODING 118
SWIDTH 450 0
DWIDTH 15 0
BBX 15 18 2 0
BITMAP
C00E
C01C
E01C
E038
E038
E070
E070
E0E0
60C0
61C0
6380
7380
7700
7700
7600
7E00
3C00
3C00
ENDCHAR
STARTCHAR 0077
ENCODING 119
SWIDTH 690 0
DWIDTH 23 0
BBX 23 18 2 0
BITMAP
E0380E
E0780C
E0781C
E0F81C
E0D838
E1D838
E19870
E39870
E318E0
E718E0
E618C0
E619C0
EC1980
EC1F80
7C1F00
781F00
781F00
700E00
ENDCHAR
STARTCHAR 0078
ENCODING 120
SWIDTH 480 0
DWIDTH 16 0
BBX 18 18 -1 0
BITMAP
0E03C0
0E0380
060700
070E00
031C00
03B800
03B000
01F000
01E000
01E000
03E000
077000
0E7000
0E3000
1C3800
381800
701C00
E00C00
ENDCHAR
STARTCHAR 0079
ENCODING 121
SWIDTH 450 0
DWIDTH 15 0
BBX 20 26 -3 -8
BITMAP
060070
0700E0
0700E0
0701C0
0701C0
070380
030380
030700
030600
038E00
038C00
039C00
039800
01B800
01B000
01F000
01E000
01E000
01C000
018000
038000
070000
070000
1E0000
FC0000
F80000
ENDCHAR
STARTCHAR 007A
ENCODING 122
SWIDTH 420 0
DWIDTH 14 0
BBX 15 18 0 0
BITMAP
0FFE
0FFC
001C
0038
0070
0070
00E0
01C0
0380
0700
0F00
0E00
1C00
3800
7000
E000
FFF0
FFE0
ENDCHAR
STARTCHAR 007B
ENCODING 123
SWIDTH 330 0
DWIDTH 11 0
BBX 13 29 0 -5
BITMAP
0018
00F8
01F0
01C0
0180
0380
0380
0380
0300
0300
0700
0700
0E00
7C00
7000
F800
1C00
0C00
0C00
0C00
1C00
1C00
1800
1800
3800
3800
3800
1F00
0F00
ENDCHAR
STARTCHAR 007C
ENCODING 124
SWIDTH 540 0
DWIDTH 18 0
BBX 2 33 9 -8
BITMAP
C0
C0
C0
C0
C0
C0
C0
C0
C0
C0
C0
C0
C0
C0
C0
C0
C0
C0
C0
C0
C0
C0
C0
C0
C0
C0
C0
C0
C0
C0
C0
C0
C0
ENDCHAR
STARTCHAR 007D
ENCODING 125
SWIDTH 330 0
DWIDTH 11 0
BBX 12 29 -1 -5
BITMAP
0700
07C0
07C0
00C0
00C0
00C0
01C0
01C0
01C0
0180
0180
0180
0180
01C0
00F0
01F0
0380
0700
0700
0600
0E00
0E00
0E00
0C00
0C00
1C00
3C00
F800
F000
ENDCHAR
STARTCHAR 007E
ENCODING 126
SWIDTH 570 0
DWIDTH 19 0
BBX 16 4 2 10
BITMAP
1E00
7F83
E7FF
80FE
ENDCHAR
STARTCHAR 00A0
ENCODING 160
SWIDTH 240 0
DWIDTH 8 0
BBX 0 0 0 0
BITMAP
ENDCHAR
STARTCHAR 00A1
ENCODING 161
SWIDTH 240 0
DWIDTH 8 0
BBX 8 24 0 -6
BITMAP
07
0F
0F
0E
00
00
00
0C
0C
18
18
18
18
38
38
30
30
70
70
70
70
E0
E0
E0
ENDCHAR
STARTCHAR 00A2
ENCODING 162
SWIDTH 540 0
DWIDTH 18 0
BBX 13 24 4 0
BITMAP
00C0
00C0
00C0
07F8
0FF8
1C08
3800
7000
7000
E000
E000
E000
C000
C000
C000
C000
E000
E000
7860
3FE0
1FC0
0C00
0C00
0C00
ENDCHAR
STARTCHAR 00A3
ENCODING 163
SWIDTH 540 0
DWIDTH 18 0
BBX 19 24 0 0
BITMAP
001F80
007FE0
00F0E0
01E000
01C000
01C000
018000
038000
038000
038000
030000
3FFC00
3FFC00
070000
070000
060000
0E0000
0E0000
0E0000
1C0000
380000
700000
FFFE00
FFFE00
ENDCHAR
STARTCHAR 00A4
ENCODING 164
SWIDTH 540 0
DWIDTH 18 0
BBX 14 14 3 5
BITMAP
4008
EF9C
7FF8
3870
7030
6018
6018
6018
6018
6038
3070
7FF8
EFDC
C008
ENDCHAR
STARTCHAR 00A5
ENCODING 165
SWIDTH 540 0
DWIDTH 18 0
BBX 18 24 2 0
BITMAP
3801C0
3801C0
380380
180700
1C0700
1C0E00
0C1C00
0C1800
0E3800
0E7000
066000
06E000
07C000
7FF800
7FF800
030000
070000
070000
FFF000
FFF000
060000
0E0000
0E0000
0E0000
ENDCHAR
STARTCHAR 00A6
ENCODING 166
SWIDTH 540 0
DWIDTH 18 0
BBX 2 33 9 -8
BITMAP
C0
C0
C0
C0
C0
C0
C0
C0
C0
C0
C0
C0
00
00
00
00
00
00
00
00
C0
C0
C0
C0
C0
C0
C0
C0
C0
C0
C0
C0
C0
ENDCHAR
STARTCHAR 00A7
ENCODING 167
SWIDTH 480 0
DWIDTH 16 0
BBX 15 25 1 0
BITMAP
03FE
07FE
0E00
0C00
0C00
0E00
0780
03E0
0FF0
1C78
381C
301C
301C
3818
3C38
1F70
0FE0
03E0
00F0
0070
0070
0070
C0E0
FFC0
7F80
ENDCHAR
STARTCHAR 00A8
ENCODING 168
SWIDTH 540 0
DWIDTH 18 0
BBX 9 3 7 21
BITMAP
6180
E380
6180
ENDCHAR
STARTCHAR 00A9
ENCODING 169
SWIDTH 810 0
DWIDTH 27 0
BBX 24 24 2 0
BITMAP
00FF00
07FFC0
0E00F0
1C0038
30001C
707F0C
60FF06
C1C006
C38003
C38003
C30003
830003
830003
830003
C30003
C38003
C1C006
61FF06
60FF0C
30081C
180038
0E0070
07C3E0
01FF80
ENDCHAR
STARTCHAR 00AA
ENCODING 170
SWIDTH 330 0
DWIDTH 11 0
BBX 10 11 3 13
BITMAP
1EC0
3F80
6180
6180
C180
C180
C300
C300
C700
FF00
7B00
ENDCHAR
STARTCHAR 00AB
ENCODING 171
SWIDTH 450 0
DWIDTH 15 0
BBX 14 14 1 2
BITMAP
0200
070C
0E1C
1C38
3870
78E0
F1C0
61C0
71C0
30C0
38E0
1860
1C70
0830
ENDCHAR
STARTCHAR 00AC
ENCODING 172
SWIDTH 570 0
DWIDTH 19 0
BBX 16 9 2 4
BITMAP
FFFF
FFFF
0003
0003
0003
0003
0003
0003
0003
ENDCHAR
STARTCHAR 00AD
ENCODING 173
SWIDTH 300 0
DWIDTH 10 0
BBX 8 2 1 8
BITMAP
FF
FF
ENDCHAR
STARTCHAR 00AE
ENCODING 174
SWIDTH 810 0
DWIDTH 27 0
BBX 24 24 2 0
BITMAP
00FF00
07FFC0
0E00F0
1C0038
30001C
71FE0C
61FF06
C1C386
C1C383
C1C383
C1C383
81C703
81FE03
81FC03
C1C603
C1C703
C1C306
61C386
61C18C
30005C
180038
0E0070
07C3E0
01FF80
ENDCHAR
STARTCHAR 00AF
ENCODING 175
SWIDTH 390 0
DWIDTH 13 0
BBX 14 2 3 25
BITMAP
7FFC
FFFC
ENDCHAR
STARTCHAR 00B0
ENCODING 176
SWIDTH 420 0
DWIDTH 14 0
BBX 10 10 2 14
BITMAP
3F00
7F80
E1C0
C0C0
C0C0
C0C0
C0C0
E1C0
7F80
1F00
ENDCHAR
STARTCHAR 00B1
ENCODING 177
SWIDTH 570 0
DWIDTH 19 0
BBX 16 20 2 0
BITMAP
0180
0180
0180
0180
0180
0180
0180
FFFF
FFFF
0180
0180
0180
0180
0180
0180
0180
0000
0000
FFFF
FFFF
ENDCHAR
STARTCHAR 00B2
ENCODING 178
SWIDTH 330 0
DWIDTH 11 0
BBX 11 14 2 14
BITMAP
0FC0
1CE0
0060
0060
0060
00E0
01C0
0380
0700
0E00
1C00
3000
7FC0
FFC0
ENDCHAR
STARTCHAR 00B3
ENCODING 179
SWIDTH 330 0
DWIDTH 11 0
BBX 10 14 3 14
BITMAP
3F80
39C0
00C0
00C0
00C0
0380
1E00
1F00
0180
0180
0180
0380
EF00
FE00
ENDCHAR
STARTCHAR 00B4
ENCODING 180
SWIDTH 240 0
DWIDTH 8 0
BBX 7 6 4 20
BITMAP
0E
1C
38
70
60
C0
ENDCHAR
STARTCHAR 00B5
ENCODING 181
SWIDTH 570 0
DWIDTH 19 0
BBX 19 26 -1 -8
BITMAP
030060
0700E0
0700E0
0700E0
0700E0
0600C0
0E01C0
0E01C0
0E01C0
0C0180
0C0380
1C0380
1C0780
1C0780
1C0F00
3C3B00
3FF300
3FE700
300000
300000
700000
700000
700000
600000
600000
E00000
ENDCHAR
STARTCHAR 00B6
ENCODING 182
SWIDTH 630 0
DWIDTH 21 0
BBX 16 29 3 -4
BITMAP
0FFF
3FFF
7FE1
7FE1
7FE1
FFE1
FFE1
FFE1
FFE1
FFE1
FFE1
7FE1
7FE1
3FE1
1FE1
0FE1
0061
0061
0061
0061
0061
0061
0061
0061
0061
0061
0061
0061
0061
ENDCHAR
STARTCHAR 00B7
ENCODING 183
SWIDTH 240 0
DWIDTH 8 0
BBX 4 5 3 9
BITMAP
60
F0
F0
E0
40
ENDCHAR
STARTCHAR 00B8
ENCODING 184
SWIDTH 180 0
DWIDTH 6 0
BBX 6 8 -3 -8
BITMAP
18
18
38
0C
0C
0C
FC
F0
ENDCHAR
STARTCHAR 00B9
ENCODING 185
SWIDTH 330 0
DWIDTH 11 0
BBX 6 14 5 14
BITMAP
0C
3C
7C
CC
1C
18
18
18
18
38
30
30
30
70
ENDCHAR
STARTCHAR 00BA
ENCODING 186
SWIDTH 330 0
DWIDTH 11 0
BBX 9 11 3 13
BITMAP
1F00
3F80
6180
4180
C080
C180
C180
C180
C300
7F00
3E00
ENDCHAR
STARTCHAR 00BB
ENCODING 187
SWIDTH 450 0
DWIDTH 15 0
BBX 14 14 0 2
BITMAP
0020
1860
1870
1C30
0E38
0E18
071C
0F1C
0E3C
1C78
3870
70E0
E180
4100
ENDCHAR
STARTCHAR 00BC
ENCODING 188
SWIDTH 720 0
DWIDTH 24 0
BBX 20 24 3 0
BITMAP
070070
0E0060
3E00C0
7601C0
0E0380
0C0300
0C0600
0C0E00
0C1C00
1C1800
183070
1870F0
18E1E0
38C3E0
018360
038660
070CC0
0618C0
0C30C0
1C3FF0
387FF0
300180
600180
E00180
ENDCHAR
STARTCHAR 00BD
ENCODING 189
SWIDTH 780 0
DWIDTH 26 0
BBX 22 24 3 0
BITMAP
070070
0E0060
3E00C0
7601C0
0E0380
0C0300
0C0600
0C0E00
0C1C00
1C1830
1831F8
18739C
18E00C
38C00C
01800C
038018
070038
060070
0C00E0
1C0180
380300
300600
600FF8
E01FF8
ENDCHAR
STARTCHAR 00BE
ENCODING 190
SWIDTH 780 0
DWIDTH 26 0
BBX 23 24 2 0
BITMAP
1F800E
3FC00C
00C018
00C038
00C070
018060
1F00C0
1F01C0
038380
018300
01860E
018E1C
839C3C
FF186C
3830EC
0070DC
00E198
00C318
018618
0387FE
070FFE
060030
0C0030
1C0030
ENDCHAR
STARTCHAR 00BF
ENCODING 191
SWIDTH 420 0
DWIDTH 14 0
BBX 13 24 -1 -6
BITMAP
0038
0078
0078
0070
0000
0000
0000
0060
00E0
00C0
01C0
0380
0F00
1E00
3C00
7800
7000
6000
E000
E000
E000
7060
7FF0
3FE0
ENDCHAR
STARTCHAR 00C0
ENCODING 192
SWIDTH 540 0
DWIDTH 18 0
BBX 19 32 -2 0
BITMAP
000C00
000E00
000600
000700
000300
000180
000000
000000
000700
000F00
000F00
001F00
001B80
003B80
003380
007380
006380
00E180
00C180
01C180
0381C0
0381C0
07FFC0
07FFC0
0E01C0
0E00C0
1C00C0
1C00C0
3800E0
7000E0
7000E0
E000E0
ENDCHAR
STARTCHAR 00C1
ENCODING 193
SWIDTH 540 0
DWIDTH 18 0
BBX 20 32 -2 0
BITMAP
000070
000070
0000E0
0001C0
000380
000700
000000
000000
000700
000F00
000F00
001F00
001B80
003B80
003380
007380
006380
00E180
00C180
01C180
0381C0
0381C0
07FFC0
07FFC0
0E01C0
0E00C0
1C00C0
1C00C0
3800E0
7000E0
7000E0
E000E0
ENDCHAR
STARTCHAR 00C2
ENCODING 194
SWIDTH 540 0
DWIDTH 18 0
BBX 20 31 -2 0
BITMAP
000380
0007C0
000EE0
001860
003030
000000
000000
000700
000F00
000F00
001F00
001B80
003B80
003380
007380
006380
00E180
00C180
01C180
0381C0
0381C0
07FFC0
07FFC0
0E01C0
0E00C0
1C00C0
1C00C0
3800E0
7000E0
7000E0
E000E0
ENDCHAR
STARTCHAR 00C3
ENCODING 195
SWIDTH 540 0
DWIDTH 18 0
BBX 21 30 -2 0
BITMAP
001F18
003FF8
0031F0
0060E0
000000
000000
000700
000F00
000F00
001F00
001B80
003B80
003380
007380
006380
00E180
00C180
01C180
0381C0
0381C0
07FFC0
07FFC0
0E01C0
0E00C0
1C00C0
1C00C0
3800E0
7000E0
7000E0
E000E0
ENDCHAR
STARTCHAR 00C4
ENCODING 196
SWIDTH 540 0
DWIDTH 18 0
BBX 20 30 -2 0
BITMAP
001C70
001C70
001860
000000
000000
000000
000700
000F00
000F00
001F00
001B80
003B80
003380
007380
006380
00E180
00C180
01C180
0381C0
0381C0
07FFC0
07FFC0
0E01C0
0E00C0
1C00C0
1C00C0
3800E0
7000E0
7000E0
E000E0
ENDCHAR
STARTCHAR 00C5
ENCODING 197
SWIDTH 540 0
DWIDTH 18 0
BBX 19 33 -2 0
BITMAP
000380
000FC0
000C60
000860
000860
000CC0
000780
000000
000000
000700
000F00
000F00
001F00
001B80
003B80
003380
007380
006380
00E180
00C180
01C180
0381C0
0381C0
07FFC0
07FFC0
0E01C0
0E00C0
1C00C0
1C00C0
3800E0
7000E0
7000E0
E000E0
ENDCHAR
STARTCHAR 00C6
ENCODING 198
SWIDTH 810 0
DWIDTH 27 0
BBX 31 24 -2 0
BITMAP
0001FFFE
0003FFFC
0003FFFC
00073800
00063000
000E7000
001C7000
001C7000
00387000
00706000
0070FFF0
00E0FFF0
01C0FFE0
01C0C000
03FFC000
07FFC000
0701C000
0E01C000
0E018000
1C038000
38038000
38038000
7003FFC0
F003FFC0
ENDCHAR
STARTCHAR 00C7
ENCODING 199
SWIDTH 570 0
DWIDTH 19 0
BBX 19 32 2 -8
BITMAP
007F80
01FFE0
03E1C0
078000
0E0000
1C0000
1C0000
380000
380000
700000
700000
700000
700000
E00000
E00000
E00000
E00000
700000
700000
700000
380000
3E0600
1FFE00
07FC00
018000
018000
03C000
00C000
00E000
00C000
0FC000
0F0000
ENDCHAR
STARTCHAR 00C8
ENCODING 200
SWIDTH 510 0
DWIDTH 17 0
BBX 16 32 2 0
BITMAP
01C0
00E0
00E0
0070
0030
0018
0000
0000
0FFF
0FFF
0FFF
0C00
0C00
1C00
1C00
1C00
1800
3800
3FFC
3FFC
3FF8
3000
7000
7000
7000
7000
6000
E000
E000
E000
FFF0
FFF0
ENDCHAR
STARTCHAR 00C9
ENCODING 201
SWIDTH 510 0
DWIDTH 17 0
BBX 16 32 2 0
BITMAP
0007
000F
000E
001C
0030
0060
0000
0000
0FFF
0FFF
0FFF
0C00
0C00
1C00
1C00
1C00
1800
3800
3FFC
3FFC
3FF8
3000
7000
7000
7000
7000
6000
E000
E000
E000
FFF0
FFF0
ENDCHAR
STARTCHAR 00CA
ENCODING 202
SWIDTH 510 0
DWIDTH 17 0
BBX 16 31 2 0
BITMAP
0078
007C
00CC
0186
0303
0000
0000
0FFF
0FFF
0FFF
0C00
0C00
1C00
1C00
1C00
1800
3800
3FFC
3FFC
3FF8
3000
7000
7000
7000
7000
6000
E000
E000
E000
FFF0
FFF0
ENDCHAR
STARTCHAR 00CB
ENCODING 203
SWIDTH 510 0
DWIDTH 17 0
BBX 16 30 2 0
BITMAP
01C7
01C7
0186
0000
0000
0000
0FFF
0FFF
0FFF
0C00
0C00
1C00
1C00
1C00
1800
3800
3FFC
3FFC
3FF8
3000
7000
7000
7000
7000
6000
E000
E000
E000
FFF0
FFF0
ENDCHAR
STARTCHAR 00CC
ENCODING 204
SWIDTH 270 0
DWIDTH 9 0
BBX 8 32 2 0
BITMAP
1C
1C
0C
0E
06
03
00
00
0E
0E
0E
0C
0C
1C
1C
1C
18
38
38
38
38
30
70
70
70
60
60
E0
E0
E0
C0
C0
ENDCHAR
STARTCHAR 00CD
ENCODING 205
SWIDTH 270 0
DWIDTH 9 0
BBX 12 32 2 0
BITMAP
0070
00E0
01C0
0380
0300
0600
0000
0000
0E00
0E00
0E00
0C00
0C00
1C00
1C00
1C00
1800
3800
3800
3800
3800
3000
7000
7000
7000
6000
6000
E000
E000
E000
C000
C000
ENDCHAR
STARTCHAR 00CE
ENCODING 206
SWIDTH 270 0
DWIDTH 9 0
BBX 11 31 2 0
BITMAP
0780
0F80
1CC0
38E0
7060
0000
0000
0E00
0E00
0E00
0C00
0C00
1C00
1C00
1C00
1800
3800
3800
3800
3800
3000
7000
7000
7000
6000
6000
E000
E000
E000
C000
C000
ENDCHAR
STARTCHAR 00CF
ENCODING 207
SWIDTH 270 0
DWIDTH 9 0
BBX 11 30 2 0
BITMAP
1860
38E0
1860
0000
0000
0000
0E00
0E00
0E00
0C00
0C00
1C00
1C00
1C00
1800
3800
3800
3800
3800
3000
7000
7000
7000
6000
6000
E000
E000
E000
C000
C000
ENDCHAR
STARTCHAR 00D0
ENCODING 208
SWIDTH 660 0
DWIDTH 22 0
BBX 20 24 1 0
BITMAP
07FC00
07FF00
07FFC0
0603E0
0E00E0
0E00F0
0E0070
0E0070
0C0070
1C0070
1C0070
7FE070
FFE070
180070
380070
3800E0
3800E0
3801C0
3003C0
700780
701F00
70FE00
7FF800
7FC000
ENDCHAR
STARTCHAR 00D1
ENCODING 209
SWIDTH 690 0
DWIDTH 23 0
BBX 23 30 1 0
BITMAP
001E18
003FF0
0063F0
0060E0
000000
000000
07000E
07800C
07801C
07C01C
0FC01C
0EC018
0EE018
0CE038
0C6038
1C7038
1C3030
1C3830
183870
181870
381C70
381C60
380CE0
300EE0
3006E0
7007C0
7007C0
7003C0
6003C0
E003C0
ENDCHAR
STARTCHAR 00D2
ENCODING 210
SWIDTH 720 0
DWIDTH 24 0
BBX 21 32 2 0
BITMAP
003800
001800
001C00
000C00
000600
000600
000000
000000
007F00
01FFC0
07E7E0
0F00F0
0E0070
1C0070
380038
380038
700038
700038
700038
700038
700038
E00038
E00070
E00070
E00070
7000E0
7001E0
7001C0
380780
3E1F00
1FFE00
07F800
ENDCHAR
STARTCHAR 00D3
ENCODING 211
SWIDTH 720 0
DWIDTH 24 0
BBX 21 32 2 0
BITMAP
0000E0
0001C0
000380
000300
000600
000C00
000000
000000
007F00
01FFC0
07E7E0
0F00F0
0E0070
1C0070
380038
380038
700038
700038
700038
700038
700038
E00038
E00070
E00070
E00070
7000E0
7001E0
7001C0
380780
3E1F00
1FFE00
07F800
ENDCHAR
STARTCHAR 00D4
ENCODING 212
SWIDTH 720 0
DWIDTH 24 0
BBX 21 31 2 0
BITMAP
000F00
001F80
003980
0071C0
00E0C0
000000
000000
007F00
01FFC0
07E7E0
0F00F0
0E0070
1C0070
380038
380038
700038
700038
700038
700038
700038
E00038
E00070
E00070
E00070
7000E0
7001E0
7001C0
380780
3E1F00
1FFE00
07F800
ENDCHAR
STARTCHAR 00D5
ENCODING 213
SWIDTH 720 0
DWIDTH 24 0
BBX 21 30 2 0
BITMAP
003C30
007FE0
00C7E0
00C180
000000
000000
007F00
01FFC0
07E7E0
0F00F0
0E0070
1C0070
380038
380038
700038
700038
700038
700038
700038
E00038
E00070
E00070
E00070
7000E0
7001E0
7001C0
380780
3E1F00
1FFE00
07F800
ENDCHAR
STARTCHAR 00D6
ENCODING 214
SWIDTH 720 0
DWIDTH 24 0
BBX 21 30 2 0
BITMAP
0030C0
0031C0
0030C0
000000
000000
000000
007F00
01FFC0
07E7E0
0F00F0
0E0070
1C0070
380038
380038
700038
700038
700038
700038
700038
E00038
E00070
E00070
E00070
7000E0
7001E0
7001C0
380780
3E1F00
1FFE00
07F800
ENDCHAR
STARTCHAR 00D7
ENCODING 215
SWIDTH 570 0
DWIDTH 19 0
BBX 14 15 3 4
BITMAP
400C
E01C
7038
3870
1CE0
0FC0
0780
0780
0FC0
1CE0
3C70
7838
F01C
E00C
4000
ENDCHAR
STARTCHAR 00D8
ENCODING 216
SWIDTH 720 0
DWIDTH 24 0
BBX 22 26 2 -1
BITMAP
000008
007F1C
01FFF8
07E3F0
0F00E0
0E00F0
1C01F0
3803B8
380738
700E38
701C38
701C38
703838
607038
E0E038
E1C070
E1C070
E38070
7700E0
7E01E0
7C01C0
380380
3E1F00
7FFE00
E7FC00
400000
ENDCHAR
STARTCHAR 00D9
ENCODING 217
SWIDTH 660 0
DWIDTH 22 0
BBX 20 32 3 0
BITMAP
00E000
007000
007000
003800
001800
000C00
000000
000000
1C0070
1C0070
180060
3800E0
3800E0
3800E0
3800E0
3000C0
7001C0
7001C0
7001C0
7001C0
E00180
E00380
E00380
E00380
E00300
C00700
C00700
E00E00
E01E00
783C00
7FF800
1FE000
ENDCHAR
STARTCHAR 00DA
ENCODING 218
SWIDTH 660 0
DWIDTH 22 0
BBX 20 32 3 0
BITMAP
000380
000780
000700
000E00
001C00
003000
000000
000000
1C0070
1C0070
180060
3800E0
3800E0
3800E0
3800E0
3000C0
7001C0
7001C0
7001C0
7001C0
E00180
E00380
E00380
E00380
E00300
C00700
C00700
E00E00
E01E00
783C00
7FF800
1FE000
ENDCHAR
STARTCHAR 00DB
ENCODING 219
SWIDTH 660 0
DWIDTH 22 0
BBX 20 31 3 0
BITMAP
001C00
003E00
006600
00C300
018180
000000
000000
1C0070
1C0070
180060
3800E0
3800E0
3800E0
3800E0
3000C0
7001C0
7001C0
7001C0
7001C0
E00180
E00380
E00380
E00380
E00300
C00700
C00700
E00E00
E01E00
783C00
7FF800
1FE000
ENDCHAR
STARTCHAR 00DC
ENCODING 220
SWIDTH 660 0
DWIDTH 22 0
BBX 20 30 3 0
BITMAP
00E380
00E380
00C300
000000
000000
000000
1C0070
1C0070
180060
3800E0
3800E0
3800E0
3800E0
3000C0
7001C0
7001C0
7001C0
7001C0
E00180
E00380
E00380
E00380
E00300
C00700
C00700
E00E00
E01E00
783C00
7FF800
1FE000
ENDCHAR
STARTCHAR 00DD
ENCODING 221
SWIDTH 480 0
DWIDTH 16 0
BBX 17 32 3 0
BITMAP
001C00
001C00
003800
007000
00E000
01C000
000000
000000
E00380
E00700
600E00
700E00
701C00
703800
303800
387000
38E000
18E000
19C000
1F8000
1F8000
0F0000
0E0000
0E0000
0C0000
1C0000
1C0000
1C0000
1C0000
180000
380000
380000
ENDCHAR
STARTCHAR 00DE
ENCODING 222
SWIDTH 540 0
DWIDTH 18 0
BBX 16 24 2 0
BITMAP
0E00
0E00
0E00
0C00
0FC0
1FFC
1FFE
1C0E
1807
3807
3807
3807
3807
3007
700E
703C
7FFC
7FF0
7F80
E000
E000
E000
C000
C000
ENDCHAR
STARTCHAR 00DF
ENCODING 223
SWIDTH 570 0
DWIDTH 19 0
BBX 22 33 -4 -7
BITMAP
000FF0
001FF8
003C1C
00381C
00701C
00701C
007038
006078
00E0E0
00E1C0
00E380
00E300
00C300
01C380
01C3C0
01C1E0
018070
018038
038038
038038
038038
030038
073070
073FE0
071FC0
070000
060000
0E0000
0E0000
0E0000
1C0000
F80000
F00000
ENDCHAR
STARTCHAR 00E0
ENCODING 224
SWIDTH 540 0
DWIDTH 18 0
BBX 16 26 2 0
BITMAP
0380
01C0
01C0
00E0
0060
0030
0000
0000
07E3
0FF3
1E3F
3C1E
780E
700E
700E
E00E
E00C
E01C
C01C
C01C
C03C
C078
E078
F1D8
7FB8
3E38
ENDCHAR
STARTCHAR 00E1
ENCODING 225
SWIDTH 540 0
DWIDTH 18 0
BBX 16 26 2 0
BITMAP
000E
001C
003C
0038
0060
00C0
0000
0000
07E3
0FF3
1E3F
3C1E
780E
700E
700E
E00E
E00C
E01C
C01C
C01C
C03C
C078
E078
F1D8
7FB8
3E38
ENDCHAR
STARTCHAR 00E2
ENCODING 226
SWIDTH 540 0
DWIDTH 18 0
BBX 16 26 2 0
BITMAP
0070
00F0
01F8
0198
070C
0606
0000
0000
07E3
0FF3
1E3F
3C1E
780E
700E
700E
E00E
E00C
E01C
C01C
C01C
C03C
C078
E078
F1D8
7FB8
3E38
ENDCHAR
STARTCHAR 00E3
ENCODING 227
SWIDTH 540 0
DWIDTH 18 0
BBX 16 24 2 0
BITMAP
03C3
07FF
047E
0C18
0000
0000
07E3
0FF3
1E3F
3C1E
780E
700E
700E
E00E
E00C
E01C
C01C
C01C
C03C
C078
E078
F1D8
7FB8
3E38
ENDCHAR
STARTCHAR 00E4
ENCODING 228
SWIDTH 540 0
DWIDTH 18 0
BBX 16 24 2 0
BITMAP
038E
038E
030C
0000
0000
0000
07E3
0FF3
1E3F
3C1E
780E
700E
700E
E00E
E00C
E01C
C01C
C01C
C03C
C078
E078
F1D8
7FB8
3E38
ENDCHAR
STARTCHAR 00E5
ENCODING 229
SWIDTH 540 0
DWIDTH 18 0
BBX 16 27 2 0
BITMAP
00F0
0198
010C
030C
0108
01F8
00F0
0000
0000
07E3
0FF3
1E3F
3C1E
780E
700E
700E
E00E
E00C
E01C
C01C
C01C
C03C
C078
E078
F1D8
7FB8
3E38
ENDCHAR
STARTCHAR 00E6
ENCODING 230
SWIDTH 810 0
DWIDTH 27 0
BBX 25 18 2 0
BITMAP
07C67E00
0FE6FF00
1E37C700
381F0380
781E0380
701E0300
701C0700
E01C3E00
E01FFC00
E01FF000
C0380000
C0380000
C0780000
C07C0000
E0FC0000
E1BE0C00
7F3FFC00
3E33FC00
ENDCHAR
STARTCHAR 00E7
ENCODING 231
SWIDTH 450 0
DWIDTH 15 0
BBX 13 26 2 -8
BITMAP
03F8
0FF8
1E18
3800
7800
7000
E000
E000
E000
E000
C000
C000
C000
E000
E000
7060
7FE0
1FC0
0C00
0800
1C00
0600
0600
0600
7E00
7800
ENDCHAR
STARTCHAR 00E8
ENCODING 232
SWIDTH 480 0
DWIDTH 16 0
BBX 14 26 2 0
BITMAP
0700
0380
0380
01C0
00C0
0060
0000
0000
03F0
0FF8
1E38
381C
701C
7018
6038
E1F0
FFE0
FF80
C000
C000
C000
E000
E000
7020
7FE0
1FC0
ENDCHAR
STARTCHAR 00E9
ENCODING 233
SWIDTH 480 0
DWIDTH 16 0
BBX 14 26 2 0
BITMAP
001C
003C
0038
0070
00E0
0180
0000
0000
03F0
0FF8
1E38
381C
701C
7018
6038
E1F0
FFE0
FF80
C000
C000
C000
E000
E000
7020
7FE0
1FC0
ENDCHAR
STARTCHAR 00EA
ENCODING 234
SWIDTH 480 0
DWIDTH 16 0
BBX 14 26 2 0
BITMAP
00E0
00E0
01F0
0330
0618
0C0C
0000
0000
03F0
0FF8
1E38
381C
701C
7018
6038
E1F0
FFE0
FF80
C000
C000
C000
E000
E000
7020
7FE0
1FC0
ENDCHAR
STARTCHAR 00EB
ENCODING 235
SWIDTH 480 0
DWIDTH 16 0
BBX 14 24 2 0
BITMAP
071C
071C
0618
0000
0000
0000
03F0
0FF8
1E38
381C
701C
7018
6038
E1F0
FFE0
FF80
C000
C000
C000
E000
E000
7020
7FE0
1FC0
ENDCHAR
STARTCHAR 00EC
ENCODING 236
SWIDTH 240 0
DWIDTH 8 0
BBX 7 26 1 0
BITMAP
38
38
1C
0C
06
06
00
00
0C
1C
1C
1C
1C
18
38
38
38
30
30
70
70
70
60
E0
E0
E0
ENDCHAR
STARTCHAR 00ED
ENCODING 237
SWIDTH 240 0
DWIDTH 8 0
BBX 11 26 1 0
BITMAP
00E0
01C0
0380
0700
0600
0C00
0000
0000
0C00
1C00
1C00
1C00
1C00
1800
3800
3800
3800
3000
3000
7000
7000
7000
6000
E000
E000
E000
ENDCHAR
STARTCHAR 00EE
ENCODING 238
SWIDTH 240 0
DWIDTH 8 0
BBX 10 26 1 0
BITMAP
0700
0F00
1F80
3980
71C0
E0C0
0000
0000
0C00
1C00
1C00
1C00
1C00
1800
3800
3800
3800
3000
3000
7000
7000
7000
6000
E000
E000
E000
ENDCHAR
STARTCHAR 00EF
ENCODING 239
SWIDTH 240 0
DWIDTH 8 0
BBX 10 24 1 0
BITMAP
30C0
71C0
30C0
0000
0000
0000
0C00
1C00
1C00
1C00
1C00
1800
3800
3800
3800
3000
3000
7000
7000
7000
6000
E000
E000
E000
ENDCHAR
STARTCHAR 00F0
ENCODING 240
SWIDTH 540 0
DWIDTH 18 0
BBX 17 25 1 0
BITMAP
00E180
00F780
007E00
003C00
00FC00
03CE00
010600
000700
000700
01E300
07FB00
1FFB00
3C0F00
380700
700700
700700
700700
600700
E00600
E00E00
600C00
701C00
787800
3FF000
1FE000
ENDCHAR
STARTCHAR 00F1
ENCODING 241
SWIDTH 570 0
DWIDTH 19 0
BBX 17 24 1 0
BITMAP
01F180
03FF80
031F00
060400
000000
000000
0C7E00
1DFF00
1FCF00
1F0700
1E0300
3C0700
3C0700
380700
380700
380700
700E00
700E00
700E00
700E00
600C00
E01C00
E01C00
E01C00
ENDCHAR
STARTCHAR 00F2
ENCODING 242
SWIDTH 540 0
DWIDTH 18 0
BBX 15 26 2 0
BITMAP
0380
0380
01C0
01C0
00E0
0060
0000
0000
03F0
0FF8
1E3C
381E
700E
700E
E00E
E00E
E00E
E00E
C00E
C00C
C01C
E01C
E038
70F0
7FE0
1FC0
ENDCHAR
STARTCHAR 00F3
ENCODING 243
SWIDTH 540 0
DWIDTH 18 0
BBX 15 26 2 0
BITMAP
001C
001C
0038
0070
00E0
00C0
0000
0000
03F0
0FF8
1E3C
381E
700E
700E
E00E
E00E
E00E
E00E
C00E
C00C
C01C
E01C
E038
70F0
7FE0
1FC0
ENDCHAR
STARTCHAR 00F4
ENCODING 244
SWIDTH 540 0
DWIDTH 18 0
BBX 15 26 2 0
BITMAP
0060
00F0
01F0
03B8
0618
0C0C
0000
0000
03F0
0FF8
1E3C
381E
700E
700E
E00E
E00E
E00E
E00E
C00E
C00C
C01C
E01C
E038
70F0
7FE0
1FC0
ENDCHAR
STARTCHAR 00F5
ENCODING 245
SWIDTH 540 0
DWIDTH 18 0
BBX 15 24 2 0
BITMAP
07C2
0FFE
0C7C
0818
0000
0000
03F0
0FF8
1E3C
381E
700E
700E
E00E
E00E
E00E
E00E
C00E
C00C
C01C
E01C
E038
70F0
7FE0
1FC0
ENDCHAR
STARTCHAR 00F6
ENCODING 246
SWIDTH 540 0
DWIDTH 18 0
BBX 15 24 2 0
BITMAP
071C
071C
0318
0000
0000
0000
03F0
0FF8
1E3C
381E
700E
700E
E00E
E00E
E00E
E00E
C00E
C00C
C01C
E01C
E038
70F0
7FE0
1FC0
ENDCHAR
STARTCHAR 00F7
ENCODING 247
SWIDTH 570 0
DWIDTH 19 0
BBX 16 15 2 4
BITMAP
01C0
03C0
01C0
0000
0000
0000
FFFF
FFFF
0000
0000
0000
0180
03C0
03C0
0180
ENDCHAR
STARTCHAR 00F8
ENCODING 248
SWIDTH 540 0
DWIDTH 18 0
BBX 17 20 1 -1
BITMAP
000100
01FB80
07FF00
0F1E00
1C0F00
381F00
383F00
707700
70E700
70C700
618700
638700
670600
6E0E00
7C0C00
781C00
383800
7FF000
EFE000
400000
ENDCHAR
STARTCHAR 00F9
ENCODING 249
SWIDTH 570 0
DWIDTH 19 0
BBX 16 26 2 0
BITMAP
0180
01C0
00C0
00E0
0060
0030
0000
0000
3807
3807
3807
3807
3006
700E
700E
700E
600C
601C
E01C
E01C
E03C
E078
E078
E1F8
FFB8
7E38
ENDCHAR
STARTCHAR 00FA
ENCODING 250
SWIDTH 570 0
DWIDTH 19 0
BBX 16 26 2 0
BITMAP
000E
001E
001C
0038
0070
00C0
0000
0000
3807
3807
3807
3807
3006
700E
700E
700E
600C
601C
E01C
E01C
E03C
E078
E078
E1F8
FFB8
7E38
ENDCHAR
STARTCHAR 00FB
ENCODING 251
SWIDTH 570 0
DWIDTH 19 0
BBX 16 26 2 0
BITMAP
0070
0070
00F8
0198
030C
0606
0000
0000
3807
3807
3807
3807
3006
700E
700E
700E
600C
601C
E01C
E01C
E03C
E078
E078
E1F8
FFB8
7E38
ENDCHAR
STARTCHAR 00FC
ENCODING 252
SWIDTH 570 0
DWIDTH 19 0
BBX 16 24 2 0
BITMAP
038E
038E
030C
0000
0000
0000
3807
3807
3807
3807
3006
700E
700E
700E
600C
601C
E01C
E01C
E03C
E078
E078
E1F8
FFB8
7E38
ENDCHAR
STARTCHAR 00FD
ENCODING 253
SWIDTH 450 0
DWIDTH 15 0
BBX 20 34 -3 -8
BITMAP
0001C0
000380
000700
000E00
000C00
001800
000000
000000
060070
0700E0
0700E0
0701C0
0701C0
070380
030380
030700
030600
038E00
038C00
039C00
039800
01B800
01B000
01F000
01E000
01E000
01C000
018000
038000
070000
070000
1E0000
FC0000
F80000
ENDCHAR
STARTCHAR 00FE
ENCODING 254
SWIDTH 570 0
DWIDTH 19 0
BBX 19 33 -1 -8
BITMAP
01C000
01C000
018000
038000
038000
038000
038000
031F00
073F80
0763C0
07C1C0
0780C0
0700E0
0F00E0
0E00E0
0E00C0
0C01C0
0C01C0
1C01C0
1C0380
1C0380
1E0700
3E0F00
3BFE00
39F800
380000
300000
700000
700000
700000
600000
600000
E00000
ENDCHAR
STARTCHAR 00FF
ENCODING 255
SWIDTH 450 0
DWIDTH 15 0
BBX 20 32 -3 -8
BITMAP
006180
00E380
006180
000000
000000
000000
060070
0700E0
0700E0
0701C0
0701C0
070380
030380
030700
030600
038E00
038C00
039C00
039800
01B800
01B000
01F000
01E000
01E000
01C000
018000
038000
070000
070000
1E0000
FC0000
F80000
ENDCHAR
STARTCHAR 0100
ENCODING 256
SWIDTH 540 0
DWIDTH 18 0
BBX 20 28 -2 0
BITMAP
001FF0
001FE0
000000
000000
000700
000F00
000F00
001F00
001B80
003B80
003380
007380
006380
00E180
00C180
01C180
0381C0
0381C0
07FFC0
07FFC0
0E01C0
0E00C0
1C00C0
1C00C0
3800E0
7000E0
7000E0
E000E0
ENDCHAR
STARTCHAR 0101
ENCODING 257
SWIDTH 540 0
DWIDTH 18 0
BBX 16 22 2 0
BITMAP
03FC
07FC
0000
0000
07E3
0FF3
1E3F
3C1E
780E
700E
700E
E00E
E00C
E01C
C01C
C01C
C03C
C078
E078
F1D8
7FB8
3E38
ENDCHAR
STARTCHAR 0102
ENCODING 258
SWIDTH 540 0
DWIDTH 18 0
BBX 20 31 -2 0
BITMAP
001830
001830
001EE0
000FE0
000780
000000
000000
000700
000F00
000F00
001F00
001B80
003B80
003380
007380
006380
00E180
00C180
01C180
0381C0
0381C0
07FFC0
07FFC0
0E01C0
0E00C0
1C00C0
1C00C0
3800E0
7000E0
7000E0
E000E0
ENDCHAR
STARTCHAR 0103
ENCODING 259
SWIDTH 540 0
DWIDTH 18 0
BBX 16 25 2 0
BITMAP
0206
0306
03FC
03F8
00F0
0000
0000
07E3
0FF3
1E3F
3C1E
780E
700E
700E
E00E
E00C
E01C
C01C
C01C
C03C
C078
E078
F1D8
7FB8
3E38
ENDCHAR
STARTCHAR 0104
ENCODING 260
SWIDTH 540 0
DWIDTH 18 0
BBX 19 31 -2 -7
BITMAP
000700
000F00
000F00
001F00
001B80
003B80
003380
007380
006380
00E180
00C180
01C180
0381C0
0381C0
07FFC0
07FFC0
0E01C0
0E00C0
1C00C0
1C00C0
3800E0
7000E0
7000E0
E000E0
0000C0
000380
000700
000600
000600
0007C0
0003C0
ENDCHAR
STARTCHAR 0105
ENCODING 261
SWIDTH 540 0
DWIDTH 18 0
BBX 16 25 2 -7
BITMAP
07E3
0FF3
1E3F
3C1E
780E
700E
700E
E00E
E00C
E01C
C01C
C01C
C03C
C078
E078
F1D8
7FB8
3E38
0070
00C0
01C0
0180
0180
01E0
01E0
ENDCHAR
STARTCHAR 0106
ENCODING 262
SWIDTH 570 0
DWIDTH 19 0
BBX 19 32 2 0
BITMAP
0001C0
0001C0
000380
000700
000E00
000C00
000000
000000
007F80
01FFE0
03E1C0
078000
0E0000
1C0000
1C0000
380000
380000
700000
700000
700000
700000
E00000
E00000
E00000
E00000
700000
700000
700000
380000
3E0600
1FFE00
07FC00
ENDCHAR
STARTCHAR 0107
ENCODING 263
SWIDTH 450 0
DWIDTH 15 0
BBX 14 26 2 0
BITMAP
001C
0038
0070
0060
00C0
0180
0000
0000
03F8
0FF8
1E18
3800
7800
7000
E000
E000
E000
E000
C000
C000
C000
E000
E000
7060
7FE0
1FC0
ENDCHAR
STARTCHAR 0108
ENCODING 264
SWIDTH 570 0
DWIDTH 19 0
BBX 19 31 2 0
BITMAP
000F00
001F00
003B80
007180
00C0C0
000000
000000
007F80
01FFE0
03E1C0
078000
0E0000
1C0000
1C0000
380000
380000
700000
700000
700000
700000
E00000
E00000
E00000
E00000
700000
700000
700000
380000
3E0600
1FFE00
07FC00
ENDCHAR
STARTCHAR 0109
ENCODING 265
SWIDTH 450 0
DWIDTH 15 0
BBX 13 26 2 0
BITMAP
00E0
01E0
03F0
0730
0E18
1C18
0000
0000
03F8
0FF8
1E18
3800
7800
7000
E000
E000
E000
E000
C000
C000
C000
E000
E000
7060
7FE0
1FC0
ENDCHAR
STARTCHAR 010A
ENCODING 266
SWIDTH 570 0
DWIDTH 19 0
BBX 19 30 2 0
BITMAP
000E00
000E00
000E00
000000
000000
000000
007F80
01FFE0
03E1C0
078000
0E0000
1C0000
1C0000
380000
380000
700000
700000
700000
700000
E00000
E00000
E00000
E00000
700000
700000
700000
380000
3E0600
1FFE00
07FC00
ENDCHAR
STARTCHAR 010B
ENCODING 267
SWIDTH 450 0
DWIDTH 15 0
BBX 13 24 2 0
BITMAP
00E0
01E0
00C0
0000
0000
0000
03F8
0FF8
1E18
3800
7800
7000
E000
E000
E000
E000
C000
C000
C000
E000
E000
7060
7FE0
1FC0
ENDCHAR
STARTCHAR 010C
ENCODING 268
SWIDTH 570 0
DWIDTH 19 0
BBX 19 31 2 0
BITMAP
0030E0
0039C0
001B80
001F00
000E00
000000
000000
007F80
01FFE0
03E1C0
078000
0E0000
1C0000
1C0000
380000
380000
700000
700000
700000
700000
E00000
E00000
E00000
E00000
700000
700000
700000
380000
3E0600
1FFE00
07FC00
ENDCHAR
STARTCHAR 010D
ENCODING 269
SWIDTH 450 0
DWIDTH 15 0
BBX 15 26 2 0
BITMAP
0406
061C
0338
03F0
01E0
01C0
0000
0000
03F8
0FF8
1E18
3800
7800
7000
E000
E000
E000
E000
C000
C000
C000
E000
E000
7060
7FE0
1FC0
ENDCHAR
STARTCHAR 010E
ENCODING 270
SWIDTH 660 0
DWIDTH 22 0
BBX 19 31 2 0
BITMAP
0061C0
003380
003F00
001E00
001C00
000000
000000
0FF800
0FFE00
0FFF80
0C07C0
0C01C0
1C01E0
1C00E0
1C00E0
1800E0
3800E0
3800E0
3800E0
3800E0
3000E0
7000E0
7001C0
7001C0
700380
600780
E00F00
E03E00
E1FC00
FFF000
FF8000
ENDCHAR
STARTCHAR 010F
ENCODING 271
SWIDTH 600 0
DWIDTH 20 0
BBX 23 25 2 0
BITMAP
0001CE
00018C
00019C
000398
0003B0
000380
000300
07E700
0FF700
1E3F00
381F00
780E00
700E00
600E00
E00E00
E00C00
E01C00
C01C00
C01C00
C03C00
C07800
E07800
F1D800
7FB800
3E3800
ENDCHAR
STARTCHAR 0110
ENCODING 272
SWIDTH 660 0
DWIDTH 22 0
BBX 20 24 1 0
BITMAP
07FC00
07FF00
07FFC0
0603E0
0E00E0
0E00F0
0E0070
0E0070
0C0070
1C0070
1C0070
7FE070
FFE070
180070
380070
3800E0
3800E0
3801C0
3003C0
700780
701F00
70FE00
7FF800
7FC000
ENDCHAR
STARTCHAR 0111
ENCODING 273
SWIDTH 570 0
DWIDTH 19 0
BBX 19 25 2 0
BITMAP
0001C0
000180
000180
00FFE0
00FFE0
000380
000300
07E300
0FF700
1E3F00
381F00
780E00
700E00
600E00
E00E00
E00C00
E01C00
C01C00
C01C00
C03C00
C07800
E07800
F1D800
7FB800
3E3800
ENDCHAR
STARTCHAR 0112
ENCODING 274
SWIDTH 510 0
DWIDTH 17 0
BBX 16 28 2 0
BITMAP
01FE
03FE
0000
0000
0FFF
0FFF
0FFF
0C00
0C00
1C00
1C00
1C00
1800
3800
3FFC
3FFC
3FF8
3000
7000
7000
7000
7000
6000
E000
E000
E000
FFF0
FFF0
ENDCHAR
STARTCHAR 0113
ENCODING 275
SWIDTH 480 0
DWIDTH 16 0
BBX 14 22 2 0
BITMAP
07F8
0FF8
0000
0000
03F0
0FF8
1E38
381C
701C
7018
6038
E1F0
FFE0
FF80
C000
C000
C000
E000
E000
7020
7FE0
1FC0
ENDCHAR
STARTCHAR 0114
ENCODING 276
SWIDTH 510 0
DWIDTH 17 0
BBX 16 31 2 0
BITMAP
0103
0183
01EE
01FE
0078
0000
0000
0FFF
0FFF
0FFF
0C00
0C00
1C00
1C00
1C00
1800
3800
3FFC
3FFC
3FF8
3000
7000
7000
7000
7000
6000
E000
E000
E000
FFF0
FFF0
ENDCHAR
STARTCHAR 0115
ENCODING 277
SWIDTH 480 0
DWIDTH 16 0
BBX 14 25 2 0
BITMAP
060C
060C
07B8
03F8
01E0
0000
0000
03F0
0FF8
1E38
381C
701C
7018
6038
E1F0
FFE0
FF80
C000
C000
C000
E000
E000
7020
7FE0
1FC0
ENDCHAR
STARTCHAR 0116
ENCODING 278
SWIDTH 510 0
DWIDTH 17 0
BBX 16 30 2 0
BITMAP
0038
0038
0030
0000
0000
0000
0FFF
0FFF
0FFF
0C00
0C00
1C00
1C00
1C00
1800
3800
3FFC
3FFC
3FF8
3000
7000
7000
7000
7000
6000
E000
E000
E000
FFF0
FFF0
ENDCHAR
STARTCHAR 0117
ENCODING 279
SWIDTH 480 0
DWIDTH 16 0
BBX 14 24 2 0
BITMAP
00E0
00E0
00C0
0000
0000
0000
03F0
0FF8
1E38
381C
701C
7018
6038
E1F0
FFE0
FF80
C000
C000
C000
E000
E000
7020
7FE0
1FC0
ENDCHAR
STARTCHAR 0118
ENCODING 280
SWIDTH 510 0
DWIDTH 17 0
BBX 16 31 2 -7
BITMAP
0FFF
0FFF
0FFF
0C00
0C00
1C00
1C00
1C00
1800
3800
3FFC
3FFC
3FF8
3000
7000
7000
7000
7000
6000
E000
E000
E000
FFF0
FFF0
00C0
0180
0300
0600
0600
07C0
03C0
ENDCHAR
STARTCHAR 0119
ENCODING 281
SWIDTH 480 0
DWIDTH 16 0
BBX 14 25 2 -7
BITMAP
03F0
0FF8
1E38
381C
701C
7018
6038
E1F0
FFE0
FF80
C000
C000
C000
E000
E000
7020
7FE0
1FC0
0180
0300
0600
0600
0600
0780
0780
ENDCHAR
STARTCHAR 011A
ENCODING 282
SWIDTH 510 0
DWIDTH 17 0
BBX 16 31 2 0
BITMAP
0183
00CE
00FC
0078
0070
0000
0000
0FFF
0FFF
0FFF
0C00
0C00
1C00
1C00
1C00
1800
3800
3FFC
3FFC
3FF8
3000
7000
7000
7000
7000
6000
E000
E000
E000
FFF0
FFF0
ENDCHAR
STARTCHAR 011B
ENCODING 283
SWIDTH 480 0
DWIDTH 16 0
BBX 15 26 2 0
BITMAP
0406
060C
0338
03F0
01E0
01C0
0000
0000
03F0
0FF8
1E38
381C
701C
7018
6038
E1F0
FFE0
FF80
C000
C000
C000
E000
E000
7020
7FE0
1FC0
ENDCHAR
STARTCHAR 011C
ENCODING 284
SWIDTH 660 0
DWIDTH 22 0
BBX 20 31 2 0
BITMAP
000700
000F80
001980
0030C0
006060
000000
000000
007FC0
01FFF0
03F1F0
078000
0F0000
1E0000
1C0000
380000
380000
700000
700000
700000
701FE0
E01FC0
E001C0
E001C0
E001C0
7001C0
700180
780380
380380
3E0780
1FFF80
07FE00
ENDCHAR
STARTCHAR 011D
ENCODING 285
SWIDTH 510 0
DWIDTH 17 0
BBX 20 34 -2 -8
BITMAP
000E00
000F00
001F00
003B80
006180
00C0C0
000000
000000
007FF0
01FFF0
038380
030180
070180
070180
060380
060380
070700
038F00
01FC00
03E000
060000
0E0000
0E0000
07F000
07FE00
1C3F00
300700
600300
600300
E00700
600700
701E00
3FFC00
0FE000
ENDCHAR
STARTCHAR 011E
ENCODING 286
SWIDTH 660 0
DWIDTH 22 0
BBX 20 31 2 0
BITMAP
002060
003060
003DC0
001FC0
000F00
000000
000000
007FC0
01FFF0
03F1F0
078000
0F0000
1E0000
1C0000
380000
380000
700000
700000
700000
701FE0
E01FC0
E001C0
E001C0
E001C0
7001C0
700180
780380
380380
3E0780
1FFF80
07FE00
ENDCHAR
STARTCHAR 011F
ENCODING 287
SWIDTH 510 0
DWIDTH 17 0
BBX 20 33 -2 -8
BITMAP
00C080
00C180
00F780
007F00
001C00
000000
000000
007FF0
01FFF0
038380
030180
070180
070180
060380
060380
070700
038F00
01FC00
03E000
060000
0E0000
0E0000
07F000
07FE00
1C3F00
300700
600300
600300
E00700
600700
701E00
3FFC00
0FE000
ENDCHAR
STARTCHAR 0120
ENCODING 288
SWIDTH 660 0
DWIDTH 22 0
BBX 20 30 2 0
BITMAP
000700
000700
000700
000000
000000
000000
007FC0
01FFF0
03F1F0
078000
0F0000
1E0000
1C0000
380000
380000
700000
700000
700000
701FE0
E01FC0
E001C0
E001C0
E001C0
7001C0
700180
780380
380380
3E0780
1FFF80
07FE00
ENDCHAR
STARTCHAR 0121
ENCODING 289
SWIDTH 510 0
DWIDTH 17 0
BBX 20 32 -2 -8
BITMAP
001C00
001C00
001C00
000000
000000
000000
007FF0
01FFF0
038380
030180
070180
070180
060380
060380
070700
038F00
01FC00
03E000
060000
0E0000
0E0000
07F000
07FE00
1C3F00
300700
600300
600300
E00700
600700
701E00
3FFC00
0FE000
ENDCHAR
STARTCHAR 0122
ENCODING 290
SWIDTH 660 0
DWIDTH 22 0
BBX 20 31 2 -7
BITMAP
007FC0
01FFF0
03F1F0
078000
0F0000
1E0000
1C0000
380000
380000
700000
700000
700000
701FE0
E01FC0
E001C0
E001C0
E001C0
7001C0
700180
780380
380380
3E0780
1FFF80
07FE00
000000
000000
00C000
01C000
018000
038000
030000
ENDCHAR
STARTCHAR 0123
ENCODING 291
SWIDTH 510 0
DWIDTH 17 0
BBX 20 34 -2 -8
BITMAP
000300
000600
000600
000C00
001C00
001C00
000000
000000
007FF0
01FFF0
038380
030180
070180
070180
060380
060380
070700
038F00
01FC00
03E000
060000
0E0000
0E0000
07F000
07FE00
1C3F00
300700
600300
600300
E00700
600700
701E00
3FFC00
0FE000
ENDCHAR
STARTCHAR 0124
ENCODING 292
SWIDTH 660 0
DWIDTH 22 0
BBX 21 31 2 0
BITMAP
000E00
001F00
003300
006180
00C0C0
000000
000000
0E0038
0E0038
0E0030
0E0070
0C0070
1C0070
1C0060
1C0060
1800E0
3800E0
3FFFE0
3FFFC0
3FFFC0
3001C0
7001C0
7001C0
700180
700380
600380
E00380
E00300
E00300
C00700
C00700
ENDCHAR
STARTCHAR 0125
ENCODING 293
SWIDTH 570 0
DWIDTH 19 0
BBX 16 33 1 0
BITMAP
0380
07C0
0EC0
1C60
3870
0000
0000
0000
0700
0700
0600
0E00
0E00
0E00
0E00
0C7C
1CFF
1D87
1F07
1E03
1C03
3C07
3807
3807
3006
300E
700E
700E
700E
600C
E01C
E01C
E01C
ENDCHAR
STARTCHAR 0126
ENCODING 294
SWIDTH 660 0
DWIDTH 22 0
BBX 23 24 2 0
BITMAP
0E0038
0E0038
0E0030
0C0070
FFFFFE
FFFFFE
FFFFFE
1C00E0
1800E0
3800E0
3FFFE0
3FFFC0
3FFFC0
3001C0
7001C0
7001C0
700180
700380
600380
E00380
E00380
E00300
C00700
C00700
ENDCHAR
STARTCHAR 0127
ENCODING 295
SWIDTH 570 0
DWIDTH 19 0
BBX 16 25 1 0
BITMAP
0700
0700
0600
3FF8
3FF8
0E00
0E00
0C7C
1CFE
1DCF
1F07
1E03
1C07
3C07
3807
3807
3006
300E
700E
700E
700E
600C
E01C
E01C
E01C
ENDCHAR
STARTCHAR 0128
ENCODING 296
SWIDTH 270 0
DWIDTH 9 0
BBX 13 30 2 0
BITMAP
3E18
3FF0
63F0
60C0
0000
0000
0E00
0E00
0E00
0C00
0C00
1C00
1C00
1C00
1800
3800
3800
3800
3800
3000
7000
7000
7000
6000
6000
E000
E000
E000
C000
C000
ENDCHAR
STARTCHAR 0129
ENCODING 297
SWIDTH 240 0
DWIDTH 8 0
BBX 12 24 1 0
BITMAP
3C30
7FE0
C7E0
C180
0000
0000
0C00
1C00
1C00
1C00
1C00
1800
3800
3800
3800
3000
3000
7000
7000
7000
6000
E000
E000
E000
ENDCHAR
STARTCHAR 012A
ENCODING 298
SWIDTH 270 0
DWIDTH 9 0
BBX 11 28 2 0
BITMAP
3FE0
3FE0
0000
0000
0E00
0E00
0E00
0C00
0C00
1C00
1C00
1C00
1800
3800
3800
3800
3800
3000
7000
7000
7000
6000
6000
E000
E000
E000
C000
C000
ENDCHAR
STARTCHAR 012B
ENCODING 299
SWIDTH 240 0
DWIDTH 8 0
BBX 10 22 1 0
BITMAP
7FC0
7FC0
0000
0000
0C00
1C00
1C00
1C00
1C00
1800
3800
3800
3800
3000
3000
7000
7000
7000
6000
E000
E000
E000
ENDCHAR
STARTCHAR 012C
ENCODING 300
SWIDTH 270 0
DWIDTH 9 0
BBX 12 31 2 0
BITMAP
3030
3060
3DE0
1FC0
0700
0000
0000
0E00
0E00
0E00
0C00
0C00
1C00
1C00
1C00
1800
3800
3800
3800
3800
3000
7000
7000
7000
6000
6000
E000
E000
E000
C000
C000
ENDCHAR
STARTCHAR 012D
ENCODING 301
SWIDTH 240 0
DWIDTH 8 0
BBX 11 25 1 0
BITMAP
2060
2060
3FC0
3F80
0F00
0000
0000
0C00
1C00
1C00
1C00
1C00
1800
3800
3800
3800
3000
3000
7000
7000
7000
6000
E000
E000
E000
ENDCHAR
STARTCHAR 012E
ENCODING 302
SWIDTH 270 0
DWIDTH 9 0
BBX 10 31 -1 -7
BITMAP
01C0
01C0
01C0
0180
0180
0380
0380
0380
0300
0700
0700
0700
0700
0600
0E00
0E00
0E00
0C00
0C00
1C00
1C00
1C00
1800
1800
3000
6000
C000
C000
C000
F000
F000
ENDCHAR
STARTCHAR 012F
ENCODING 303
SWIDTH 240 0
DWIDTH 8 0
BBX 10 31 -1 -7
BITMAP
01C0
03C0
0180
0000
0000
0000
0300
0700
0700
0700
0700
0600
0E00
0E00
0E00
0C00
0C00
1C00
1C00
1C00
1800
3800
3800
3800
3000
6000
C000
C000
C000
F000
F000
ENDCHAR
STARTCHAR 0130
ENCODING 304
SWIDTH 270 0
DWIDTH 9 0
BBX 8 30 2 0
BITMAP
07
07
03
00
00
00
0E
0E
0E
0C
0C
1C
1C
1C
18
38
38
38
38
30
70
70
70
60
60
E0
E0
E0
C0
C0
ENDCHAR
STARTCHAR 0131
ENCODING 305
SWIDTH 240 0
DWIDTH 8 0
BBX 6 18 1 0
BITMAP
0C
1C
1C
1C
1C
18
38
38
38
30
30
70
70
70
60
E0
E0
E0
ENDCHAR
STARTCHAR 0132
ENCODING 306
SWIDTH 510 0
DWIDTH 17 0
BBX 16 30 2 -6
BITMAP
0E07
0E07
0E07
0C07
0C06
1C0E
1C0E
1C0E
180E
380C
381C
381C
381C
3018
7038
7038
7038
6038
6030
E070
E070
E070
C070
C060
00E0
00E0
01C0
03C0
3F80
3F00
ENDCHAR
STARTCHAR 0133
ENCODING 307
SWIDTH 480 0
DWIDTH 16 0
BBX 16 32 1 -8
BITMAP
0707
0F07
0607
0000
0000
0000
0C0E
1C0E
1C0C
1C1C
1C1C
181C
3818
3818
3838
3038
3038
7030
7070
7070
6070
E070
E060
E0E0
00E0
00E0
00C0
00C0
01C0
1380
1F80
1E00
ENDCHAR
STARTCHAR 0134
ENCODING 308
SWIDTH 240 0
DWIDTH 8 0
BBX 18 37 -5 -6
BITMAP
000F00
001F00
003B80
006180
00C0C0
000000
000000
001C00
001C00
001C00
001C00
001800
003800
003800
003800
003000
007000
007000
007000
007000
006000
00E000
00E000
00E000
00E000
00C000
01C000
01C000
01C000
01C000
018000
038000
038000
070000
0F0000
FE0000
FC0000
ENDCHAR
STARTCHAR 0135
ENCODING 309
SWIDTH 240 0
DWIDTH 8 0
BBX 15 34 -4 -8
BITMAP
0038
0078
00FC
01CC
038E
0706
0000
0000
0060
00E0
00E0
00E0
00E0
00C0
01C0
01C0
01C0
0180
0180
0380
0380
0380
0300
0700
0700
0700
0700
0600
0E00
0E00
0E00
1C00
F800
F000
ENDCHAR
STARTCHAR 0136
ENCODING 310
SWIDTH 540 0
DWIDTH 18 0
BBX 19 31 2 -7
BITMAP
0E00E0
0E01C0
0E0380
0C0700
0C0E00
1C1C00
1C3800
1C7000
18E000
39C000
3B8000
3FC000
3FC000
38C000
70E000
70E000
707000
707000
603800
E03800
E03800
E01C00
C01C00
C00E00
000000
000000
070000
0E0000
0C0000
0C0000
180000
ENDCHAR
STARTCHAR 0137
ENCODING 311
SWIDTH 480 0
DWIDTH 16 0
BBX 16 32 1 -7
BITMAP
0700
0700
0600
0E00
0E00
0E00
0E00
0C07
1C0E
1C1C
1C38
1870
18E0
39C0
3B80
3780
3F80
79C0
71C0
70E0
70E0
6070
E070
E038
E038
0000
0000
0700
0600
0E00
0C00
1800
ENDCHAR
STARTCHAR 0138
ENCODING 312
SWIDTH 480 0
DWIDTH 16 0
BBX 16 18 1 0
BITMAP
0C07
1C0E
1C1C
1C38
1870
18E0
39C0
3B80
3780
3F80
79C0
71C0
70E0
70E0
6070
E070
E038
E038
ENDCHAR
STARTCHAR 0139
ENCODING 313
SWIDTH 450 0
DWIDTH 15 0
BBX 12 32 2 0
BITMAP
0070
00E0
00E0
01C0
0300
0600
0000
0000
0E00
0E00
0E00
0C00
0C00
1C00
1C00
1C00
1800
3800
3800
3800
3800
3000
7000
7000
7000
7000
6000
E000
E000
E000
FFF0
FFF0
ENDCHAR
STARTCHAR 013A
ENCODING 314
SWIDTH 240 0
DWIDTH 8 0
BBX 12 33 1 0
BITMAP
0070
00E0
01C0
0180
0300
0000
0000
0000
0700
0700
0600
0E00
0E00
0E00
0E00
0C00
1C00
1C00
1C00
1C00
1800
3800
3800
3800
3000
7000
7000
7000
7000
6000
E000
E000
E000
ENDCHAR
STARTCHAR 013B
ENCODING 315
SWIDTH 450 0
DWIDTH 15 0
BBX 12 31 2 -7
BITMAP
0E00
0E00
0E00
0C00
0C00
1C00
1C00
1C00
1800
3800
3800
3800
3800
3000
7000
7000
7000
7000
6000
E000
E000
E000
FFF0
FFF0
0000
0000
0E00
0C00
1C00
1800
3000
ENDCHAR
STARTCHAR 013C
ENCODING 316
SWIDTH 240 0
DWIDTH 8 0
BBX 10 32 -1 -7
BITMAP
01C0
01C0
0180
0380
0380
0380
0380
0300
0700
0700
0700
0700
0600
0E00
0E00
0E00
0C00
1C00
1C00
1C00
1C00
1800
3800
3800
3800
0000
0000
3800
3000
7000
6000
C000
ENDCHAR
STARTCHAR 013D
ENCODING 317
SWIDTH 450 0
DWIDTH 15 0
BBX 15 24 2 0
BITMAP
0E0E
0E0E
0E0C
0C18
0C18
1C30
1C00
1C00
1800
3800
3800
3800
3800
3000
7000
7000
7000
7000
6000
E000
E000
E000
FFF0
FFF0
ENDCHAR
STARTCHAR 013E
ENCODING 318
SWIDTH 270 0
DWIDTH 9 0
BBX 13 25 1 0
BITMAP
0738
0730
0670
0E60
0EC0
0E00
0E00
0C00
1C00
1C00
1C00
1C00
1800
3800
3800
3800
3000
7000
7000
7000
7000
6000
E000
E000
E000
ENDCHAR
STARTCHAR 013F
ENCODING 319
SWIDTH 450 0
DWIDTH 15 0
BBX 12 24 2 0
BITMAP
0E00
0E00
0E00
0C00
0C00
1C00
1C00
1C00
1800
3800
3830
3870
3870
3030
7000
7000
7000
7000
6000
E000
E000
E000
FFF0
FFF0
ENDCHAR
STARTCHAR 0140
ENCODING 320
SWIDTH 270 0
DWIDTH 9 0
BBX 10 25 1 0
BITMAP
0700
0700
0600
0E00
0E00
0E00
0E00
0C00
1C00
1C00
1C00
1CC0
19C0
39C0
3880
3800
3000
7000
7000
7000
7000
6000
E000
E000
E000
ENDCHAR
STARTCHAR 0141
ENCODING 321
SWIDTH 450 0
DWIDTH 15 0
BBX 13 24 1 0
BITMAP
0700
0700
0700
0600
0E00
0E00
0E00
0E00
0C00
1C40
1DE0
1F80
1F00
3C00
F800
F800
B800
3800
3000
7000
7000
7000
7FF8
FFF8
ENDCHAR
STARTCHAR 0142
ENCODING 322
SWIDTH 240 0
DWIDTH 8 0
BBX 8 25 1 0
BITMAP
07
07
06
0E
0E
0E
0E
0C
1C
1C
1F
1F
1E
78
F8
F8
30
30
70
70
70
60
E0
E0
E0
ENDCHAR
STARTCHAR 0143
ENCODING 323
SWIDTH 690 0
DWIDTH 23 0
BBX 23 32 1 0
BITMAP
000070
0000E0
0001C0
000180
000300
000600
000000
000000
07000E
07800C
07801C
07C01C
0FC01C
0EC018
0EE018
0CE038
0C6038
1C7038
1C3030
1C3830
183870
181870
381C70
381C60
380CE0
300EE0
3006E0
7007C0
7007C0
7003C0
6003C0
E003C0
ENDCHAR
STARTCHAR 0144
ENCODING 324
SWIDTH 570 0
DWIDTH 19 0
BBX 16 26 1 0
BITMAP
0007
000F
000E
001C
0038
0060
0000
0000
0C7E
1DFF
1FCF
1F07
1E03
3C07
3C07
3807
3807
3807
700E
700E
700E
700E
600C
E01C
E01C
E01C
ENDCHAR
STARTCHAR 0145
ENCODING 325
SWIDTH 690 0
DWIDTH 23 0
BBX 23 31 1 -7
BITMAP
07000E
07800C
07801C
07C01C
0FC01C
0EC018
0EE018
0CE038
0C6038
1C7038
1C3030
1C3830
183870
181870
381C70
381C60
380CE0
300EE0
3006E0
7007C0
7007C0
7003C0
6003C0
E003C0
000000
000000
00C000
01C000
018000
030000
030000
ENDCHAR
STARTCHAR 0146
ENCODING 326
SWIDTH 570 0
DWIDTH 19 0
BBX 16 25 1 -7
BITMAP
0C7E
1DFF
1FCF
1F07
1E03
3C07
3C07
3807
3807
3807
700E
700E
700E
700E
600C
E01C
E01C
E01C
0000
0000
0700
0700
0600
0C00
1C00
ENDCHAR
STARTCHAR 0147
ENCODING 327
SWIDTH 690 0
DWIDTH 23 0
BBX 23 31 1 0
BITMAP
001870
001CE0
000FC0
000780
000700
000000
000000
07000E
07800C
07801C
07C01C
0FC01C
0EC018
0EE018
0CE038
0C6038
1C7038
1C3030
1C3830
183870
181870
381C70
381C60
380CE0
300EE0
3006E0
7007C0
7007C0
7003C0
6003C0
E003C0
ENDCHAR
STARTCHAR 0148
ENCODING 328
SWIDTH 570 0
DWIDTH 19 0
BBX 17 26 1 0
BITMAP
018180
01C300
00CE00
007C00
007800
003000
000000
000000
0C7E00
1DFF00
1FCF00
1F0700
1E0300
3C0700
3C0700
380700
380700
380700
700E00
700E00
700E00
700E00
600C00
E01C00
E01C00
E01C00
ENDCHAR
STARTCHAR 0149
ENCODING 329
SWIDTH 630 0
DWIDTH 21 0
BBX 18 24 2 0
BITMAP
1C0000
380000
380000
300000
700000
600000
E73F00
C67F80
06E3C0
0F81C0
0F01C0
0F01C0
0E01C0
0E0180
1C0380
1C0380
1C0380
1C0380
180700
380700
380700
380700
380700
700E00
ENDCHAR
STARTCHAR 014A
ENCODING 330
SWIDTH 690 0
DWIDTH 23 0
BBX 23 30 1 -6
BITMAP
07000E
07800C
07801C
07C01C
0FC01C
0EC018
0EE018
0CE038
0C6038
1C7038
1C3030
1C3870
183870
181870
381C70
380C60
380EE0
300EE0
3006E0
7007E0
7007C0
7003C0
6003C0
E001C0
000180
000380
000380
000F00
00FE00
00FC00
ENDCHAR
STARTCHAR 014B
ENCODING 331
SWIDTH 570 0
DWIDTH 19 0
BBX 16 26 1 -8
BITMAP
0C7C
1CFF
1D87
1F07
1E03
1C03
3C07
3807
3807
3006
300E
700E
700E
700E
600C
E01C
E01C
E01C
001C
0018
0038
0038
0038
00F0
03E0
03C0
ENDCHAR
STARTCHAR 014C
ENCODING 332
SWIDTH 720 0
DWIDTH 24 0
BBX 21 28 2 0
BITMAP
007FC0
007FC0
000000
000000
007F00
01FFC0
07E7E0
0F00F0
0E0070
1C0070
380038
380038
700038
700038
700038
700038
700038
E00038
E00070
E00070
E00070
7000E0
7001E0
7001C0
380780
3E1F00
1FFE00
07F800
ENDCHAR
STARTCHAR 014D
ENCODING 333
SWIDTH 540 0
DWIDTH 18 0
BBX 15 22 2 0
BITMAP
07FC
07FC
0000
0000
03F0
0FF8
1E3C
381E
700E
700E
E00E
E00E
E00E
E00E
C00E
C00C
C01C
E01C
E038
70F0
7FE0
1FC0
ENDCHAR
STARTCHAR 014E
ENCODING 334
SWIDTH 720 0
DWIDTH 24 0
BBX 21 31 2 0
BITMAP
006060
006060
003BC0
003F80
000F00
000000
000000
007F00
01FFC0
07E7E0
0F00F0
0E0070
1C0070
380038
380038
700038
700038
700038
700038
700038
E00038
E00070
E00070
E00070
7000E0
7001E0
7001C0
380780
3E1F00
1FFE00
07F800
ENDCHAR
STARTCHAR 014F
ENCODING 335
SWIDTH 540 0
DWIDTH 18 0
BBX 15 25 2 0
BITMAP
0604
060C
07BC
03F8
00E0
0000
0000
03F0
0FF8
1E3C
381E
700E
700E
E00E
E00E
E00E
E00E
C00E
C00C
C01C
E01C
E038
70F0
7FE0
1FC0
ENDCHAR
STARTCHAR 0150
ENCODING 336
SWIDTH 720 0
DWIDTH 24 0
BBX 22 32 2 0
BITMAP
00071C
000738
000E30
001C60
0038C0
003180
000000
000000
007F00
01FFC0
07E7E0
0F00F0
0E0070
1C0070
380038
380038
700038
700038
700038
700038
700038
E00038
E00070
E00070
E00070
7000E0
7001E0
7001C0
380780
3E1F00
1FFE00
07F800
ENDCHAR
STARTCHAR 0151
ENCODING 337
SWIDTH 540 0
DWIDTH 18 0
BBX 17 26 2 0
BITMAP
007180
00E380
00C700
018E00
030C00
061800
000000
000000
03F000
0FF800
1E3C00
381E00
700E00
700E00
E00E00
E00E00
E00E00
E00E00
C00E00
C00C00
C01C00
E01C00
E03800
70F000
7FE000
1FC000
ENDCHAR
STARTCHAR 0152
ENCODING 338
SWIDTH 840 0
DWIDTH 28 0
BBX 28 24 2 0
BITMAP
007FFFF0
01FFFFF0
07C1FFF0
0F01C000
0E01C000
1C01C000
38018000
38038000
78038000
70038000
7003FF80
7007FF80
7007FF80
E0070000
E0070000
E0060000
E00E0000
700E0000
700E0000
700E0000
380C0000
3E1C0000
1FFFFE00
07FFFE00
ENDCHAR
STARTCHAR 0153
ENCODING 339
SWIDTH 840 0
DWIDTH 28 0
BBX 26 18 2 0
BITMAP
03F03F00
0FF8FF80
1E3DE3C0
381DC1C0
700F81C0
700F01C0
E00F0380
E00E0F80
E00FFE00
C00FF800
C00E0000
C00E0000
C01E0000
E01E0000
E03F0000
70F78300
7FE3FF00
1FC1FE00
ENDCHAR
STARTCHAR 0154
ENCODING 340
SWIDTH 570 0
DWIDTH 19 0
BBX 17 32 2 0
BITMAP
000700
000700
000E00
001C00
003800
003000
000000
000000
0FF000
0FFE00
0FFF00
0E0700
0C0380
1C0380
1C0380
1C0380
180380
380700
380F00
387E00
3FF800
3FE000
706000
707000
707000
703000
603800
E03800
E01C00
E01C00
C01C00
C00E00
ENDCHAR
STARTCHAR 0155
ENCODING 341
SWIDTH 390 0
DWIDTH 13 0
BBX 14 26 1 0
BITMAP
001C
003C
0038
0070
00E0
0180
0000
0000
0C78
1DF8
1DC0
1F00
1E00
1C00
3C00
3800
3800
3000
3000
7000
7000
7000
6000
E000
E000
E000
ENDCHAR
STARTCHAR 0156
ENCODING 342
SWIDTH 570 0
DWIDTH 19 0
BBX 17 31 2 -7
BITMAP
0FF000
0FFE00
0FFF00
0E0700
0C0380
1C0380
1C0380
1C0380
180380
380700
380F00
387E00
3FF800
3FE000
706000
707000
707000
703000
603800
E03800
E01C00
E01C00
C01C00
C00E00
000000
000000
070000
060000
0E0000
0C0000
180000
ENDCHAR
STARTCHAR 0157
ENCODING 343
SWIDTH 390 0
DWIDTH 13 0
BBX 15 25 -1 -7
BITMAP
031E
077E
0770
07C0
0780
0700
0F00
0E00
0E00
0C00
0C00
1C00
1C00
1C00
1800
3800
3800
3800
0000
0000
3800
3000
7000
6000
C000
ENDCHAR
STARTCHAR 0158
ENCODING 344
SWIDTH 570 0
DWIDTH 19 0
BBX 17 31 2 0
BITMAP
01C380
00C600
007C00
007800
003800
000000
000000
0FF000
0FFE00
0FFF00
0E0700
0C0380
1C0380
1C0380
1C0380
180380
380700
380F00
387E00
3FF800
3FE000
706000
707000
707000
703000
603800
E03800
E01C00
E01C00
C01C00
C00E00
ENDCHAR
STARTCHAR 0159
ENCODING 345
SWIDTH 390 0
DWIDTH 13 0
BBX 15 26 1 0
BITMAP
0406
060C
0338
03F0
01E0
01C0
0000
0000
0C78
1DF8
1DC0
1F00
1E00
1C00
3C00
3800
3800
3000
3000
7000
7000
7000
6000
E000
E000
E000
ENDCHAR
STARTCHAR 015A
ENCODING 346
SWIDTH 480 0
DWIDTH 16 0
BBX 16 32 1 0
BITMAP
0007
000E
001C
0018
0030
0060
0000
0000
01FC
07FF
0F8F
1E00
1C00
1C00
1800
1C00
1C00
1E00
0F00
07C0
03F0
00F8
0078
003C
001C
001C
001C
003C
0038
C0F8
FFF0
FFC0
ENDCHAR
STARTCHAR 015B
ENCODING 347
SWIDTH 420 0
DWIDTH 14 0
BBX 14 26 0 0
BITMAP
001C
001C
0038
0070
00E0
01C0
0000
0000
07F0
0FFC
1C18
3800
3800
3800
1C00
1E00
0F80
03C0
01E0
0070
0070
0070
0070
C0E0
FFE0
7F80
ENDCHAR
STARTCHAR 015C
ENCODING 348
SWIDTH 480 0
DWIDTH 16 0
BBX 16 31 1 0
BITMAP
0078
00FC
01CC
0386
0707
0000
0000
01FC
07FF
0F8F
1E00
1C00
1C00
1800
1C00
1C00
1E00
0F00
07C0
03F0
00F8
0078
003C
001C
001C
001C
003C
0038
C0F8
FFF0
FFC0
ENDCHAR
STARTCHAR 015D
ENCODING 349
SWIDTH 420 0
DWIDTH 14 0
BBX 14 26 0 0
BITMAP
0060
00F0
01F0
03B8
0618
0C0C
0000
0000
07F0
0FFC
1C18
3800
3800
3800
1C00
1E00
0F80
03C0
01E0
0070
0070
0070
0070
C0E0
FFE0
7F80
ENDCHAR
STARTCHAR 015E
ENCODING 350
SWIDTH 480 0
DWIDTH 16 0
BBX 16 32 1 -8
BITMAP
01FC
07FF
0F8F
1E00
1C00
1C00
1800
1C00
1C00
1E00
0F00
07C0
03F0
00F8
0078
003C
001C
001C
001C
003C
0038
C0F8
FFF0
FFC0
0400
0C00
0E00
0700
0300
0700
3E00
3C00
ENDCHAR
STARTCHAR 015F
ENCODING 351
SWIDTH 420 0
DWIDTH 14 0
BBX 14 26 0 -8
BITMAP
07F0
0FFC
1C18
3800
3800
3800
1C00
1E00
0F80
03C0
01E0
0070
0070
0070
0070
C0E0
FFE0
7F80
0C00
0C00
1E00
0700
0700
0600
7E00
7C00
ENDCHAR
STARTCHAR 0160
ENCODING 352
SWIDTH 480 0
DWIDTH 16 0
BBX 16 31 1 0
BITMAP
0187
00CE
00FC
0078
0070
0000
0000
01FC
07FF
0F8F
1E00
1C00
1C00
1800
1C00
1C00
1E00
0F00
07C0
03F0
00F8
0078
003C
001C
001C
001C
003C
0038
C0F8
FFF0
FFC0
ENDCHAR
STARTCHAR 0161
ENCODING 353
SWIDTH 420 0
DWIDTH 14 0
BBX 15 26 0 0
BITMAP
0606
070C
0318
01F0
01E0
00E0
0000
0000
07F0
0FFC
1C18
3800
3800
3800
1C00
1E00
0F80
03C0
01E0
0070
0070
0070
0070
C0E0
FFE0
7F80
ENDCHAR
STARTCHAR 0162
ENCODING 354
SWIDTH 480 0
DWIDTH 16 0
BBX 17 32 3 -8
BITMAP
FFFF80
FFFF00
FFFF00
038000
038000
038000
038000
030000
070000
070000
070000
070000
060000
0E0000
0E0000
0E0000
0E0000
1C0000
1C0000
1C0000
1C0000
180000
380000
380000
100000
300000
780000
1C0000
0C0000
1C0000
F80000
F00000
ENDCHAR
STARTCHAR 0163
ENCODING 355
SWIDTH 300 0
DWIDTH 10 0
BBX 11 30 1 -8
BITMAP
0600
0600
0E00
0E00
3FE0
7FE0
1C00
1C00
1C00
1800
3800
3800
3800
3000
3000
7000
7000
7000
7000
7000
7F00
3F00
1800
3000
3800
1C00
0C00
0C00
F800
F000
ENDCHAR
STARTCHAR 0164
ENCODING 356
SWIDTH 480 0
DWIDTH 16 0
BBX 17 31 3 0
BITMAP
060C00
033800
03F000
01E000
01C000
000000
000000
FFFF80
FFFF00
FFFF00
038000
038000
038000
038000
030000
070000
070000
070000
070000
060000
0E0000
0E0000
0E0000
0E0000
1C0000
1C0000
1C0000
1C0000
180000
380000
380000
ENDCHAR
STARTCHAR 0165
ENCODING 357
SWIDTH 300 0
DWIDTH 10 0
BBX 12 25 2 0
BITMAP
0030
0070
0060
0CC0
0C80
1C00
1C00
7FC0
FFC0
3800
3800
3800
3000
7000
7000
7000
6000
6000
E000
E000
E000
E000
E000
FE00
7E00
ENDCHAR
STARTCHAR 0166
ENCODING 358
SWIDTH 480 0
DWIDTH 16 0
BBX 17 24 3 0
BITMAP
FFFF80
FFFF00
FFFF00
038000
038000
038000
038000
030000
070000
070000
070000
FFF000
FFF000
0E0000
0E0000
0E0000
0E0000
1C0000
1C0000
1C0000
1C0000
180000
380000
380000
ENDCHAR
STARTCHAR 0167
ENCODING 359
SWIDTH 300 0
DWIDTH 10 0
BBX 11 22 1 0
BITMAP
0600
0600
0E00
0E00
3FE0
7FE0
1C00
1C00
1C00
1800
3800
FF80
FF80
3000
7000
7000
7000
7000
7000
7000
7F00
3F00
ENDCHAR
STARTCHAR 0168
ENCODING 360
SWIDTH 660 0
DWIDTH 22 0
BBX 20 30 3 0
BITMAP
00F8C0
01FFC0
018F80
030700
000000
000000
1C0070
1C0070
180060
3800E0
3800E0
3800E0
3800E0
3000C0
7001C0
7001C0
7001C0
7001C0
E00180
E00380
E00380
E00380
E00300
C00700
C00700
E00E00
E01E00
783C00
7FF800
1FE000
ENDCHAR
STARTCHAR 0169
ENCODING 361
SWIDTH 570 0
DWIDTH 19 0
BBX 16 24 2 0
BITMAP
03E3
07FF
063E
0C18
0000
0000
3807
3807
3807
3807
3006
700E
700E
700E
600C
601C
E01C
E01C
E03C
E078
E078
E1F8
FFB8
7E38
ENDCHAR
STARTCHAR 016A
ENCODING 362
SWIDTH 660 0
DWIDTH 22 0
BBX 20 28 3 0
BITMAP
00FF80
00FF00
000000
000000
1C0070
1C0070
180060
3800E0
3800E0
3800E0
3800E0
3000C0
7001C0
7001C0
7001C0
7001C0
E00180
E00380
E00380
E00380
E00300
C00700
C00700
E00E00
E01E00
783C00
7FF800
1FE000
ENDCHAR
STARTCHAR 016B
ENCODING 363
SWIDTH 570 0
DWIDTH 19 0
BBX 16 22 2 0
BITMAP
03FE
07FC
0000
0000
3807
3807
3807
3807
3006
700E
700E
700E
600C
601C
E01C
E01C
E03C
E078
E078
E1F8
FFB8
7E38
ENDCHAR
STARTCHAR 016C
ENCODING 364
SWIDTH 660 0
DWIDTH 22 0
BBX 20 31 3 0
BITMAP
00C180
00C180
00F700
007F00
003C00
000000
000000
1C0070
1C0070
180060
3800E0
3800E0
3800E0
3800E0
3000C0
7001C0
7001C0
7001C0
7001C0
E00180
E00380
E00380
E00380
E00300
C00700
C00700
E00E00
E01E00
783C00
7FF800
1FE000
ENDCHAR
STARTCHAR 016D
ENCODING 365
SWIDTH 570 0
DWIDTH 19 0
BBX 16 25 2 0
BITMAP
0306
0306
03DC
01FC
00F0
0000
0000
3807
3807
3807
3807
3006
700E
700E
700E
600C
601C
E01C
E01C
E03C
E078
E078
E1F8
FFB8
7E38
ENDCHAR
STARTCHAR 016E
ENCODING 366
SWIDTH 660 0
DWIDTH 22 0
BBX 20 33 3 0
BITMAP
003C00
007600
004300
004300
006300
007E00
001C00
000000
000000
1C0070
1C0070
180060
3800E0
3800E0
3800E0
3800E0
3000C0
7001C0
7001C0
7001C0
7001C0
E00180
E00380
E00380
E00380
E00300
C00700
C00700
E00E00
E01E00
783C00
7FF800
1FE000
ENDCHAR
STARTCHAR 016F
ENCODING 367
SWIDTH 570 0
DWIDTH 19 0
BBX 16 27 2 0
BITMAP
00F0
01D8
010C
010C
018C
01F8
0070
0000
0000
3807
3807
3807
3807
3006
700E
700E
700E
600C
601C
E01C
E01C
E03C
E078
E078
E1F8
FFB8
7E38
ENDCHAR
STARTCHAR 0170
ENCODING 368
SWIDTH 660 0
DWIDTH 22 0
BBX 20 32 3 0
BITMAP
000E70
001C70
0038E0
0031C0
006380
00C300
000000
000000
1C0070
1C0070
180060
3800E0
3800E0
3800E0
3800E0
3000C0
7001C0
7001C0
7001C0
7001C0
E00180
E00380
E00380
E00380
E00300
C00700
C00700
E00E00
E01E00
783C00
7FF800
1FE000
ENDCHAR
STARTCHAR 0171
ENCODING 369
SWIDTH 570 0
DWIDTH 19 0
BBX 18 26 2 0
BITMAP
0039C0
0071C0
00E380
00C700
018E00
030800
000000
000000
380700
380700
380700
380700
300600
700E00
700E00
700E00
600C00
601C00
E01C00
E01C00
E03C00
E07800
E07800
E1F800
FFB800
7E3800
ENDCHAR
STARTCHAR 0172
ENCODING 370
SWIDTH 660 0
DWIDTH 22 0
BBX 20 31 3 -7
BITMAP
1C0070
1C0070
180060
3800E0
3800E0
3800E0
3800E0
3000C0
7001C0
7001C0
7001C0
7001C0
E00180
E00380
E00380
E00380
E00300
C00700
C00700
E00E00
E01E00
783C00
7FF800
1FE000
018000
060000
0E0000
0C0000
0C0000
0F8000
078000
ENDCHAR
STARTCHAR 0173
ENCODING 371
SWIDTH 570 0
DWIDTH 19 0
BBX 16 25 2 -7
BITMAP
3807
3807
3807
3807
3006
700E
700E
700E
600C
601C
E01C
E01C
E03C
E078
E078
E1F8
FFB8
7E38
0070
00C0
01C0
0180
0180
01E0
01E0
ENDCHAR
STARTCHAR 0174
ENCODING 372
SWIDTH 840 0
DWIDTH 28 0
BBX 27 31 4 0
BITMAP
000F0000
000F8000
00198000
0030C000
00606000
00000000
00000000
C00E00E0
C01E00E0
C01E01C0
C03E01C0
C0360380
E0360380
E0760300
E0660700
E0E60600
E0C60E00
E1C60E00
E1861C00
E3861C00
E3063800
E7073800
E6073000
EE077000
EE076000
EC07E000
FC07C000
7807C000
7803C000
70038000
70038000
ENDCHAR
STARTCHAR 0175
ENCODING 373
SWIDTH 690 0
DWIDTH 23 0
BBX 23 26 2 0
BITMAP
001C00
001C00
003E00
006600
00C300
018180
000000
000000
E0380E
E0780C
E0781C
E0F81C
E0D838
E1D838
E19870
E39870
E318E0
E718E0
E618C0
E619C0
EC1980
EC1F80
7C1F00
781F00
781F00
700E00
ENDCHAR
STARTCHAR 0176
ENCODING 374
SWIDTH 480 0
DWIDTH 16 0
BBX 17 31 3 0
BITMAP
00E000
01F000
03B800
061800
0C0C00
000000
000000
E00380
E00700
600E00
700E00
701C00
703800
303800
387000
38E000
18E000
19C000
1F8000
1F8000
0F0000
0E0000
0E0000
0C0000
1C0000
1C0000
1C0000
1C0000
180000
380000
380000
ENDCHAR
STARTCHAR 0177
ENCODING 375
SWIDTH 450 0
DWIDTH 15 0
BBX 20 34 -3 -8
BITMAP
000C00
001E00
003E00
007300
00E380
018180
000000
000000
060070
0700E0
0700E0
0701C0
0701C0
070380
030380
030700
030600
038E00
038C00
039C00
039800
01B800
01B000
01F000
01E000
01E000
01C000
018000
038000
070000
070000
1E0000
FC0000
F80000
ENDCHAR
STARTCHAR 0178
ENCODING 376
SWIDTH 480 0
DWIDTH 16 0
BBX 17 30 3 0
BITMAP
071C00
071C00
061800
000000
000000
000000
E00380
E00700
600E00
700E00
701C00
703800
303800
387000
38E000
18E000
19C000
1F8000
1F8000
0F0000
0E0000
0E0000
0C0000
1C0000
1C0000
1C0000
1C0000
180000
380000
380000
ENDCHAR
STARTCHAR 0179
ENCODING 377
SWIDTH 510 0
DWIDTH 17 0
BBX 19 32 0 0
BITMAP
0001C0
000380
000700
000E00
000C00
001800
000000
000000
07FFE0
07FFE0
07FFE0
0001C0
000380
000700
000E00
001E00
001C00
003800
007000
00F000
01E000
01C000
038000
070000
0F0000
0E0000
1C0000
380000
700000
F00000
FFFE00
FFFE00
ENDCHAR
STARTCHAR 017A
ENCODING 378
SWIDTH 420 0
DWIDTH 14 0
BBX 15 26 0 0
BITMAP
000E
001C
0038
0030
0060
00C0
0000
0000
0FFE
0FFC
001C
0038
0070
0070
00E0
01C0
0380
0700
0F00
0E00
1C00
3800
7000
E000
FFF0
FFE0
ENDCHAR
STARTCHAR 017B
ENCODING 379
SWIDTH 510 0
DWIDTH 17 0
BBX 19 30 0 0
BITMAP
000E00
001E00
000C00
000000
000000
000000
07FFE0
07FFE0
07FFE0
0001C0
000380
000700
000E00
001E00
001C00
003800
007000
00F000
01E000
01C000
038000
070000
0F0000
0E0000
1C0000
380000
700000
F00000
FFFE00
FFFE00
ENDCHAR
STARTCHAR 017C
ENCODING 380
SWIDTH 420 0
DWIDTH 14 0
BBX 15 24 0 0
BITMAP
0070
0070
0060
0000
0000
0000
0FFE
0FFC
001C
0038
0070
0070
00E0
01C0
0380
0700
0F00
0E00
1C00
3800
7000
E000
FFF0
FFE0
ENDCHAR
STARTCHAR 017D
ENCODING 381
SWIDTH 510 0
DWIDTH 17 0
BBX 19 31 0 0
BITMAP
0061C0
007380
003F00
001E00
001C00
000000
000000
07FFE0
07FFE0
07FFE0
0001C0
000380
000700
000E00
001E00
001C00
003800
007000
00F000
01E000
01C000
038000
070000
0F0000
0E0000
1C0000
380000
700000
F00000
FFFE00
FFFE00
ENDCHAR
STARTCHAR 017E
ENCODING 382
SWIDTH 420 0
DWIDTH 14 0
BBX 16 26 0 0
BITMAP
0203
030E
019C
01F8
00F0
00E0
0000
0000
0FFE
0FFC
001C
0038
0070
0070
00E0
01C0
0380
0700
0F00
0E00
1C00
3800
7000
E000
FFF0
FFE0
ENDCHAR
STARTCHAR 017F
ENCODING 383
SWIDTH 270 0
DWIDTH 9 0
BBX 18 33 -4 -7
BITMAP
000FC0
001FC0
003800
003000
007000
007000
007000
006000
00E000
00E000
00E000
00E000
00C000
01C000
01C000
01C000
01C000
018000
038000
038000
038000
030000
070000
070000
070000
070000
060000
0E0000
0E0000
0E0000
1C0000
F80000
F00000
ENDCHAR
STARTCHAR 0192
ENCODING 402
SWIDTH 540 0
DWIDTH 18 0
BBX 18 32 0 -8
BITMAP
000FC0
001FC0
003C00
003800
007000
007000
007000
006000
00FE00
07FE00
00E000
00E000
00C000
01C000
01C000
01C000
01C000
018000
038000
038000
038000
038000
030000
070000
070000
070000
060000
0E0000
0E0000
1C0000
FC0000
F00000
ENDCHAR
STARTCHAR 01A0
ENCODING 416
SWIDTH 690 0
DWIDTH 23 0
BBX 26 25 2 0
BITMAP
000003C0
007F0380
01FFC380
07E7E700
0F00FE00
0E007800
1C007000
38003800
38003800
70003800
70003800
70003800
70003800
70003800
E0003800
E0007000
E0007000
E0007000
7000E000
7001E000
7001C000
38078000
3E1F0000
1FFE0000
07F80000
ENDCHAR
STARTCHAR 01A1
ENCODING 417
SWIDTH 540 0
DWIDTH 18 0
BBX 20 20 2 0
BITMAP
000070
000070
03F0E0
0FF9C0
1E3F80
381F00
700E00
700E00
E00E00
E00E00
E00E00
E00E00
C00E00
C00C00
C01C00
E01C00
E03800
70F000
7FE000
1FC000
ENDCHAR
STARTCHAR 01AF
ENCODING 431
SWIDTH 720 0
DWIDTH 24 0
BBX 26 25 3 0
BITMAP
000003C0
1C007380
1C007380
18006700
3800FE00
3800FC00
3800E000
3800E000
3000C000
7001C000
7001C000
7001C000
7001C000
E0018000
E0038000
E0038000
E0038000
C0030000
C0070000
C0070000
E00E0000
E01E0000
783C0000
7FF80000
1FF00000
ENDCHAR
STARTCHAR 01B0
ENCODING 432
SWIDTH 600 0
DWIDTH 20 0
BBX 22 20 2 0
BITMAP
00001C
00001C
380738
380770
3807E0
3807C0
300600
700E00
700E00
700E00
600C00
601C00
E01C00
E01C00
E03C00
E07800
E07800
E1F800
FFB800
7E3800
ENDCHAR
STARTCHAR 01EA
ENCODING 490
SWIDTH 720 0
DWIDTH 24 0
BBX 21 31 2 -7
BITMAP
007F00
01FFC0
07E7E0
0F00F0
0E0070
1C0070
380038
380038
700038
700038
700038
700038
700038
E00038
E00070
E00070
E00070
7000E0
7001E0
7001C0
380780
3E1F00
1FFE00
07FC00
00C000
018000
030000
070000
060000
07C000
03C000
ENDCHAR
STARTCHAR 01EB
ENCODING 491
SWIDTH 540 0
DWIDTH 18 0
BBX 15 25 2 -7
BITMAP
03F0
0FF8
1E3C
381E
700E
700E
E00E
E00E
E00E
E00E
C00E
C00C
C01C
E01C
E038
70F0
7FE0
1FC0
0600
0C00
1800
3800
3000
3E00
1E00
ENDCHAR
STARTCHAR 01EC
ENCODING 492
SWIDTH 720 0
DWIDTH 24 0
BBX 21 35 2 -7
BITMAP
007FC0
007FC0
000000
000000
007F00
01FFC0
07E7E0
0F00F0
0E0070
1C0070
380038
380038
700038
700038
700038
700038
700038
E00038
E00070
E00070
E00070
7000E0
7001E0
7001C0
380780
3E1F00
1FFE00
07FC00
00C000
018000
030000
070000
060000
07C000
03C000
ENDCHAR
STARTCHAR 01ED
ENCODING 493
SWIDTH 540 0
DWIDTH 18 0
BBX 15 29 2 -7
BITMAP
07FC
07FC
0000
0000
03F0
0FF8
1E3C
381E
700E
700E
E00E
E00E
E00E
E00E
C00E
C00C
C01C
E01C
E038
70F0
7FE0
1FC0
0600
0C00
1800
3800
3000
3E00
1E00
ENDCHAR
STARTCHAR 01F0
ENCODING 496
SWIDTH 240 0
DWIDTH 8 0
BBX 17 34 -4 -8
BITMAP
030180
018700
01CE00
00FC00
007800
007000
000000
000000
006000
00E000
00E000
00E000
00E000
00C000
01C000
01C000
01C000
018000
018000
038000
038000
038000
030000
070000
070000
070000
070000
060000
0E0000
0E0000
0E0000
1C0000
F80000
F00000
ENDCHAR
STARTCHAR 01FA
ENCODING 506
SWIDTH 540 0
DWIDTH 18 0
BBX 20 32 -2 0
BITMAP
000070
0000E0
0001C0
000380
000000
000700
001F80
0018C0
0010C0
0018C0
001D80
001F80
001F80
003B80
003B80
007380
007380
00E180
00C180
01C180
0381C0
0381C0
07FFC0
07FFC0
0E01C0
0E00C0
1C00C0
1C00C0
3800E0
7000E0
7000E0
E000E0
ENDCHAR
STARTCHAR 01FB
ENCODING 507
SWIDTH 540 0
DWIDTH 18 0
BBX 16 32 2 0
BITMAP
000F
001E
0038
0070
0000
0000
01F0
0198
0308
0308
0318
01F0
0000
0000
07E3
0FF3
1E3F
3C1E
780E
700E
700E
E00E
E00C
E01C
C01C
C01C
C03C
C078
E078
F1D8
7FB8
3E38
ENDCHAR
STARTCHAR 01FC
ENCODING 508
SWIDTH 810 0
DWIDTH 27 0
BBX 31 32 -2 0
BITMAP
00000380
00000700
00000E00
00001C00
00001800
00003000
00000000
00000000
0001FFFE
0003FFFC
0003FFFC
00073800
00063000
000E7000
001C7000
001C7000
00387000
00706000
0070FFF0
00E0FFF0
01C0FFE0
01C0C000
03FFC000
07FFC000
0701C000
0E01C000
0E018000
1C038000
38038000
38038000
7003FFC0
F003FFC0
ENDCHAR
STARTCHAR 01FD
ENCODING 509
SWIDTH 810 0
DWIDTH 27 0
BBX 25 26 2 0
BITMAP
0000E000
0000E000
0001C000
00038000
00070000
000E0000
00000000
00000000
07C67E00
0FE6FF00
1E37C700
381F0380
781E0380
701E0300
701C0700
E01C3E00
E01FFC00
E01FF000
C0380000
C0380000
C0780000
C07C0000
E0FC0000
E1BE0C00
7F3FFC00
3E33FC00
ENDCHAR
STARTCHAR 01FE
ENCODING 510
SWIDTH 720 0
DWIDTH 24 0
BBX 22 32 2 -1
BITMAP
0000E0
0001C0
000380
000700
000E00
000000
000008
007F1C
01FFF8
07E3F0
0F00E0
0E00F0
1C01F0
3803B8
380738
700E38
701C38
701C38
703838
607038
E0E038
E1C070
E1C070
E38070
7700E0
7E01E0
7C01C0
380380
3E1F00
7FFE00
E7FC00
400000
ENDCHAR
STARTCHAR 01FF
ENCODING 511
SWIDTH 540 0
DWIDTH 18 0
BBX 17 27 1 -1
BITMAP
000780
000700
000E00
001C00
003800
003000
000000
000100
01FB80
07FF00
0F1E00
1C0F00
381F00
383F00
707700
70E700
70C700
618700
638700
670600
6E0E00
7C0C00
781C00
383800
7FF000
EFE000
400000
ENDCHAR
STARTCHAR 0218
ENCODING 536
SWIDTH 480 0
DWIDTH 16 0
BBX 16 31 1 -7
BITMAP
01FC
07FF
0F8F
1E00
1C00
1C00
1800
1C00
1C00
1E00
0F00
07C0
03F0
00F8
0078
003C
001C
001C
001C
003C
0038
C0F8
FFF0
FFC0
0000
0000
0E00
0C00
1C00
1800
3000
ENDCHAR
STARTCHAR 0219
ENCODING 537
SWIDTH 420 0
DWIDTH 14 0
BBX 14 25 0 -7
BITMAP
07F0
0FFC
1C18
3800
3800
3800
1C00
1E00
0F80
03C0
01E0
0070
0070
0070
0070
C0E0
FFE0
7F80
0000
0000
0E00
0C00
1C00
1800
3000
ENDCHAR
STARTCHAR 021A
ENCODING 538
SWIDTH 480 0
DWIDTH 16 0
BBX 17 31 3 -7
BITMAP
FFFF80
FFFF00
FFFF00
038000
038000
038000
038000
030000
070000
070000
070000
070000
060000
0E0000
0E0000
0E0000
0E0000
1C0000
1C0000
1C0000
1C0000
180000
380000
380000
000000
000000
380000
300000
700000
600000
C00000
ENDCHAR
STARTCHAR 021B
ENCODING 539
SWIDTH 300 0
DWIDTH 10 0
BBX 11 29 1 -7
BITMAP
0600
0600
0E00
0E00
3FE0
7FE0
1C00
1C00
1C00
1800
3800
3800
3800
3000
3000
7000
7000
7000
7000
7000
7F00
3F00
0000
0000
3800
3800
3000
6000
C000
ENDCHAR
STARTCHAR 0237
ENCODING 567
SWIDTH 240 0
DWIDTH 8 0
BBX 11 26 -4 -8
BITMAP
0060
00E0
00E0
00E0
00E0
00C0
01C0
01C0
01C0
0180
0180
0380
0380
0380
0300
0700
0700
0700
0700
0600
0E00
0E00
0E00
1C00
F800
F000
ENDCHAR
STARTCHAR 0259
ENCODING 601
SWIDTH 480 0
DWIDTH 16 0
BBX 14 18 1 0
BITMAP
0FE0
3FF0
3078
0038
001C
001C
001C
001C
07FC
1FFC
7E18
7038
E038
E070
E0F0
E1E0
7FC0
7F00
ENDCHAR
STARTCHAR 02BC
ENCODING 700
SWIDTH 150 0
DWIDTH 5 0
BBX 6 8 2 16
BITMAP
1C
1C
18
38
30
70
60
E0
ENDCHAR
STARTCHAR 02C6
ENCODING 710
SWIDTH 360 0
DWIDTH 12 0
BBX 10 6 4 20
BITMAP
0E00
0F00
1F00
3B80
6180
C0C0
ENDCHAR
STARTCHAR 02C7
ENCODING 711
SWIDTH 360 0
DWIDTH 12 0
BBX 10 6 5 20
BITMAP
C0C0
E180
6700
7E00
3C00
3800
ENDCHAR
STARTCHAR 02C9
ENCODING 713
SWIDTH 330 0
DWIDTH 11 0
BBX 9 2 4 20
BITMAP
FF80
FF80
ENDCHAR
STARTCHAR 02D8
ENCODING 728
SWIDTH 360 0
DWIDTH 12 0
BBX 9 5 5 20
BITMAP
8180
C180
FF00
FE00
3C00
ENDCHAR
STARTCHAR 02D9
ENCODING 729
SWIDTH 150 0
DWIDTH 5 0
BBX 4 3 4 21
BITMAP
70
F0
60
ENDCHAR
STARTCHAR 02DA
ENCODING 730
SWIDTH 300 0
DWIDTH 10 0
BBX 7 7 5 20
BITMAP
78
EC
86
86
C6
FC
38
ENDCHAR
STARTCHAR 02DB
ENCODING 731
SWIDTH 240 0
DWIDTH 8 0
BBX 4 7 -1 -7
BITMAP
30
60
C0
C0
C0
F0
F0
ENDCHAR
STARTCHAR 02DC
ENCODING 732
SWIDTH 390 0
DWIDTH 13 0
BBX 11 4 4 20
BITMAP
7C20
7FE0
C7C0
C180
ENDCHAR
STARTCHAR 02DD
ENCODING 733
SWIDTH 390 0
DWIDTH 13 0
BBX 12 6 4 20
BITMAP
0C70
1C60
38E0
71C0
6300
C600
ENDCHAR
STARTCHAR 02F3
ENCODING 755
SWIDTH 330 0
DWIDTH 11 0
BBX 7 7 -1 -9
BITMAP
38
FE
C6
C6
C6
FE
38
ENDCHAR
STARTCHAR 0300
ENCODING 768
SWIDTH 0 0
DWIDTH 0 0
BBX 5 6 -12 20
BITMAP
E0
E0
60
70
30
18
ENDCHAR
STARTCHAR 0301
ENCODING 769
SWIDTH 0 0
DWIDTH 0 0
BBX 7 6 -8 20
BITMAP
0E
0E
1C
38
70
E0
ENDCHAR
STARTCHAR 0302
ENCODING 770
SWIDTH 0 0
DWIDTH 0 0
BBX 10 6 -3 20
BITMAP
0700
0F00
1F80
3980
71C0
E0C0
ENDCHAR
STARTCHAR 0303
ENCODING 771
SWIDTH 0 0
DWIDTH 0 0
BBX 12 4 -14 20
BITMAP
3E30
7FF0
63E0
C180
ENDCHAR
STARTCHAR 0304
ENCODING 772
SWIDTH 0 0
DWIDTH 0 0
BBX 9 2 -2 20
BITMAP
FF80
FF80
ENDCHAR
STARTCHAR 0306
ENCODING 774
SWIDTH 0 0
DWIDTH 0 0
BBX 10 5 -2 20
BITMAP
C0C0
C0C0
7F80
7F00
1E00
ENDCHAR
STARTCHAR 0307
ENCODING 775
SWIDTH 0 0
DWIDTH 0 0
BBX 4 3 1 21
BITMAP
70
F0
60
ENDCHAR
STARTCHAR 0308
ENCODING 776
SWIDTH 0 0
DWIDTH 0 0
BBX 8 3 -1 21
BITMAP
C3
C7
C3
ENDCHAR
STARTCHAR 0309
ENCODING 777
SWIDTH 0 0
DWIDTH 0 0
BBX 5 7 -9 20
BITMAP
F0
38
18
18
F0
C0
C0
ENDCHAR
STARTCHAR 030A
ENCODING 778
SWIDTH 0 0
DWIDTH 0 0
BBX 7 7 0 20
BITMAP
78
EC
86
86
C6
FC
38
ENDCHAR
STARTCHAR 030B
ENCODING 779
SWIDTH 0 0
DWIDTH 0 0
BBX 12 6 -2 20
BITMAP
0E70
1C70
38E0
71C0
6380
C600
ENDCHAR
STARTCHAR 030C
ENCODING 780
SWIDTH 0 0
DWIDTH 0 0
BBX 10 6 -1 20
BITMAP
80C0
C380
6700
7E00
3C00
3800
ENDCHAR
STARTCHAR 030F
ENCODING 783
SWIDTH 0 0
DWIDTH 0 0
BBX 11 6 -16 20
BITMAP
E380
E380
7180
31C0
38C0
1860
ENDCHAR
STARTCHAR 0312
ENCODING 786
SWIDTH 0 0
DWIDTH 0 0
BBX 6 8 -1 16
BITMAP
0C
0C
18
38
38
70
70
E0
ENDCHAR
STARTCHAR 0323
ENCODING 803
SWIDTH 0 0
DWIDTH 0 0
BBX 3 4 -14 -6
BITMAP
60
E0
E0
40
ENDCHAR
STARTCHAR 0326
ENCODING 806
SWIDTH 0 0
DWIDTH 0 0
BBX 5 5 2 -7
BITMAP
38
70
60
60
C0
ENDCHAR
STARTCHAR 0327
ENCODING 807
SWIDTH 0 0
DWIDTH 0 0
BBX 7 8 -6 -8
BITMAP
18
18
3C
0E
0E
0E
FC
F8
ENDCHAR
STARTCHAR 0328
ENCODING 808
SWIDTH 0 0
DWIDTH 0 0
BBX 5 7 -5 -7
BITMAP
18
30
60
E0
C0
F8
78
ENDCHAR
STARTCHAR 0384
ENCODING 900
SWIDTH 540 0
DWIDTH 18 0
BBX 6 7 10 20
BITMAP
1C
38
38
30
70
60
C0
ENDCHAR
STARTCHAR 0385
ENCODING 901
SWIDTH 420 0
DWIDTH 14 0
BBX 11 7 5 21
BITMAP
0380
0380
0700
0600
ECC0
E0E0
C0C0
ENDCHAR
STARTCHAR 0386
ENCODING 902
SWIDTH 540 0
DWIDTH 18 0
BBX 19 24 -2 0
BITMAP
038700
038F00
030F00
071F00
061B80
0C3B80
0C3380
007380
006380
00E180
00C180
01C180
0381C0
0381C0
07FFC0
07FFC0
0E01C0
0E00C0
1C00C0
1C00C0
3800E0
7000E0
7000E0
E000E0
ENDCHAR
STARTCHAR 0387
ENCODING 903
SWIDTH 240 0
DWIDTH 8 0
BBX 4 4 3 14
BITMAP
70
70
F0
60
ENDCHAR
STARTCHAR 0388
ENCODING 904
SWIDTH 600 0
DWIDTH 20 0
BBX 19 24 2 0
BITMAP
39FFE0
39FFE0
31FFE0
718000
618000
C38000
C38000
038000
030000
070000
07FF80
07FF80
07FF00
060000
0E0000
0E0000
0E0000
0E0000
0C0000
1C0000
1C0000
1C0000
1FFE00
1FFE00
ENDCHAR
STARTCHAR 0389
ENCODING 905
SWIDTH 750 0
DWIDTH 25 0
BBX 24 24 1 0
BITMAP
1CE007
1CC007
39C007
31C007
71C006
61C00E
C1800E
03800E
03800C
03800C
03FFFC
03FFFC
07FFFC
070018
070038
060038
0E0038
0E0038
0E0030
0E0070
0C0070
1C0070
1C0070
1C0060
ENDCHAR
STARTCHAR 038A
ENCODING 906
SWIDTH 330 0
DWIDTH 11 0
BBX 11 24 1 0
BITMAP
1CE0
1CE0
38C0
31C0
71C0
61C0
C1C0
0180
0380
0380
0380
0300
0300
0700
0700
0700
0600
0E00
0E00
0E00
0E00
0C00
1C00
1C00
ENDCHAR
STARTCHAR 038C
ENCODING 908
SWIDTH 750 0
DWIDTH 25 0
BBX 24 24 1 0
BITMAP
1C1FE0
1C7FF8
38FCFC
31E01C
73C01E
63800E
C7000E
070007
0E0007
0E0007
0E0007
1C0007
1C000E
1C000E
1C000E
1C000E
1C001C
1C001C
0E0038
0E0078
0F00F0
07C3E0
03FFC0
00FF00
ENDCHAR
STARTCHAR 038E
ENCODING 910
SWIDTH 630 0
DWIDTH 21 0
BBX 23 24 1 0
BITMAP
1DC00E
39C00E
39C01C
70C038
60C038
E0E070
C0E0E0
0060E0
0061C0
007380
007380
003700
003E00
003C00
003C00
001800
003800
003800
003800
003000
007000
007000
007000
007000
ENDCHAR
STARTCHAR 038F
ENCODING 911
SWIDTH 780 0
DWIDTH 26 0
BBX 23 24 2 0
BITMAP
381FC0
38FFF0
31F0F8
73C03C
67801C
C7000E
CE000E
0E000E
1C000E
1C000E
1C000E
1C000E
1C000E
1C000E
1C001C
1C001C
1C0038
0C0078
0E0070
0E00E0
0703C0
038700
FF8FFC
FF8FFC
ENDCHAR
STARTCHAR 0390
ENCODING 912
SWIDTH 300 0
DWIDTH 10 0
BBX 10 28 2 0
BITMAP
0380
0380
0700
0600
ECC0
E1C0
C0C0
0000
0000
0000
3800
3800
3800
3800
3000
7000
7000
7000
6000
6000
E000
E000
E000
C000
C000
E000
FC00
7C00
ENDCHAR
STARTCHAR 0391
ENCODING 913
SWIDTH 540 0
DWIDTH 18 0
BBX 19 24 -2 0
BITMAP
000700
000F00
000F00
001F00
001B80
003B80
003380
007380
006380
00E180
00C180
01C180
0381C0
0381C0
07FFC0
07FFC0
0E01C0
0E00C0
1C00C0
1C00C0
3800E0
7000E0
7000E0
E000E0
ENDCHAR
STARTCHAR 0392
ENCODING 914
SWIDTH 600 0
DWIDTH 20 0
BBX 18 24 2 0
BITMAP
0FF800
0FFF00
0FFF80
0C0380
0C03C0
1C01C0
1C01C0
1C0380
180380
380700
3FFE00
3FF000
3FFC00
300E00
700700
700700
700700
700700
600700
E00F00
E01E00
E07C00
FFF800
FFE000
ENDCHAR
STARTCHAR 0393
ENCODING 915
SWIDTH 450 0
DWIDTH 15 0
BBX 16 24 2 0
BITMAP
0FFF
0FFF
0FFF
0C00
0C00
1C00
1C00
1C00
1800
3800
3800
3800
3800
3000
7000
7000
7000
7000
6000
E000
E000
E000
C000
C000
ENDCHAR
STARTCHAR 0394
ENCODING 916
SWIDTH 540 0
DWIDTH 18 0
BBX 18 24 -1 0
BITMAP
000E00
000E00
001E00
003E00
003F00
007700
007700
00E700
00E700
01C300
01C300
038300
030300
070380
060380
0E0380
1C0380
1C0380
380380
380180
700180
700180
FFFFC0
FFFF80
ENDCHAR
STARTCHAR 0395
ENCODING 917
SWIDTH 510 0
DWIDTH 17 0
BBX 16 24 2 0
BITMAP
0FFF
0FFF
0FFF
0C00
0C00
1C00
1C00
1C00
1800
3800
3FFC
3FFC
3FF8
3000
7000
7000
7000
7000
6000
E000
E000
E000
FFF0
FFF0
ENDCHAR
STARTCHAR 0396
ENCODING 918
SWIDTH 510 0
DWIDTH 17 0
BBX 19 24 0 0
BITMAP
07FFE0
07FFE0
07FFE0
0001C0
000380
000700
000E00
001E00
001C00
003800
007000
00F000
01E000
01C000
038000
070000
0F0000
0E0000
1C0000
380000
700000
F00000
FFFE00
FFFE00
ENDCHAR
STARTCHAR 0397
ENCODING 919
SWIDTH 660 0
DWIDTH 22 0
BBX 21 24 2 0
BITMAP
0E0038
0E0038
0E0030
0E0070
0C0070
1C0070
1C0060
1C0060
1800E0
3800E0
3FFFE0
3FFFC0
3FFFC0
3001C0
7001C0
7001C0
700180
700380
600380
E00380
E00300
E00300
C00700
C00700
ENDCHAR
STARTCHAR 0398
ENCODING 920
SWIDTH 720 0
DWIDTH 24 0
BBX 21 24 2 0
BITMAP
007F00
01FFC0
07E7E0
0F00F0
0E0070
1C0070
380038
380038
700038
700038
700038
73FE38
73FE38
E00038
E00070
E00070
600070
7000E0
7001E0
7801C0
3803C0
3E1F80
1FFE00
07FC00
ENDCHAR
STARTCHAR 0399
ENCODING 921
SWIDTH 270 0
DWIDTH 9 0
BBX 7 24 2 0
BITMAP
0E
0E
0E
0C
0C
1C
1C
1C
18
38
38
38
38
30
70
70
70
60
60
E0
E0
E0
C0
C0
ENDCHAR
STARTCHAR 039A
ENCODING 922
SWIDTH 540 0
DWIDTH 18 0
BBX 19 24 2 0
BITMAP
0E00E0
0E01C0
0E0380
0C0700
0C0E00
1C1C00
1C3800
1C7000
18E000
39C000
3B8000
3FC000
3FC000
38C000
70E000
70E000
707000
707000
603800
E03800
E03800
E01C00
C01C00
C00E00
ENDCHAR
STARTCHAR 039B
ENCODING 923
SWIDTH 540 0
DWIDTH 18 0
BBX 19 24 -2 0
BITMAP
000700
000F00
000F00
001F00
001F80
003B80
003B80
007380
006180
00E180
00C180
01C1C0
0381C0
0381C0
0701C0
0701C0
0E01C0
0E00C0
1C00C0
1C00E0
3800E0
7800E0
7000E0
E000E0
ENDCHAR
STARTCHAR 039C
ENCODING 924
SWIDTH 810 0
DWIDTH 27 0
BBX 27 24 1 0
BITMAP
078001E0
078003E0
07C007E0
07C007C0
0FC00FC0
0EC00DC0
0EC01DC0
0CC01980
0CC03980
1CC03380
1CE07380
1CE06380
18E0E300
1861C700
38618700
38638700
38630700
30670600
30760E00
707E0E00
703C0E00
703C0E00
60380C00
E0301C00
ENDCHAR
STARTCHAR 039D
ENCODING 925
SWIDTH 690 0
DWIDTH 23 0
BBX 23 24 1 0
BITMAP
07000E
07800C
07801C
07C01C
0FC01C
0EC018
0EE018
0CE038
0C6038
1C7038
1C3030
1C3830
183870
181870
381C70
381C60
380CE0
300EE0
3006E0
7007C0
7007C0
7003C0
6003C0
E003C0
ENDCHAR
STARTCHAR 039E
ENCODING 926
SWIDTH 510 0
DWIDTH 17 0
BBX 18 24 0 0
BITMAP
07FFC0
07FFC0
07FFC0
000000
000000
000000
000000
000000
000000
000000
0FFE00
0FFE00
0FFC00
000000
000000
000000
000000
000000
000000
000000
000000
000000
FFFC00
FFFC00
ENDCHAR
STARTCHAR 039F
ENCODING 927
SWIDTH 720 0
DWIDTH 24 0
BBX 21 24 2 0
BITMAP
007F00
01FFC0
07E7E0
0F00F0
0E0070
1C0070
380038
380038
700038
700038
700038
700038
700038
E00038
E00070
E00070
E00070
7000E0
7001E0
7001C0
380780
3E1F00
1FFE00
07F800
ENDCHAR
STARTCHAR 03A0
ENCODING 928
SWIDTH 660 0
DWIDTH 22 0
BBX 21 24 2 0
BITMAP
0FFFF8
0FFFF0
0FFFF0
0C0070
0C0070
1C0070
1C0060
1C00E0
1800E0
3800E0
3800E0
3800C0
3801C0
3001C0
7001C0
7001C0
700380
700380
600380
E00380
E00300
E00700
C00700
C00700
ENDCHAR
STARTCHAR 03A1
ENCODING 929
SWIDTH 540 0
DWIDTH 18 0
BBX 17 24 2 0
BITMAP
0FF800
0FFE00
0FFF00
0C0700
0C0380
1C0380
1C0380
1C0380
180380
380700
380700
381E00
3FFC00
3FF800
7F0000
700000
700000
700000
600000
E00000
E00000
E00000
C00000
C00000
ENDCHAR
STARTCHAR 03A3
ENCODING 931
SWIDTH 510 0
DWIDTH 17 0
BBX 19 24 0 0
BITMAP
07FFE0
0FFFC0
0FFFC0
070000
070000
038000
038000
01C000
01C000
00E000
00E000
007000
00E000
01C000
03C000
038000
070000
0E0000
1C0000
380000
700000
E00000
FFFE00
FFFE00
ENDCHAR
STARTCHAR 03A4
ENCODING 932
SWIDTH 480 0
DWIDTH 16 0
BBX 17 24 3 0
BITMAP
FFFF80
FFFF00
FFFF00
038000
038000
038000
038000
030000
070000
070000
070000
070000
060000
0E0000
0E0000
0E0000
0E0000
1C0000
1C0000
1C0000
1C0000
180000
380000
380000
ENDCHAR
STARTCHAR 03A5
ENCODING 933
SWIDTH 480 0
DWIDTH 16 0
BBX 17 24 3 0
BITMAP
E00380
E00700
600E00
700E00
701C00
703800
303800
387000
38E000
18E000
19C000
1F8000
1F8000
0F0000
0E0000
0E0000
0C0000
1C0000
1C0000
1C0000
1C0000
180000
380000
380000
ENDCHAR
STARTCHAR 03A6
ENCODING 934
SWIDTH 720 0
DWIDTH 24 0
BBX 22 24 2 0
BITMAP
000E00
000E00
000E00
01FFC0
07FFE0
0F9CF0
1C1C38
38183C
70381C
70381C
70381C
E0381C
E0301C
E07018
E07038
707078
7070F0
3861E0
3FFFC0
0FFF00
03F000
00C000
01C000
01C000
ENDCHAR
STARTCHAR 03A7
ENCODING 935
SWIDTH 510 0
DWIDTH 17 0
BBX 21 24 -1 0
BITMAP
070038
070070
0300E0
0380E0
0381C0
018380
01C700
00CE00
00CE00
00FC00
007800
007000
00F000
01F800
019800
039C00
071C00
0E0C00
0C0E00
1C0E00
380600
700700
E00700
E00300
ENDCHAR
STARTCHAR 03A8
ENCODING 936
SWIDTH 720 0
DWIDTH 24 0
BBX 23 24 3 0
BITMAP
381C0E
381C0E
30180E
70380C
70381C
70381C
70381C
60301C
E07038
E07038
E07038
E07070
7060F0
70E1E0
3FFFC0
1FFF80
07FC00
00C000
01C000
01C000
01C000
018000
038000
038000
ENDCHAR
STARTCHAR 03A9
ENCODING 937
SWIDTH 720 0
DWIDTH 24 0
BBX 23 24 0 0
BITMAP
003FC0
00FFF0
01F0F8
03C03C
07801C
07000E
0E000E
0E000E
1C000E
1C000E
1C000E
1C000E
1C000E
1C000E
1C001C
1C001C
1C0038
1C0070
0E00F0
0E01E0
070380
038700
FF8FFC
FF8FFC
ENDCHAR
STARTCHAR 03AA
ENCODING 938
SWIDTH 270 0
DWIDTH 9 0
BBX 11 30 2 0
BITMAP
1860
38E0
1860
0000
0000
0000
0E00
0E00
0E00
0C00
0C00
1C00
1C00
1C00
1800
3800
3800
3800
3800
3000
7000
7000
7000
6000
6000
E000
E000
E000
C000
C000
ENDCHAR
STARTCHAR 03AB
ENCODING 939
SWIDTH 480 0
DWIDTH 16 0
BBX 17 30 3 0
BITMAP
071C00
071C00
061800
000000
000000
000000
E00380
E00700
600E00
700E00
701C00
703800
303800
387000
38E000
18E000
19C000
1F8000
1F8000
0F0000
0E0000
0E0000
0C0000
1C0000
1C0000
1C0000
1C0000
180000
380000
380000
ENDCHAR
STARTCHAR 03AC
ENCODING 940
SWIDTH 540 0
DWIDTH 18 0
BBX 17 27 2 0
BITMAP
001C00
001C00
003800
003800
003000
006000
006000
000000
000000
07E380
0FF300
1E3F00
381F00
780E00
700E00
600E00
E00E00
E00C00
E01C00
C01C00
C01C00
C03800
C07800
E07800
F1F800
7F9E00
3E1E00
ENDCHAR
STARTCHAR 03AD
ENCODING 941
SWIDTH 420 0
DWIDTH 14 0
BBX 14 27 1 0
BITMAP
001C
0038
0038
0070
0060
00E0
00C0
0000
0000
03F8
0FFC
1E0C
1800
3800
3800
1800
1F00
07C0
3FC0
7800
E000
E000
E000
E000
F030
7FF0
3FE0
ENDCHAR
STARTCHAR 03AE
ENCODING 942
SWIDTH 570 0
DWIDTH 19 0
BBX 16 35 1 -8
BITMAP
000E
000E
000C
001C
0018
0030
0030
0000
0000
0C7C
1CFF
1D87
1F07
1E03
1C03
3C07
3807
3807
3006
300E
700E
700E
700E
600C
E01C
E01C
E01C
001C
0018
0038
0038
0038
0030
0070
0070
ENDCHAR
STARTCHAR 03AF
ENCODING 943
SWIDTH 300 0
DWIDTH 10 0
BBX 9 27 2 0
BITMAP
0380
0700
0700
0600
0E00
0C00
1800
0000
0000
3800
3800
3800
3800
3000
7000
7000
7000
6000
6000
E000
E000
E000
C000
C000
E000
FC00
7C00
ENDCHAR
STARTCHAR 03B0
ENCODING 944
SWIDTH 570 0
DWIDTH 19 0
BBX 16 28 2 0
BITMAP
001C
001C
0038
0030
0766
0706
0606
0000
0000
0000
3807
3807
3807
3007
3007
7007
7006
7006
600E
600E
E00E
E00C
E01C
E01C
E038
7070
7FE0
1FC0
ENDCHAR
STARTCHAR 03B1
ENCODING 945
SWIDTH 540 0
DWIDTH 18 0
BBX 17 18 2 0
BITMAP
07E380
0FF300
1E3F00
381F00
780E00
700E00
600E00
E00E00
E00C00
E01C00
C01C00
C01C00
C03800
C07800
E07800
F1F800
7F9E00
3E1E00
ENDCHAR
STARTCHAR 03B2
ENCODING 946
SWIDTH 570 0
DWIDTH 19 0
BBX 20 33 -1 -7
BITMAP
003FC0
00FFE0
00E0E0
01C070
018070
038070
038070
030060
0700E0
0701C0
070F80
073E00
063F00
0E0380
0E01C0
0E01C0
0E00C0
0C00C0
1C00C0
1C01C0
1C01C0
180380
3E0780
3FFF00
39FC00
380000
300000
700000
700000
700000
700000
600000
E00000
ENDCHAR
STARTCHAR 03B3
ENCODING 947
SWIDTH 450 0
DWIDTH 15 0
BBX 16 26 1 -8
BITMAP
6007
700E
700E
701C
701C
7038
3030
3070
30E0
38E0
39C0
39C0
1B80
1B80
1B00
1E00
1E00
1C00
1C00
3800
3800
3800
7000
7000
7000
E000
ENDCHAR
STARTCHAR 03B4
ENCODING 948
SWIDTH 540 0
DWIDTH 18 0
BBX 17 26 1 0
BITMAP
001000
00FF00
01FF80
038180
038000
030000
030000
038000
01C000
01E000
007000
03F800
0F1C00
1C0E00
380E00
700600
700600
E00600
E00600
E00E00
E00E00
E00E00
701C00
787800
3FF000
1FE000
ENDCHAR
STARTCHAR 03B5
ENCODING 949
SWIDTH 420 0
DWIDTH 14 0
BBX 14 18 1 0
BITMAP
03F8
0FFC
1E0C
1800
3800
3800
1800
1F00
07C0
3FC0
7800
E000
E000
E000
E000
F030
7FF0
3FE0
ENDCHAR
STARTCHAR 03B6
ENCODING 950
SWIDTH 450 0
DWIDTH 15 0
BBX 15 32 2 -7
BITMAP
0FFE
0FFE
001C
0038
0070
00E0
01C0
0380
0700
0E00
1C00
3800
7000
7000
E000
E000
E000
C000
C000
C000
E000
F000
7800
3E00
1F80
03C0
01C0
01C0
01C0
0380
0300
0600
ENDCHAR
STARTCHAR 03B7
ENCODING 951
SWIDTH 570 0
DWIDTH 19 0
BBX 16 26 1 -8
BITMAP
0C7C
1CFF
1D87
1F07
1E03
1C03
3C07
3807
3807
3006
300E
700E
700E
700E
600C
E01C
E01C
E01C
001C
0018
0038
0038
0038
0030
0070
0070
ENDCHAR
STARTCHAR 03B8
ENCODING 952
SWIDTH 540 0
DWIDTH 18 0
BBX 16 25 2 1
BITMAP
03F8
07FC
0F0E
1C0E
1C06
3807
3807
3007
7006
7006
600E
FFFE
FFFE
E00E
E00C
C01C
C01C
C018
C038
C038
C070
E070
F1E0
7FC0
3F00
ENDCHAR
STARTCHAR 03B9
ENCODING 953
SWIDTH 300 0
DWIDTH 10 0
BBX 6 18 2 0
BITMAP
38
38
38
38
30
70
70
70
60
60
E0
E0
E0
C0
C0
E0
FC
7C
ENDCHAR
STARTCHAR 03BA
ENCODING 954
SWIDTH 480 0
DWIDTH 16 0
BBX 16 18 1 0
BITMAP
0C07
1C0E
1C1C
1C38
1870
18E0
39C0
3B80
3780
3F80
79C0
71C0
70E0
70E0
6070
E070
E038
E038
ENDCHAR
STARTCHAR 03BB
ENCODING 955
SWIDTH 480 0
DWIDTH 16 0
BBX 17 26 -2 0
BITMAP
018000
03E000
03F000
007000
003000
003800
003800
003800
003800
003800
007800
007800
00D800
01D800
01DC00
039C00
031C00
071C00
061C00
0E0C00
1C0C00
1C0C00
380E00
300E00
700F80
E00780
ENDCHAR
STARTCHAR 03BC
ENCODING 956
SWIDTH 570 0
DWIDTH 19 0
BBX 19 26 -1 -8
BITMAP
030060
0700E0
0700E0
0700E0
0700E0
0600C0
0E01C0
0E01C0
0E01C0
0E0180
0C0380
1C0380
1C0780
1C0780
1C0F00
3C3B00
3FF300
3FE700
300000
300000
700000
700000
700000
600000
600000
E00000
ENDCHAR
STARTCHAR 03BD
ENCODING 957
SWIDTH 480 0
DWIDTH 16 0
BBX 15 18 2 0
BITMAP
C00E
C00C
E01C
E01C
E01C
E038
E038
6030
6070
6070
70E0
70C0
71C0
7380
7700
3E00
3C00
3800
ENDCHAR
STARTCHAR 03BE
ENCODING 958
SWIDTH 420 0
DWIDTH 14 0
BBX 15 32 1 -7
BITMAP
07FE
07FE
01E0
0380
0600
0E00
0C00
0C00
0E00
0E00
07C0
01F8
07F0
1E00
3800
7000
7000
E000
E000
E000
E000
7000
7C00
3F00
0FC0
03C0
00E0
00E0
00C0
01C0
0380
0700
ENDCHAR
STARTCHAR 03BF
ENCODING 959
SWIDTH 540 0
DWIDTH 18 0
BBX 15 18 2 0
BITMAP
03F0
0FF8
1E3C
381E
700E
700E
E00E
E00E
E00E
E00E
C00E
C00C
C01C
E01C
E038
70F0
7FE0
1FC0
ENDCHAR
STARTCHAR 03C0
ENCODING 960
SWIDTH 600 0
DWIDTH 20 0
BBX 19 18 2 0
BITMAP
3FFFE0
FFFFE0
1C0E00
1C0E00
180E00
380C00
381C00
381C00
301C00
701800
701800
703800
703800
603800
E03800
E03800
E03E00
E03E00
ENDCHAR
STARTCHAR 03C1
ENCODING 961
SWIDTH 570 0
DWIDTH 19 0
BBX 18 26 -1 -8
BITMAP
007E00
01FF80
03C380
0381C0
0701C0
0700C0
0E00C0
0E00C0
0E00C0
0C01C0
0C01C0
1C01C0
1C0380
1C0380
1C0700
3E0F00
3FFE00
3BF800
380000
300000
700000
700000
700000
700000
600000
E00000
ENDCHAR
STARTCHAR 03C2
ENCODING 962
SWIDTH 450 0
DWIDTH 15 0
BBX 13 25 2 -7
BITMAP
03F8
0FF8
1E18
3800
7000
7000
E000
E000
E000
C000
C000
C000
E000
E000
F000
7800
3E00
1F80
03C0
01C0
01C0
01C0
0180
0380
0700
ENDCHAR
STARTCHAR 03C3
ENCODING 963
SWIDTH 570 0
DWIDTH 19 0
BBX 18 18 2 0
BITMAP
01FFC0
0FFFC0
1F9800
3C1C00
700C00
700C00
E00E00
E00E00
E00E00
C00E00
C00C00
C00C00
C01C00
E01C00
E03800
707000
7FE000
1FC000
ENDCHAR
STARTCHAR 03C4
ENCODING 964
SWIDTH 420 0
DWIDTH 14 0
BBX 13 18 2 0
BITMAP
3FF8
FFF8
0E00
0E00
0E00
0C00
1C00
1C00
1C00
1C00
1800
3800
3800
3800
3800
3800
3F80
1F80
ENDCHAR
STARTCHAR 03C5
ENCODING 965
SWIDTH 570 0
DWIDTH 19 0
BBX 16 18 2 0
BITMAP
3807
3807
3807
3007
3007
7007
7006
7006
600E
600E
E00E
E00C
E01C
E01C
E038
7070
7FE0
1FC0
ENDCHAR
STARTCHAR 03C6
ENCODING 966
SWIDTH 660 0
DWIDTH 22 0
BBX 19 26 2 -8
BITMAP
0C1F80
0E3FC0
1C79C0
3870E0
7060E0
70E0E0
E0E0E0
E0E0E0
E0C0E0
C0C0C0
C1C1C0
C1C1C0
C1C380
E18380
E18700
739E00
3FFC00
1FF000
030000
070000
070000
070000
060000
060000
0E0000
0E0000
ENDCHAR
STARTCHAR 03C7
ENCODING 967
SWIDTH 480 0
DWIDTH 16 0
BBX 21 26 -3 -8
BITMAP
078038
07C070
05C0E0
00E0E0
00E1C0
00E380
00E300
006700
006E00
006C00
007C00
007800
007000
00F000
00F000
01F000
03B000
073800
073800
0E3800
1C3800
1C1800
381800
701C00
E01F00
E00F00
ENDCHAR
STARTCHAR 03C8
ENCODING 968
SWIDTH 690 0
DWIDTH 23 0
BBX 21 33 2 -8
BITMAP
000E00
000C00
001C00
001C00
001C00
001800
001800
383838
383838
383838
303030
303030
707030
707070
707070
606070
E0E070
E0E0E0
E0E0E0
E0C0E0
E0C1C0
71C380
79CF00
3FFE00
0FF800
018000
038000
038000
038000
030000
070000
070000
070000
ENDCHAR
STARTCHAR 03C9
ENCODING 969
SWIDTH 720 0
DWIDTH 24 0
BBX 21 18 2 0
BITMAP
0C0030
1C0038
380038
380038
700038
700038
600038
E07038
E07038
E06030
C06070
C0E070
C0E070
C0E0E0
E1E0E0
E3E1C0
7F7F80
7E3F00
ENDCHAR
STARTCHAR 03CA
ENCODING 970
SWIDTH 300 0
DWIDTH 10 0
BBX 9 24 2 0
BITMAP
6180
E380
6180
0000
0000
0000
3800
3800
3800
3800
3000
7000
7000
7000
6000
6000
E000
E000
E000
C000
C000
E000
FC00
7C00
ENDCHAR
STARTCHAR 03CB
ENCODING 971
SWIDTH 570 0
DWIDTH 19 0
BBX 16 24 2 0
BITMAP
030C
038C
030C
0000
0000
0000
3807
3807
3807
3007
3007
7007
7006
7006
600E
600E
E00E
E00C
E01C
E01C
E038
7070
7FE0
1FC0
ENDCHAR
STARTCHAR 03CC
ENCODING 972
SWIDTH 540 0
DWIDTH 18 0
BBX 15 27 2 0
BITMAP
001C
0038
0038
0070
0060
00C0
00C0
0000
0000
03F0
0FF8
1E3C
381E
700E
700E
E00E
E00E
E00E
E00E
C00E
C00C
C01C
E01C
E038
70F0
7FE0
1FC0
ENDCHAR
STARTCHAR 03CD
ENCODING 973
SWIDTH 570 0
DWIDTH 19 0
BBX 16 27 2 0
BITMAP
001C
001C
0038
0030
0070
0060
00C0
0000
0000
3807
3807
3807
3007
3007
7007
7006
7006
600E
600E
E00E
E00C
E01C
E01C
E038
7070
7FE0
1FC0
ENDCHAR
STARTCHAR 03CE
ENCODING 974
SWIDTH 720 0
DWIDTH 24 0
BBX 21 27 2 0
BITMAP
000380
000700
000700
000E00
000C00
001C00
001800
000000
000000
0C0030
1C0038
380038
380038
700038
700038
600038
E07038
E07038
E06030
C06070
C0E070
C0E070
C0E0E0
E1E0E0
E3E1C0
7F7F80
7E3F00
ENDCHAR
STARTCHAR 03D1
ENCODING 977
SWIDTH 540 0
DWIDTH 18 0
BBX 19 26 1 0
BITMAP
002000
01FC00
03FE00
070F00
070700
070700
070300
070300
070300
03C300
01FFE0
007FC0
F00700
F80700
380700
380700
380E00
700E00
700E00
601C00
E01C00
E03800
E07000
70F000
7FE000
3F8000
ENDCHAR
STARTCHAR 03D2
ENCODING 978
SWIDTH 480 0
DWIDTH 16 0
BBX 17 24 3 0
BITMAP
E00380
E00F80
600E00
701C00
703800
703000
307000
38E000
38E000
39C000
198000
1F8000
1F0000
0F0000
0E0000
0E0000
0C0000
1C0000
1C0000
1C0000
1C0000
180000
380000
380000
ENDCHAR
STARTCHAR 03D6
ENCODING 982
SWIDTH 780 0
DWIDTH 26 0
BBX 25 18 2 0
BITMAP
3FFFFF80
FFFFFF80
0E003800
1C003800
1C003800
38001800
38001800
70001800
70003800
70303800
60703800
E0703800
E0703000
E0707000
70F0F000
71F1E000
7FBFC000
3F1F8000
ENDCHAR
STARTCHAR 0400
ENCODING 1024
SWIDTH 510 0
DWIDTH 17 0
BBX 16 32 2 0
BITMAP
01C0
00E0
00E0
0070
0030
0018
0000
0000
0FFF
0FFF
0FFF
0C00
0C00
1C00
1C00
1C00
1800
3800
3FFC
3FFC
3FF8
3000
7000
7000
7000
7000
6000
E000
E000
E000
FFF0
FFF0
ENDCHAR
STARTCHAR 0401
ENCODING 1025
SWIDTH 510 0
DWIDTH 17 0
BBX 16 30 2 0
BITMAP
01C7
01C7
0186
0000
0000
0000
0FFF
0FFF
0FFF
0C00
0C00
1C00
1C00
1C00
1800
3800
3FFC
3FFC
3FF8
3000
7000
7000
7000
7000
6000
E000
E000
E000
FFF0
FFF0
ENDCHAR
STARTCHAR 0402
ENCODING 1026
SWIDTH 660 0
DWIDTH 22 0
BBX 17 24 3 0
BITMAP
FFFE00
FFFE00
FFFE00
070000
070000
060000
0E0000
0E0000
0E0000
0FE000
0FFE00
1FFF00
1C0780
1C0380
1C0380
180380
380380
380380
380300
300700
700700
700E00
70FE00
70F800
ENDCHAR
STARTCHAR 0403
ENCODING 1027
SWIDTH 450 0
DWIDTH 15 0
BBX 16 32 2 0
BITMAP
0007
000F
000E
001C
0038
0060
0000
0000
0FFF
0FFF
0FFF
0C00
0C00
1C00
1C00
1C00
1800
3800
3800
3800
3800
3000
7000
7000
7000
7000
6000
E000
E000
E000
C000
C000
ENDCHAR
STARTCHAR 0404
ENCODING 1028
SWIDTH 570 0
DWIDTH 19 0
BBX 19 24 2 0
BITMAP
007F80
01FFE0
03E1C0
078000
0E0000
1C0000
1C0000
380000
380000
700000
7FFC00
7FFC00
7FFC00
E00000
E00000
E00000
E00000
700000
700000
700000
380000
3E0600
1FFE00
07FC00
ENDCHAR
STARTCHAR 0405
ENCODING 1029
SWIDTH 480 0
DWIDTH 16 0
BBX 16 24 1 0
BITMAP
01FC
07FF
0F8F
1E00
1C00
1C00
1800
1C00
1C00
1E00
0F00
07C0
03F0
00F8
0078
003C
001C
001C
001C
003C
0038
C0F8
FFF0
FFC0
ENDCHAR
STARTCHAR 0406
ENCODING 1030
SWIDTH 270 0
DWIDTH 9 0
BBX 7 24 2 0
BITMAP
0E
0E
0E
0C
0C
1C
1C
1C
18
38
38
38
38
30
70
70
70
60
60
E0
E0
E0
C0
C0
ENDCHAR
STARTCHAR 0407
ENCODING 1031
SWIDTH 270 0
DWIDTH 9 0
BBX 11 30 2 0
BITMAP
1860
38E0
1860
0000
0000
0000
0E00
0E00
0E00
0C00
0C00
1C00
1C00
1C00
1800
3800
3800
3800
3800
3000
7000
7000
7000
6000
6000
E000
E000
E000
C000
C000
ENDCHAR
STARTCHAR 0408
ENCODING 1032
SWIDTH 240 0
DWIDTH 8 0
BBX 14 30 -5 -6
BITMAP
001C
001C
001C
001C
0018
0038
0038
0038
0030
0070
0070
0070
0070
0060
00E0
00E0
00E0
00E0
00C0
01C0
01C0
01C0
01C0
0180
0380
0380
0700
0F00
FE00
FC00
ENDCHAR
STARTCHAR 0409
ENCODING 1033
SWIDTH 870 0
DWIDTH 29 0
BBX 29 24 -1 0
BITMAP
001FFC00
001FFC00
003FF800
00383800
00383800
00303800
00703800
00703000
00707000
00E07000
00E07F00
00E07FE0
00C07FF0
01C0E070
01C0E038
0180E038
0380E038
0380C038
0701C038
0701C070
0E01C0F0
1E0187E0
FC03FFC0
F803FE00
ENDCHAR
STARTCHAR 040A
ENCODING 1034
SWIDTH 900 0
DWIDTH 30 0
BBX 26 24 2 0
BITMAP
0E00E000
0E00E000
0E00E000
0C00E000
0C00C000
1C01C000
1C01C000
1C01C000
1801C000
38018000
3FFFFC00
3FFFFF00
3FFFFF80
300383C0
700701C0
700701C0
700701C0
700701C0
600601C0
E00E01C0
E00E0380
E00E1F00
C00FFE00
C00FF800
ENDCHAR
STARTCHAR 040B
ENCODING 1035
SWIDTH 660 0
DWIDTH 22 0
BBX 17 24 3 0
BITMAP
FFFE00
FFFE00
FFFE00
070000
070000
060000
0E0000
0E0000
0E0000
0FF000
0FFE00
1FFF00
1C0780
1C0380
1C0380
180380
380380
380300
380300
300700
700700
700700
700600
700E00
ENDCHAR
STARTCHAR 040C
ENCODING 1036
SWIDTH 540 0
DWIDTH 18 0
BBX 19 32 2 0
BITMAP
000380
000700
000E00
000C00
001800
003000
000000
000000
0E00E0
0E01C0
0E0380
0C0700
0C0E00
1C1C00
1C3800
1C7000
18E000
39C000
3B8000
3F0000
3F0000
370000
738000
71C000
71C000
70E000
607000
E07000
E03800
E01C00
C01C00
C00E00
ENDCHAR
STARTCHAR 040D
ENCODING 1037
SWIDTH 690 0
DWIDTH 23 0
BBX 21 32 2 0
BITMAP
003800
003800
001C00
001C00
000E00
000600
000000
000000
0E0038
0E0078
0E00F8
0C00F8
0C01F8
1C03B0
1C0730
1C0670
180E70
381C60
383860
3870E0
3060E0
30E0E0
71C0C0
7380C0
7701C0
6701C0
6E01C0
FC0180
F80180
F80380
F00380
E00380
ENDCHAR
STARTCHAR 040E
ENCODING 1038
SWIDTH 570 0
DWIDTH 19 0
BBX 22 31 0 0
BITMAP
00C060
00C0E0
00E1E0
007FC0
001E00
000000
000000
0C001C
0E0038
0E0038
0E0070
0600E0
0700E0
0701C0
0301C0
038380
038700
038700
018E00
01CC00
01DC00
00D800
00F800
00F000
00E000
00E000
01C000
038000
8F8000
FF0000
FC0000
ENDCHAR
STARTCHAR 040F
ENCODING 1039
SWIDTH 660 0
DWIDTH 22 0
BBX 21 30 2 -6
BITMAP
0E0038
0E0030
0E0070
0E0070
0C0070
1C0070
1C0060
1C00E0
1800E0
3800E0
3800E0
3800C0
3801C0
3001C0
7001C0
7001C0
700180
700380
600380
E00380
E00300
E00700
FFFF00
FFFF00
038000
038000
030000
030000
070000
070000
ENDCHAR
STARTCHAR 0410
ENCODING 1040
SWIDTH 540 0
DWIDTH 18 0
BBX 19 24 -2 0
BITMAP
000700
000F00
000F00
001F00
001B80
003B80
003380
007380
006380
00E180
00C180
01C180
0381C0
0381C0
07FFC0
07FFC0
0E01C0
0E00C0
1C00C0
1C00C0
3800E0
7000E0
7000E0
E000E0
ENDCHAR
STARTCHAR 0411
ENCODING 1041
SWIDTH 540 0
DWIDTH 18 0
BBX 16 24 2 0
BITMAP
0FFF
0FFF
0FFF
0E00
0C00
1C00
1C00
1C00
1800
3800
3FC0
3FF8
3FFC
301C
700E
700E
700E
700E
600E
E01C
E03C
E0F8
FFF0
FF80
ENDCHAR
STARTCHAR 0412
ENCODING 1042
SWIDTH 600 0
DWIDTH 20 0
BBX 18 24 2 0
BITMAP
0FF800
0FFF00
0FFF80
0C0380
0C03C0
1C01C0
1C01C0
1C0380
180380
380700
3FFE00
3FF000
3FFC00
300E00
700700
700700
700700
700700
600700
E00F00
E01E00
E07C00
FFF800
FFE000
ENDCHAR
STARTCHAR 0413
ENCODING 1043
SWIDTH 450 0
DWIDTH 15 0
BBX 16 24 2 0
BITMAP
0FFF
0FFF
0FFF
0C00
0C00
1C00
1C00
1C00
1800
3800
3800
3800
3800
3000
7000
7000
7000
7000
6000
E000
E000
E000
C000
C000
ENDCHAR
STARTCHAR 0414
ENCODING 1044
SWIDTH 600 0
DWIDTH 20 0
BBX 24 30 -3 -6
BITMAP
0003FF
0003FE
0007FE
00070E
00060E
000E0E
000E0C
001C1C
001C1C
00181C
00381C
003038
007038
007038
00E038
00C030
01C070
038070
038070
070070
0F0060
0E00E0
3FFFFC
3FFFFC
70001C
700018
700038
600038
600038
E00030
ENDCHAR
STARTCHAR 0415
ENCODING 1045
SWIDTH 510 0
DWIDTH 17 0
BBX 16 24 2 0
BITMAP
0FFF
0FFF
0FFF
0C00
0C00
1C00
1C00
1C00
1800
3800
3FFC
3FFC
3FF8
3000
7000
7000
7000
7000
6000
E000
E000
E000
FFF0
FFF0
ENDCHAR
STARTCHAR 0416
ENCODING 1046
SWIDTH 750 0
DWIDTH 25 0
BBX 30 24 -1 0
BITMAP
0700C03C
0700C078
0381C0F0
0381C1E0
01C1C1C0
01C18380
00E18700
00E38E00
00739C00
0033B800
003B7000
001FE000
003FE000
00777000
00E77000
01C63800
038E3800
078E1C00
0F0E1C00
1E0C0E00
1C0C0E00
381C0700
701C0700
E01C0380
ENDCHAR
STARTCHAR 0417
ENCODING 1047
SWIDTH 510 0
DWIDTH 17 0
BBX 17 24 0 0
BITMAP
01FE00
07FF00
0F8780
040380
000180
000180
000180
000380
000380
000F00
007E00
07F000
0FF800
001E00
000E00
000700
000700
000700
000700
000E00
001E00
E03C00
FFF800
7FE000
ENDCHAR
STARTCHAR 0418
ENCODING 1048
SWIDTH 690 0
DWIDTH 23 0
BBX 21 24 2 0
BITMAP
0E0038
0E0078
0E00F8
0C00F8
0C01F8
1C03B0
1C0730
1C0670
180E70
381C60
383860
3870E0
3060E0
30E0E0
71C0C0
7380C0
7701C0
6701C0
6E01C0
FC0180
F80180
F80380
F00380
E00380
ENDCHAR
STARTCHAR 0419
ENCODING 1049
SWIDTH 690 0
DWIDTH 23 0
BBX 21 31 2 0
BITMAP
00E070
00E060
00F1E0
007FC0
001F00
000000
000000
0E0038
0E0078
0E00F8
0C00F8
0C01F8
1C03B0
1C0730
1C0670
180E70
381C60
383860
3870E0
3060E0
30E0E0
71C0C0
7380C0
7701C0
6701C0
6E01C0
FC0180
F80180
F80380
F00380
E00380
ENDCHAR
STARTCHAR 041A
ENCODING 1050
SWIDTH 540 0
DWIDTH 18 0
BBX 19 24 2 0
BITMAP
0E00E0
0E01C0
0E0380
0C0700
0C0E00
1C1C00
1C3800
1C7000
18E000
39C000
3B8000
3F0000
3F0000
370000
738000
71C000
71C000
70E000
607000
E07000
E03800
E01C00
C01C00
C00E00
ENDCHAR
STARTCHAR 041B
ENCODING 1051
SWIDTH 630 0
DWIDTH 21 0
BBX 23 24 -1 0
BITMAP
001FFE
001FFC
003FFC
00381C
00381C
00301C
007018
007038
007038
00E038
00E038
00E030
00C070
01C070
01C070
018070
038060
0380E0
0700E0
0700E0
0E00C0
1E01C0
FC01C0
F801C0
ENDCHAR
STARTCHAR 041C
ENCODING 1052
SWIDTH 810 0
DWIDTH 27 0
BBX 27 24 1 0
BITMAP
078001E0
078003E0
07C007E0
07C007C0
0FC00FC0
0EC00DC0
0EC01DC0
0CC01980
0CC03980
1CC03380
1CE07380
1CE06380
18E0E300
1861C700
38618700
38638700
38630700
30670600
30760E00
707E0E00
703C0E00
703C0E00
60380C00
E0301C00
ENDCHAR
STARTCHAR 041D
ENCODING 1053
SWIDTH 660 0
DWIDTH 22 0
BBX 21 24 2 0
BITMAP
0E0038
0E0038
0E0030
0E0070
0C0070
1C0070
1C0060
1C0060
1800E0
3800E0
3FFFE0
3FFFC0
3FFFC0
3001C0
7001C0
7001C0
700180
700380
600380
E00380
E00300
E00300
C00700
C00700
ENDCHAR
STARTCHAR 041E
ENCODING 1054
SWIDTH 720 0
DWIDTH 24 0
BBX 21 24 2 0
BITMAP
007F00
01FFC0
07E7E0
0F00F0
0E0070
1C0070
380038
380038
700038
700038
700038
700038
700038
E00038
E00070
E00070
E00070
7000E0
7001E0
7001C0
380780
3E1F00
1FFE00
07F800
ENDCHAR
STARTCHAR 041F
ENCODING 1055
SWIDTH 660 0
DWIDTH 22 0
BBX 21 24 2 0
BITMAP
0FFFF8
0FFFF0
0FFFF0
0C0070
0C0070
1C0070
1C0060
1C00E0
1800E0
3800E0
3800E0
3800C0
3801C0
3001C0
7001C0
7001C0
700380
700380
600380
E00380
E00300
E00700
C00700
C00700
ENDCHAR
STARTCHAR 0420
ENCODING 1056
SWIDTH 540 0
DWIDTH 18 0
BBX 17 24 2 0
BITMAP
0FF800
0FFE00
0FFF00
0C0700
0C0380
1C0380
1C0380
1C0380
180380
380700
380700
381E00
3FFC00
3FF800
7F0000
700000
700000
700000
600000
E00000
E00000
E00000
C00000
C00000
ENDCHAR
STARTCHAR 0421
ENCODING 1057
SWIDTH 570 0
DWIDTH 19 0
BBX 19 24 2 0
BITMAP
007F80
01FFE0
03E1C0
078000
0E0000
1C0000
1C0000
380000
380000
700000
700000
700000
700000
E00000
E00000
E00000
E00000
700000
700000
700000
380000
3E0600
1FFE00
07FC00
ENDCHAR
STARTCHAR 0422
ENCODING 1058
SWIDTH 480 0
DWIDTH 16 0
BBX 17 24 3 0
BITMAP
FFFF80
FFFF00
FFFF00
038000
038000
038000
038000
030000
070000
070000
070000
070000
060000
0E0000
0E0000
0E0000
0E0000
1C0000
1C0000
1C0000
1C0000
180000
380000
380000
ENDCHAR
STARTCHAR 0423
ENCODING 1059
SWIDTH 570 0
DWIDTH 19 0
BBX 22 24 0 0
BITMAP
0C001C
0E0038
0E0038
0E0070
0600E0
0700E0
0701C0
0301C0
038380
038700
038700
018E00
01CC00
01DC00
00D800
00F800
00F000
00E000
00E000
01C000
038000
8F8000
FF0000
FC0000
ENDCHAR
STARTCHAR 0424
ENCODING 1060
SWIDTH 720 0
DWIDTH 24 0
BBX 22 24 2 0
BITMAP
000E00
000E00
000E00
01FFC0
07FFE0
0F9CF0
1C1C38
38183C
70381C
70381C
70381C
E0381C
E0301C
E07018
E07038
707078
7070F0
3861E0
3FFFC0
0FFF00
03F000
00C000
01C000
01C000
ENDCHAR
STARTCHAR 0425
ENCODING 1061
SWIDTH 510 0
DWIDTH 17 0
BBX 21 24 -1 0
BITMAP
070038
070070
0300E0
0380E0
0381C0
018380
01C700
00CE00
00CE00
00FC00
007800
007000
00F000
01F800
019800
039C00
071C00
0E0C00
0C0E00
1C0E00
380600
700700
E00700
E00300
ENDCHAR
STARTCHAR 0426
ENCODING 1062
SWIDTH 660 0
DWIDTH 22 0
BBX 21 30 1 -6
BITMAP
070018
070038
070038
060038
0E0030
0E0070
0E0070
0E0070
0C0070
1C0060
1C00E0
1C00E0
1C00E0
1800E0
3800C0
3801C0
3801C0
3801C0
3001C0
700380
700380
700380
7FFFE0
FFFFE0
0000E0
0000E0
0000E0
0000C0
0001C0
0001C0
ENDCHAR
STARTCHAR 0427
ENCODING 1063
SWIDTH 630 0
DWIDTH 21 0
BBX 17 24 4 0
BITMAP
380180
380380
300380
700380
700300
700700
700700
600700
E00700
E00600
E00E00
E00E00
E03E00
7FFE00
7FEC00
1F1C00
001C00
001C00
001C00
001800
003800
003800
003800
003000
ENDCHAR
STARTCHAR 0428
ENCODING 1064
SWIDTH 930 0
DWIDTH 31 0
BBX 31 24 1 0
BITMAP
0700700E
0700600E
0700E00E
0600E00C
0E00E01C
0E00E01C
0E00C01C
0E01C01C
0C01C018
1C01C038
1C018038
1C038038
1C038030
18038070
38038070
38030070
38070070
38070060
300700E0
700700E0
700600E0
700E00E0
7FFFFFC0
FFFFFFC0
ENDCHAR
STARTCHAR 0429
ENCODING 1065
SWIDTH 960 0
DWIDTH 32 0
BBX 31 30 1 -6
BITMAP
0700700E
0700600E
0700E00E
0600E00C
0E00E01C
0E00E01C
0E00C01C
0E01C01C
0C01C018
1C01C038
1C018038
1C038038
1C038030
18038070
38038070
38030070
38070070
38070060
300700E0
700700E0
700600E0
700E00E0
7FFFFFF8
FFFFFFF8
00000038
00000030
00000030
00000070
00000070
00000070
ENDCHAR
STARTCHAR 042A
ENCODING 1066
SWIDTH 600 0
DWIDTH 20 0
BBX 16 24 3 0
BITMAP
FF80
FF00
FF00
0700
0700
0700
0600
0E00
0E00
0E00
0FE0
1FFC
1FFE
1C0E
1C07
1807
3807
3807
3807
380E
301E
707C
7FF8
7FE0
ENDCHAR
STARTCHAR 042B
ENCODING 1067
SWIDTH 780 0
DWIDTH 26 0
BBX 24 24 2 0
BITMAP
0E0007
0E0007
0E0007
0C0007
0C0006
1C000E
1C000E
1C000E
18000E
38000C
3FC01C
3FF01C
3FF81C
303C18
701C18
700C38
700E38
700C38
601C30
E01C70
E03870
E1F870
FFE070
FF8060
ENDCHAR
STARTCHAR 042C
ENCODING 1068
SWIDTH 540 0
DWIDTH 18 0
BBX 15 24 2 0
BITMAP
0E00
0E00
0E00
0C00
0C00
1C00
1C00
1C00
1800
3800
3FC0
3FF0
3FF8
301C
701C
700E
700E
700E
601C
E01C
E038
E1F8
FFE0
FF80
ENDCHAR
STARTCHAR 042D
ENCODING 1069
SWIDTH 570 0
DWIDTH 19 0
BBX 19 24 0 0
BITMAP
03FC00
0FFF00
0F1F80
000380
0003C0
0001C0
0001C0
0000C0
0000E0
0000E0
07FFC0
07FFC0
07FFC0
0001C0
0001C0
0001C0
000380
000380
000700
000F00
801E00
E07C00
FFF800
7FE000
ENDCHAR
STARTCHAR 042E
ENCODING 1070
SWIDTH 960 0
DWIDTH 32 0
BBX 30 24 2 0
BITMAP
0E003F80
0E00FFE0
0E01F3F0
0C038070
0C070038
1C0E0038
1C0E0038
1C1C0018
181C001C
3838001C
3FF8001C
3FF80018
3FF80038
30380038
70380038
70380038
70380070
70380070
603800E0
E01C01E0
E01E03C0
E00F0780
C007FF00
C003FC00
ENDCHAR
STARTCHAR 042F
ENCODING 1071
SWIDTH 570 0
DWIDTH 19 0
BBX 20 24 -1 0
BITMAP
000FF0
00FFF0
01FFF0
03C070
038060
0700E0
0700E0
0700E0
0700C0
0700C0
0781C0
03E1C0
01FFC0
00FF80
01C380
03C380
038380
070380
0E0300
1E0700
3C0700
380700
700700
F00600
ENDCHAR
STARTCHAR 0430
ENCODING 1072
SWIDTH 540 0
DWIDTH 18 0
BBX 16 18 2 0
BITMAP
07E3
0FF3
1E3F
3C1E
780E
700E
700E
E00E
E00C
E01C
C01C
C01C
C03C
C078
E078
F1D8
7FB8
3E38
ENDCHAR
STARTCHAR 0431
ENCODING 1073
SWIDTH 540 0
DWIDTH 18 0
BBX 17 25 2 0
BITMAP
001F80
00FF80
03F800
078000
0E0000
1C0000
380000
380000
70C000
73F800
7FFC00
7C1C00
F81C00
F00C00
E00C00
E00C00
C00C00
C01C00
C01C00
E01C00
E03800
E03800
70F000
7FE000
1FC000
ENDCHAR
STARTCHAR 0432
ENCODING 1074
SWIDTH 510 0
DWIDTH 17 0
BBX 15 18 2 0
BITMAP
03F0
0FFC
1E1E
380E
700E
700E
E01C
E038
FFF0
FFF0
C078
C01C
C01C
E01C
E018
7078
7FF0
1FE0
ENDCHAR
STARTCHAR 0433
ENCODING 1075
SWIDTH 450 0
DWIDTH 15 0
BBX 13 18 1 0
BITMAP
0FE0
3FF0
1838
0038
0038
0038
0070
01E0
0FC0
3F00
7800
F000
E000
E000
E000
E060
7FE0
3FC0
ENDCHAR
STARTCHAR 0434
ENCODING 1076
SWIDTH 540 0
DWIDTH 18 0
BBX 16 26 2 0
BITMAP
01C0
0FF8
0FFC
001C
000E
000E
000E
0006
0006
07E7
1FF7
3C37
381E
700E
700E
E00E
E00E
E00E
C01C
C01C
C038
E038
E070
F0E0
7FC0
3F80
ENDCHAR
STARTCHAR 0435
ENCODING 1077
SWIDTH 480 0
DWIDTH 16 0
BBX 14 18 2 0
BITMAP
03F0
0FF8
1E38
381C
701C
7018
6038
E1F0
FFE0
FF80
C000
C000
C000
E000
E000
7020
7FE0
1FC0
ENDCHAR
STARTCHAR 0436
ENCODING 1078
SWIDTH 810 0
DWIDTH 27 0
BBX 28 18 0 0
BITMAP
3F0381F0
3F8383F0
03838780
01C30E00
01C31C00
01C71C00
00C73800
01C73800
01FFF800
01FFF800
01CE3000
018E3000
038C3000
038C3800
070C3800
0E1C3C00
FC1C1F80
F8180F80
ENDCHAR
STARTCHAR 0437
ENCODING 1079
SWIDTH 420 0
DWIDTH 14 0
BBX 14 18 0 0
BITMAP
0FF0
1FF8
1C3C
001C
001C
001C
0038
01F0
0FC0
0FE0
0070
0030
0038
0038
0070
C0F0
FFE0
7F80
ENDCHAR
STARTCHAR 0438
ENCODING 1080
SWIDTH 570 0
DWIDTH 19 0
BBX 16 18 2 0
BITMAP
3807
3807
3807
3807
3006
700E
700E
700E
600C
601C
E01C
E01C
E03C
E078
E078
E1F8
FFB8
7E38
ENDCHAR
STARTCHAR 0439
ENCODING 1081
SWIDTH 570 0
DWIDTH 19 0
BBX 16 25 2 0
BITMAP
0603
0607
070E
03FC
00F8
0000
0000
3807
3807
3807
3807
3006
700E
700E
700E
600C
601C
E01C
E01C
E03C
E078
E078
E1F8
FFB8
7E38
ENDCHAR
STARTCHAR 043A
ENCODING 1082
SWIDTH 450 0
DWIDTH 15 0
BBX 16 18 1 0
BITMAP
0C07
1C0E
1C1C
1C38
1870
18E0
39C0
3B80
3F00
3700
3780
7380
71C0
71E0
60E0
E070
E078
E038
ENDCHAR
STARTCHAR 043B
ENCODING 1083
SWIDTH 510 0
DWIDTH 17 0
BBX 18 18 -1 0
BITMAP
001FC0
007FC0
00F180
00E180
01C380
018380
038380
038300
030700
070700
070700
060700
0E0600
0C0E00
1C0E00
380E00
F80C00
F00C00
ENDCHAR
STARTCHAR 043C
ENCODING 1084
SWIDTH 690 0
DWIDTH 23 0
BBX 21 18 1 0
BITMAP
0E0078
1E0078
1F00F8
1B01F0
1B01B0
1B03B0
3B0370
3B0770
330660
338C60
338C60
7198E0
61B8E0
61B0C0
61F0C0
E1E1C0
E1E1C0
C1C1C0
ENDCHAR
STARTCHAR 043D
ENCODING 1085
SWIDTH 570 0
DWIDTH 19 0
BBX 18 18 1 0
BITMAP
0C01C0
1C01C0
1C0180
1C0380
1C0380
180380
380380
380300
3FFF00
3FFF00
300700
700700
700600
700E00
600E00
E00E00
E00C00
E01C00
ENDCHAR
STARTCHAR 043E
ENCODING 1086
SWIDTH 540 0
DWIDTH 18 0
BBX 15 18 2 0
BITMAP
03F0
0FF8
1E3C
381E
700E
700E
E00E
E00E
E00E
E00E
C00E
C00C
C01C
E01C
E038
70F0
7FE0
1FC0
ENDCHAR
STARTCHAR 043F
ENCODING 1087
SWIDTH 570 0
DWIDTH 19 0
BBX 16 18 1 0
BITMAP
0C7E
1DFF
1FCF
1F07
1E03
3C07
3C07
3807
3807
3807
700E
700E
700E
700E
600C
E01C
E01C
E01C
ENDCHAR
STARTCHAR 0440
ENCODING 1088
SWIDTH 570 0
DWIDTH 19 0
BBX 19 26 -1 -8
BITMAP
031F00
073F80
0763C0
07C1C0
0780C0
0700E0
0F00E0
0E00E0
0E00C0
0C01C0
0C01C0
1C01C0
1C0380
1C0380
1E0700
3F0F00
3BFE00
39F800
380000
300000
700000
700000
700000
600000
600000
E00000
ENDCHAR
STARTCHAR 0441
ENCODING 1089
SWIDTH 450 0
DWIDTH 15 0
BBX 13 18 2 0
BITMAP
03F8
0FF8
1E18
3800
7800
7000
E000
E000
E000
E000
C000
C000
C000
E000
E000
7060
7FE0
1FC0
ENDCHAR
STARTCHAR 0442
ENCODING 1090
SWIDTH 870 0
DWIDTH 29 0
BBX 26 18 1 0
BITMAP
0C7C1F00
1CFE3F80
1D8E73C0
1F06C1C0
1E0781C0
1C0701C0
380701C0
380601C0
380E01C0
300E0180
300E0380
700C0380
701C0380
701C0300
601C0700
E01C0700
E0180700
E0380700
ENDCHAR
STARTCHAR 0443
ENCODING 1091
SWIDTH 450 0
DWIDTH 15 0
BBX 20 26 -3 -8
BITMAP
060070
0700E0
0700E0
0701C0
0701C0
070380
030380
030700
030600
038E00
038C00
039C00
039800
01B800
01B000
01F000
01E000
01E000
01C000
018000
038000
070000
070000
1E0000
FC0000
F80000
ENDCHAR
STARTCHAR 0444
ENCODING 1092
SWIDTH 660 0
DWIDTH 22 0
BBX 19 33 2 -8
BITMAP
001C00
001800
001800
003800
003800
003800
003000
03FC00
0FFF00
1E7780
3871C0
7061C0
7060C0
E0E0E0
E0E0E0
E0C0C0
C0C0C0
C0C1C0
C1C1C0
E1C180
E18380
F18700
7B9E00
3FFC00
1FF000
030000
030000
070000
070000
060000
060000
060000
0E0000
ENDCHAR
STARTCHAR 0445
ENCODING 1093
SWIDTH 480 0
DWIDTH 16 0
BBX 18 18 -1 0
BITMAP
0E03C0
0E0380
060700
070E00
031C00
03B800
03B000
01F000
01E000
01E000
03E000
077000
0E7000
0E3000
1C3800
381800
701C00
E00C00
ENDCHAR
STARTCHAR 0446
ENCODING 1094
SWIDTH 570 0
DWIDTH 19 0
BBX 16 24 2 -6
BITMAP
3807
3807
3807
3807
3006
700E
700E
700E
600C
601C
E01C
E01C
E03C
E078
E078
E1D8
7F9F
7F1E
000E
000E
000E
000E
000C
001C
ENDCHAR
STARTCHAR 0447
ENCODING 1095
SWIDTH 540 0
DWIDTH 18 0
BBX 14 18 3 0
BITMAP
700C
601C
E01C
E01C
E01C
E038
C038
C078
E0F8
F7B8
7F30
3C70
0070
0070
0060
00E0
00E0
00E0
ENDCHAR
STARTCHAR 0448
ENCODING 1096
SWIDTH 870 0
DWIDTH 29 0
BBX 26 18 2 0
BITMAP
380701C0
380601C0
380E01C0
380E0180
300E0380
700E0380
700C0380
701C0380
601C0300
601C0700
E0180700
E0380700
E0380E00
E0781E00
E0F81E00
E19C7E00
FF1FEE00
7E0F8C00
ENDCHAR
STARTCHAR 0449
ENCODING 1097
SWIDTH 870 0
DWIDTH 29 0
BBX 26 24 2 -6
BITMAP
380701C0
380601C0
380E01C0
380E0180
300E0380
700E0380
700C0380
701C0380
601C0300
601C0700
E0180700
E0380700
E0380E00
E0781E00
E0F81E00
E19C7E00
FF1FE7C0
7E0F8780
00000380
00000380
00000380
00000300
00000700
00000700
ENDCHAR
STARTCHAR 044A
ENCODING 1098
SWIDTH 570 0
DWIDTH 19 0
BBX 16 18 2 0
BITMAP
FF00
FF00
0700
0700
0600
0E00
0E00
0E00
0FFC
0FFE
1C0E
1C07
1C07
1C07
1C0E
1E1E
0FFC
07F8
ENDCHAR
STARTCHAR 044B
ENCODING 1099
SWIDTH 690 0
DWIDTH 23 0
BBX 21 18 2 0
BITMAP
380038
380038
380038
380030
300070
700070
700070
700060
7FE0E0
7FF0E0
E070E0
E038E0
E038C0
E039C0
E071C0
F0F1C0
7FE1C0
3FC180
ENDCHAR
STARTCHAR 044C
ENCODING 1100
SWIDTH 510 0
DWIDTH 17 0
BBX 13 18 2 0
BITMAP
3800
3800
3800
3800
3000
7000
7000
7000
7FE0
7FF0
E038
E038
E018
E038
E038
F070
7FE0
3FC0
ENDCHAR
STARTCHAR 044D
ENCODING 1101
SWIDTH 450 0
DWIDTH 15 0
BBX 14 18 0 0
BITMAP
1FC0
3FF0
1078
0038
0038
001C
001C
001C
1FFC
1FF8
0038
0038
0038
0070
00F0
81E0
FFC0
FF00
ENDCHAR
STARTCHAR 044E
ENCODING 1102
SWIDTH 780 0
DWIDTH 26 0
BBX 23 18 1 0
BITMAP
0C03F0
1C07FC
1C0F1C
1C1C0E
1C380E
183806
387006
387006
3FF006
3FE00E
30600E
70600E
70600C
70701C
607038
E03878
E03FF0
E00FC0
ENDCHAR
STARTCHAR 044F
ENCODING 1103
SWIDTH 510 0
DWIDTH 17 0
BBX 17 18 -1 0
BITMAP
00FF80
03FF80
07C380
0E0380
0E0380
0E0300
0E0700
0E0700
07C700
03FF00
03FE00
070E00
0E0E00
0E0E00
1C0C00
3C0C00
F81C00
F01C00
ENDCHAR
STARTCHAR 0450
ENCODING 1104
SWIDTH 480 0
DWIDTH 16 0
BBX 14 26 2 0
BITMAP
0300
0380
0180
01C0
00C0
0060
0000
0000
03F0
0FF8
1E38
381C
701C
7018
6038
E1F0
FFE0
FF80
C000
C000
C000
E000
E000
7020
7FE0
1FC0
ENDCHAR
STARTCHAR 0451
ENCODING 1105
SWIDTH 480 0
DWIDTH 16 0
BBX 14 24 2 0
BITMAP
071C
071C
0618
0000
0000
0000
03F0
0FF8
1E38
381C
701C
7018
6038
E1F0
FFE0
FF80
C000
C000
C000
E000
E000
7020
7FE0
1FC0
ENDCHAR
STARTCHAR 0452
ENCODING 1106
SWIDTH 570 0
DWIDTH 19 0
BBX 16 33 1 -8
BITMAP
0700
0700
0600
3FF8
3FF8
0E00
0E00
0C18
1CFE
1DFF
1F07
1E07
1C07
3C07
3807
3807
3806
300E
700E
700E
700E
600C
E01C
E01C
E01C
001C
0018
0038
0038
0038
00F0
03E0
03C0
ENDCHAR
STARTCHAR 0453
ENCODING 1107
SWIDTH 450 0
DWIDTH 15 0
BBX 15 26 1 0
BITMAP
000E
000E
001C
0038
0070
0060
0000
0000
0FE0
3FF0
1838
0038
0038
0038
0070
01E0
0FC0
3F00
7800
F000
E000
E000
E000
E060
7FE0
3FC0
ENDCHAR
STARTCHAR 0454
ENCODING 1108
SWIDTH 450 0
DWIDTH 15 0
BBX 13 18 2 0
BITMAP
03F8
0FF8
1E18
3800
7000
7000
E000
E000
FFC0
FFC0
C000
C000
C000
E000
E000
7060
7FE0
1FC0
ENDCHAR
STARTCHAR 0455
ENCODING 1109
SWIDTH 420 0
DWIDTH 14 0
BBX 14 18 0 0
BITMAP
07F0
0FFC
1C18
3800
3800
3800
1C00
1E00
0F80
03C0
01E0
0070
0070
0070
0070
C0E0
FFE0
7F80
ENDCHAR
STARTCHAR 0456
ENCODING 1110
SWIDTH 240 0
DWIDTH 8 0
BBX 8 24 1 0
BITMAP
07
0F
06
00
00
00
0C
1C
1C
1C
1C
18
38
38
38
30
30
70
70
70
60
E0
E0
E0
ENDCHAR
STARTCHAR 0457
ENCODING 1111
SWIDTH 240 0
DWIDTH 8 0
BBX 10 24 1 0
BITMAP
30C0
71C0
30C0
0000
0000
0000
0C00
1C00
1C00
1C00
1C00
1800
3800
3800
3800
3000
3000
7000
7000
7000
6000
E000
E000
E000
ENDCHAR
STARTCHAR 0458
ENCODING 1112
SWIDTH 240 0
DWIDTH 8 0
BBX 13 32 -4 -8
BITMAP
0038
0078
0030
0000
0000
0000
0060
00E0
00E0
00E0
00E0
00C0
01C0
01C0
01C0
0180
0180
0380
0380
0380
0300
0700
0700
0700
0700
0600
0E00
0E00
0E00
1C00
F800
F000
ENDCHAR
STARTCHAR 0459
ENCODING 1113
SWIDTH 750 0
DWIDTH 25 0
BBX 25 18 -1 0
BITMAP
001F8000
007F8000
00F38000
00C30000
01C70000
01870000
03870000
03860000
0307FE00
070FFF00
070E0700
060E0380
0E0E0380
0C0E0300
1C0E0700
380F0F00
F807FE00
F003FC00
ENDCHAR
STARTCHAR 045A
ENCODING 1114
SWIDTH 810 0
DWIDTH 27 0
BBX 24 18 1 0
BITMAP
0C0380
1C0300
1C0700
1C0700
1C0700
180600
380E00
380E00
3FFFFC
3FFFFE
300C07
701C07
701C07
701C07
601C07
E00E0E
E00FFC
E007F8
ENDCHAR
STARTCHAR 045B
ENCODING 1115
SWIDTH 570 0
DWIDTH 19 0
BBX 16 25 1 0
BITMAP
0700
0700
0600
3FF8
3FF8
0E00
0E00
0C7C
1CFE
1DCF
1F07
1E03
1C07
3C07
3807
3807
3006
300E
700E
700E
700E
600C
E01C
E01C
E01C
ENDCHAR
STARTCHAR 045C
ENCODING 1116
SWIDTH 450 0
DWIDTH 15 0
BBX 16 26 1 0
BITMAP
000E
001C
001C
0038
0060
00C0
0000
0000
0C07
1C0E
1C1C
1C38
1870
18E0
39C0
3B80
3F00
3700
3780
7380
71C0
71E0
60E0
E070
E078
E038
ENDCHAR
STARTCHAR 045D
ENCODING 1117
SWIDTH 570 0
DWIDTH 19 0
BBX 16 26 2 0
BITMAP
0380
01C0
01C0
00E0
0060
0030
0000
0000
3807
3807
3807
3807
3006
700E
700E
700E
600C
601C
E01C
E01C
E03C
E078
E078
E1F8
FFB8
7E38
ENDCHAR
STARTCHAR 045E
ENCODING 1118
SWIDTH 450 0
DWIDTH 15 0
BBX 20 33 -3 -8
BITMAP
01C0E0
01C0E0
00E1C0
00FF80
001E00
000000
000000
060070
0700E0
0700E0
0701C0
0701C0
070380
030380
030700
030600
038E00
038C00
039C00
039800
01B800
01B000
01F000
01E000
01E000
01C000
018000
038000
070000
070000
1E0000
FC0000
F80000
ENDCHAR
STARTCHAR 045F
ENCODING 1119
SWIDTH 570 0
DWIDTH 19 0
BBX 16 26 2 -8
BITMAP
3807
3807
3807
3807
3006
700E
700E
700E
600C
601C
E01C
E01C
E03C
E078
E078
E1F8
FFB8
7E38
0000
0200
0E00
0E00
0E00
0C00
1C00
1C00
ENDCHAR
STARTCHAR 0460
ENCODING 1120
SWIDTH 900 0
DWIDTH 30 0
BBX 30 24 3 0
BITMAP
7007001C
70070018
70070038
60070038
E0070038
E0070070
E0070070
E0070070
E00F00E0
E01F00E0
E01F00E0
E03F01C0
603701C0
70770380
70670380
70E30700
71C38700
71838E00
73838C00
33039C00
3F01F800
3E01F000
3E01F000
1C00E000
ENDCHAR
STARTCHAR 0461
ENCODING 1121
SWIDTH 750 0
DWIDTH 25 0
BBX 25 18 2 0
BITMAP
601C0380
60180300
E0180700
E0380700
E0380600
E0380E00
E0380E00
E0381C00
E0781C00
E0783800
60D83800
61D87000
739C6000
731CE000
760DC000
3E0D8000
3C0F0000
380F0000
ENDCHAR
STARTCHAR 0462
ENCODING 1122
SWIDTH 570 0
DWIDTH 19 0
BBX 16 24 2 0
BITMAP
0300
0700
0700
0700
7FFC
FFFC
0E00
0E00
0E00
0C00
1FE0
1FF8
1FFE
1C1E
180E
3807
3807
3807
300E
300E
701C
71FC
7FF0
7FC0
ENDCHAR
STARTCHAR 0463
ENCODING 1123
SWIDTH 540 0
DWIDTH 18 0
BBX 15 21 1 0
BITMAP
0700
0700
0600
7FF0
7FF0
FFE0
0E00
0C00
1C00
1C00
1C00
1FF8
1FFC
380E
380E
3806
380E
380E
1C1C
1FF8
0FF0
ENDCHAR
STARTCHAR 0464
ENCODING 1124
SWIDTH 840 0
DWIDTH 28 0
BBX 28 24 2 0
BITMAP
0E001FE0
0E00FFF0
0E01F8F0
0C03C000
0C078000
1C0F0000
1C0E0000
1C1C0000
181C0000
381C0000
3FFFFE00
3FFFFE00
3FFFFE00
30380000
70380000
70380000
70380000
70380000
60380000
E03C0000
E01E0000
E00F0300
C00FFF00
C003FE00
ENDCHAR
STARTCHAR 0465
ENCODING 1125
SWIDTH 660 0
DWIDTH 22 0
BBX 22 18 1 0
BITMAP
0C03FC
1C07FC
1C0F0C
1C1C00
1C3800
183800
387000
387000
3FFFE0
3FFFE0
306000
70E000
706000
707000
607000
E07830
E03FF0
E01FE0
ENDCHAR
STARTCHAR 0466
ENCODING 1126
SWIDTH 600 0
DWIDTH 20 0
BBX 20 24 -2 0
BITMAP
000380
000780
000780
000F80
000D80
001D80
0039C0
0039C0
0071C0
0061C0
00FFC0
01FFC0
01FFE0
039CE0
031CE0
0718E0
0E1860
0E3860
1C3870
1C3870
383070
303070
707030
E07030
ENDCHAR
STARTCHAR 0467
ENCODING 1127
SWIDTH 510 0
DWIDTH 17 0
BBX 16 18 -1 0
BITMAP
0038
007C
007C
00FC
01CC
018C
038C
030E
07FE
07FE
0EE6
1CE6
18C6
38C7
31C7
71C7
E1C7
E183
ENDCHAR
STARTCHAR 0468
ENCODING 1128
SWIDTH 840 0
DWIDTH 28 0
BBX 24 24 2 0
BITMAP
0E0038
0E0078
0E0078
0C00F8
0C01D8
1C01D8
1C039C
1C039C
18071C
38061C
3FFFFC
3FFFFC
3FFFFC
3039CE
7031CE
70718E
70E186
70E386
61C386
E1C387
E38307
E30307
C70707
CE0703
ENDCHAR
STARTCHAR 0469
ENCODING 1129
SWIDTH 690 0
DWIDTH 23 0
BBX 21 18 1 0
BITMAP
0C03C0
1C03C0
1C07C0
1C0EC0
1C0EE0
181CE0
3818E0
383860
3FFFE0
3FFFE0
30E670
70E670
71CE70
718E70
638C30
E70C30
E70C38
EE1C38
ENDCHAR
STARTCHAR 046A
ENCODING 1130
SWIDTH 660 0
DWIDTH 22 0
BBX 24 24 -1 0
BITMAP
01FFFF
03FFFF
03FFFE
01C01C
01C038
00E070
0060E0
0071C0
0033C0
003B80
003F00
01FFE0
03FDF0
071C70
0E1C70
0E1830
1C3830
1C3838
383838
383838
703038
707038
E07038
E07038
ENDCHAR
STARTCHAR 046B
ENCODING 1131
SWIDTH 600 0
DWIDTH 20 0
BBX 20 18 -1 0
BITMAP
07FFF0
07FFF0
0700E0
0381C0
018380
01C700
00CE00
007C00
07FF00
0FF780
1C71C0
1C71C0
3861C0
3060C0
70E0C0
60E0C0
E0E0E0
C0C0E0
ENDCHAR
STARTCHAR 046C
ENCODING 1132
SWIDTH 900 0
DWIDTH 30 0
BBX 29 24 2 0
BITMAP
0E0FFFF8
0E0FFFF8
0E0FFFF8
0C0E0070
0C0700E0
1C0701C0
1C038380
1C038700
1801CE00
3801DC00
3FFFF800
3FFFFF00
3FFF6F80
3038E380
7038E1C0
7070E1C0
7060E1C0
70E0C1C0
60E1C1C0
E1C1C1C0
E1C1C1C0
E381C1C0
C38181C0
C70381C0
ENDCHAR
STARTCHAR 046D
ENCODING 1133
SWIDTH 780 0
DWIDTH 26 0
BBX 25 18 1 0
BITMAP
0C3FFF80
1C3FFF80
1C380700
1C180E00
1C0C1C00
180E3800
38067000
3807E000
3FFFF800
3FFFBC00
30E38C00
70C30E00
71C30E00
71870E00
63870600
E7070600
E7060600
EE060700
ENDCHAR
STARTCHAR 046E
ENCODING 1134
SWIDTH 510 0
DWIDTH 17 0
BBX 18 35 -1 -7
BITMAP
0061C0
0073C0
003700
001E00
00FE00
03FF80
0783C0
0201C0
0001C0
0001C0
0001C0
0001C0
000380
000780
003E00
07F800
07FC00
000F00
000700
000380
000380
000380
000380
000700
000F00
003E00
0FFC00
3FF000
FE0000
E00000
E00000
E00000
FFFC00
7FFC00
000C00
ENDCHAR
STARTCHAR 046F
ENCODING 1135
SWIDTH 420 0
DWIDTH 14 0
BBX 17 28 -2 -6
BITMAP
018780
00CF80
00EC00
007800
01FC00
07FE00
030F00
000700
000700
000700
000E00
007C00
01F000
01FC00
001C00
000E00
000E00
000E00
000E00
003C00
07F800
3FE000
7C0000
600000
E00000
704000
7FF800
1FF800
ENDCHAR
STARTCHAR 0470
ENCODING 1136
SWIDTH 720 0
DWIDTH 24 0
BBX 23 24 3 0
BITMAP
381C0E
381C0E
30180E
70380C
70381C
70381C
70381C
60301C
E07038
E07038
E07038
E07070
7060F0
70E1E0
3FFFC0
1FFF80
07FC00
00C000
01C000
01C000
01C000
018000
038000
038000
ENDCHAR
STARTCHAR 0471
ENCODING 1137
SWIDTH 690 0
DWIDTH 23 0
BBX 21 33 2 -8
BITMAP
000E00
000C00
001C00
001C00
001C00
001800
001800
383838
383838
383838
303030
303030
707030
707070
707070
606070
E0E070
E0E0E0
E0E0E0
E0C0E0
E0C1C0
71C380
79CF00
3FFE00
0FF800
018000
038000
038000
038000
030000
070000
070000
070000
ENDCHAR
STARTCHAR 0472
ENCODING 1138
SWIDTH 720 0
DWIDTH 24 0
BBX 21 24 2 0
BITMAP
007F00
01FFC0
07C7E0
0F00F0
0E0070
1C0070
380038
380038
700038
700038
700038
7FFFF8
7FFFF8
E00038
E00070
E00070
E00070
7000E0
7001E0
7001C0
380780
3E0F00
1FFE00
07F800
ENDCHAR
STARTCHAR 0473
ENCODING 1139
SWIDTH 540 0
DWIDTH 18 0
BBX 15 18 2 0
BITMAP
03F0
0FF8
1E3C
380E
700E
700E
E00E
E00E
FFFE
FFFE
C00E
C00C
C01C
E01C
E038
7070
7FE0
1FC0
ENDCHAR
STARTCHAR 0474
ENCODING 1140
SWIDTH 540 0
DWIDTH 18 0
BBX 20 24 3 0
BITMAP
E001F0
E003F0
E00380
E00700
600E00
600E00
601C00
701C00
703800
703800
707000
707000
706000
30E000
30C000
31C000
318000
3B8000
3B0000
3F0000
3E0000
3E0000
1C0000
1C0000
ENDCHAR
STARTCHAR 0475
ENCODING 1141
SWIDTH 420 0
DWIDTH 14 0
BBX 15 18 2 0
BITMAP
C00E
C01E
E038
E030
E070
E060
E0E0
E0C0
61C0
6180
6380
7300
7700
7600
7E00
7E00
3C00
3C00
ENDCHAR
STARTCHAR 0476
ENCODING 1142
SWIDTH 540 0
DWIDTH 18 0
BBX 20 32 3 0
BITMAP
39C000
38E000
18E000
1C7000
0C3000
061800
000000
000000
E001F0
E003F0
E00380
E00700
600E00
600E00
601C00
701C00
703800
703800
707000
707000
706000
30E000
30C000
31C000
318000
3B8000
3B0000
3F0000
3E0000
3E0000
1C0000
1C0000
ENDCHAR
STARTCHAR 0477
ENCODING 1143
SWIDTH 420 0
DWIDTH 14 0
BBX 15 26 2 0
BITMAP
E700
E380
6380
71C0
30C0
1860
0000
0000
C00E
C01E
E038
E030
E070
E060
E0E0
E0C0
61C0
6180
6380
7300
7700
7600
7E00
7E00
3C00
3C00
ENDCHAR
STARTCHAR 0478
ENCODING 1144
SWIDTH 1170 0
DWIDTH 39 0
BBX 39 32 2 -8
BITMAP
007F000000
01FFC00000
07E7E00000
0F00F00000
0E00700000
1C00700000
380038C00E
380038E01C
700038E01C
700038E038
700038E038
700038E070
7000386070
E0003860E0
E0007060C0
E0007071C0
E000707180
7000E07380
7001E07300
7001C03700
3807803600
3E1F003E00
1FFE003C00
07FC003C00
0000003800
0000003000
0000007000
000000E000
000000E000
000003C000
00001F8000
00001F0000
ENDCHAR
STARTCHAR 0479
ENCODING 1145
SWIDTH 1020 0
DWIDTH 34 0
BBX 34 26 2 -8
BITMAP
03F03801C0
0FF8180380
1E3C180300
381E1C0700
700E1C0E00
700E1C0E00
E00E1C1C00
E00E1C1C00
E00E0C3800
E00E0C3800
C00E0C7000
C00C0E7000
C01C0EE000
E01C0EC000
E03807C000
70F0078000
7FE0078000
1FC0070000
0000070000
00000E0000
00000E0000
00001C0000
0000380000
0000780000
0003F00000
0003C00000
ENDCHAR
STARTCHAR 047A
ENCODING 1146
SWIDTH 720 0
DWIDTH 24 0
BBX 22 28 2 -2
BITMAP
000400
001E00
007F00
01FFC0
07FFE0
0F1CF0
0E0078
1C0038
380038
380038
70001C
70001C
70001C
700038
600038
E00038
E00038
E00038
600070
700070
7000E0
7801E0
3843C0
1FEF80
0FFF00
07FC00
01E000
01C000
ENDCHAR
STARTCHAR 047B
ENCODING 1147
SWIDTH 570 0
DWIDTH 19 0
BBX 16 21 2 -1
BITMAP
01E0
03F0
0FFC
1FFE
380E
7006
7007
E007
E007
E007
C006
C00E
C00E
C00E
E01C
E03C
7778
7FF0
1FC0
0700
0200
ENDCHAR
STARTCHAR 047C
ENCODING 1148
SWIDTH 930 0
DWIDTH 31 0
BBX 29 34 2 0
BITMAP
0003F000
0007FE00
00061F80
00066300
0000F000
00007000
00002000
0000C000
00000000
00000000
00FC0FC0
03FE3FE0
07CE1DF0
0F000070
0E000070
1C000038
3C000038
38000038
38000038
70000038
70000030
70000070
70000070
70070070
E0060070
E00E00E0
E00E00E0
E00E01C0
700E01C0
701C0380
781C0780
3C3F0F00
3FF7FE00
0FE3F800
ENDCHAR
STARTCHAR 047D
ENCODING 1149
SWIDTH 780 0
DWIDTH 26 0
BBX 23 29 2 0
BITMAP
001F00
003FE0
0060F8
006618
000700
000300
000300
000E00
000800
000000
000000
07E1F0
0FE3F8
1E411C
38001C
70000E
70000E
E0000E
E0000E
E0000C
E0301C
C0701C
C0701C
C07038
E06038
E06070
F0F0F0
7FFFE0
3FBF80
ENDCHAR
STARTCHAR 047E
ENCODING 1150
SWIDTH 900 0
DWIDTH 30 0
BBX 30 30 3 0
BITMAP
003FFE00
003FFE00
00318400
00200000
00000000
00000000
7007001C
70070018
70070038
60070038
E0070038
E0070070
E0070070
E0070070
E00F00E0
E01F00E0
E01F00E0
E03F01C0
603701C0
70770380
70670380
70E30700
71C38700
71838E00
73838C00
33039C00
3F01F800
3E01F000
3E01F000
1C00E000
ENDCHAR
STARTCHAR 047F
ENCODING 1151
SWIDTH 750 0
DWIDTH 25 0
BBX 25 24 2 0
BITMAP
01FFF800
01FFF000
00843000
00842000
00000000
00000000
601C0380
60180300
E0180700
E0380700
E0380600
E0380E00
E0380E00
E0381C00
E0781C00
E0783800
60D83800
61D87000
739C6000
731CE000
760DC000
3E0D8000
3C0F0000
380F0000
ENDCHAR
STARTCHAR 0480
ENCODING 1152
SWIDTH 570 0
DWIDTH 19 0
BBX 19 32 2 -8
BITMAP
007F80
01FFE0
03E1C0
078000
0E0000
1E0000
1C0000
380000
380000
700000
700000
700000
700000
E00000
E00000
E00000
E00000
700000
700000
700000
380000
3E1000
1FE000
07E000
00E000
00E000
00E000
00C000
01C000
01C000
01C000
018000
ENDCHAR
STARTCHAR 0481
ENCODING 1153
SWIDTH 450 0
DWIDTH 15 0
BBX 13 26 2 -8
BITMAP
03F8
0FF8
1E18
3800
7800
7000
E000
E000
E000
E000
C000
C000
C000
E000
E000
7000
7F80
1F80
0380
0380
0300
0700
0700
0700
0700
0600
ENDCHAR
STARTCHAR 0482
ENCODING 1154
SWIDTH 600 0
DWIDTH 20 0
BBX 16 21 2 0
BITMAP
0004
000E
000C
061C
07B8
03F0
00F0
007C
00FF
00C7
41C1
E380
7B00
3F00
0F00
0FC0
0CF0
1C70
3800
3000
3000
ENDCHAR
STARTCHAR 0483
ENCODING 1155
SWIDTH 0 0
DWIDTH 0 0
BBX 12 5 -13 19
BITMAP
0030
0070
FFF0
E000
C000
ENDCHAR
STARTCHAR 0484
ENCODING 1156
SWIDTH 0 0
DWIDTH 0 0
BBX 12 4 -13 20
BITMAP
07E0
3FF0
F830
8030
ENDCHAR
STARTCHAR 0485
ENCODING 1157
SWIDTH 0 0
DWIDTH 0 0
BBX 4 6 -9 20
BITMAP
60
E0
C0
C0
70
10
ENDCHAR
STARTCHAR 0486
ENCODING 1158
SWIDTH 0 0
DWIDTH 0 0
BBX 4 6 -9 20
BITMAP
60
70
30
30
60
80
ENDCHAR
STARTCHAR 0488
ENCODING 1160
SWIDTH 960 0
DWIDTH 32 0
BBX 31 28 1 -5
BITMAP
0007C000
000EC000
00086000
00000000
06000000
1F8003E0
10800230
10800610
00000000
00000000
00000000
00000000
30000010
FC00007C
84000042
860000C2
00000000
00000000
00000000
00000000
00000000
1F8003E0
11800230
10800610
00000000
00078000
000FC000
00086000
ENDCHAR
STARTCHAR 0489
ENCODING 1161
SWIDTH 930 0
DWIDTH 31 0
BBX 30 30 1 -6
BITMAP
00018000
00030000
00030000
04030000
0C070000
060000E0
060003C0
03000700
03000200
00000000
00000000
00000000
00000000
80000000
F8000070
3800007C
08000004
00000000
00000000
00000000
00000000
00000200
01800700
07800300
0E000180
18030180
00030080
00030000
00020000
00060000
ENDCHAR
STARTCHAR 048A
ENCODING 1162
SWIDTH 690 0
DWIDTH 23 0
BBX 22 37 1 -6
BITMAP
006038
006030
007070
007FE0
003FC0
000000
000000
07001C
07003C
07007C
06007C
0E00FC
0E01D8
0E03B8
0C0738
0C0738
1C0E30
1C1C30
1C3870
183070
187070
38E060
39C060
3B80E0
3380E0
3700E0
7E00C0
7C00C0
7801C0
7801F0
F001F0
000070
0000E0
0000E0
0001C0
0001C0
000380
ENDCHAR
STARTCHAR 048B
ENCODING 1163
SWIDTH 570 0
DWIDTH 19 0
BBX 16 31 2 -6
BITMAP
0603
0607
070E
03FC
00F0
0000
0000
3807
3807
3807
3807
3006
700E
700E
700E
600C
601C
E01C
E01C
E03C
E078
E078
E1F8
FFBE
7E3E
000E
000C
001C
0018
0038
0030
ENDCHAR
STARTCHAR 048C
ENCODING 1164
SWIDTH 540 0
DWIDTH 18 0
BBX 15 24 2 0
BITMAP
0E00
0E00
0E00
7FE0
7FE0
7FE0
1C00
1C00
1800
3800
3FC0
3FF0
3FF8
303C
701C
700C
700E
700C
601C
E01C
E038
E3F8
FFE0
FF80
ENDCHAR
STARTCHAR 048D
ENCODING 1165
SWIDTH 510 0
DWIDTH 17 0
BBX 13 25 2 0
BITMAP
0E00
0C00
0C00
1C00
7FC0
FFC0
1800
3800
3800
3800
3800
3000
7000
7000
7000
7FE0
7FF0
E038
E038
E018
E038
E038
F070
7FE0
3FC0
ENDCHAR
STARTCHAR 048E
ENCODING 1166
SWIDTH 540 0
DWIDTH 18 0
BBX 17 24 2 0
BITMAP
0FF800
0FFE00
0FFF00
0E0700
0C0380
1C0380
1C0380
1C0380
180380
38E700
386700
387E00
3FFC00
3FF800
7F9800
701C00
700800
700000
600000
E00000
E00000
E00000
E00000
C00000
ENDCHAR
STARTCHAR 048F
ENCODING 1167
SWIDTH 570 0
DWIDTH 19 0
BBX 19 26 -1 -8
BITMAP
031F00
073F80
0763C0
07C1C0
0780C0
0700E0
0F00E0
0E00E0
0E00C0
0C01C0
0C01C0
1C01C0
1C2380
1C7380
1E3700
3F3F00
3BFE00
39FC00
380C00
300600
700600
700000
700000
600000
600000
E00000
ENDCHAR
STARTCHAR 0490
ENCODING 1168
SWIDTH 450 0
DWIDTH 15 0
BBX 17 29 2 0
BITMAP
000180
000180
000380
000380
000380
0FFF00
0FFF00
0FFF00
0C0000
0C0000
1C0000
1C0000
1C0000
180000
380000
380000
380000
380000
300000
700000
700000
700000
700000
600000
E00000
E00000
E00000
C00000
C00000
ENDCHAR
STARTCHAR 0491
ENCODING 1169
SWIDTH 360 0
DWIDTH 12 0
BBX 14 23 1 0
BITMAP
001C
001C
001C
001C
0018
0FF8
1FF8
1C00
1C00
1C00
1800
3800
3800
3800
3000
3000
7000
7000
7000
6000
E000
E000
E000
ENDCHAR
STARTCHAR 0492
ENCODING 1170
SWIDTH 450 0
DWIDTH 15 0
BBX 17 24 1 0
BITMAP
07FF80
07FF80
07FF80
060000
0E0000
0E0000
0E0000
0E0000
0C0000
1C0000
1C0000
7FE000
FFE000
180000
380000
380000
380000
380000
300000
700000
700000
700000
600000
600000
ENDCHAR
STARTCHAR 0493
ENCODING 1171
SWIDTH 360 0
DWIDTH 12 0
BBX 14 18 0 0
BITMAP
07FC
0FFC
0E00
0E00
0E00
0C00
1C00
1C00
7FC0
FFC0
1800
3800
3800
3800
3000
7000
7000
7000
ENDCHAR
STARTCHAR 0494
ENCODING 1172
SWIDTH 600 0
DWIDTH 20 0
BBX 16 32 2 -8
BITMAP
0FFF
0FFF
0FFF
0E00
0C00
1C00
1C00
1C00
1800
3800
3800
3FE0
3FF0
30F8
703C
701E
700E
700E
600E
E00E
E00E
E00E
C00E
C00E
000E
001C
001C
0038
0078
C1F0
FFE0
FF80
ENDCHAR
STARTCHAR 0495
ENCODING 1173
SWIDTH 480 0
DWIDTH 16 0
BBX 13 26 1 -8
BITMAP
0FF8
1FF8
1C00
1C00
1C00
1800
3800
3800
3FC0
3FE0
30F0
7078
7038
7038
6038
E038
E038
E038
0038
0030
0070
00F0
00E0
63C0
7F80
7F00
ENDCHAR
STARTCHAR 0496
ENCODING 1174
SWIDTH 810 0
DWIDTH 27 0
BBX 30 30 -1 -6
BITMAP
0700C03C
0700C078
0381C0F0
0381C1E0
01C1C1C0
01C18380
00E18700
00E38E00
00739C00
0033B800
003B7000
001FE000
003FE000
00777000
00E77000
01C63800
038E3800
078E1C00
0F0E1C00
1E0C0E00
1C0C0E00
381C0700
701C07E0
E01C03C0
000001C0
000001C0
000001C0
00000180
00000180
00000380
ENDCHAR
STARTCHAR 0497
ENCODING 1175
SWIDTH 810 0
DWIDTH 27 0
BBX 28 24 0 -6
BITMAP
3F0381F0
3F8383F0
03838780
01C30E00
01C31C00
01C71C00
00C73800
01C73800
01FFF800
01FFF800
01CE3000
018E3000
038C3000
038C3800
070C3800
0E1C3C00
FC1C1FC0
F8180FC0
00000180
00000380
00000380
00000380
00000300
00000300
ENDCHAR
STARTCHAR 0498
ENCODING 1176
SWIDTH 510 0
DWIDTH 17 0
BBX 17 31 0 -7
BITMAP
01FE00
07FF00
0F8780
040380
000180
000180
000180
000380
000380
000F00
007E00
07F000
0FF800
001E00
000E00
000700
000700
000700
000700
000E00
001E00
E03C00
FFF800
7FE000
030000
018000
018000
018000
038000
1F0000
1F0000
ENDCHAR
STARTCHAR 0499
ENCODING 1177
SWIDTH 420 0
DWIDTH 14 0
BBX 14 25 0 -7
BITMAP
0FF0
1FF8
1C3C
001C
001C
001C
0038
01F0
0FC0
0FE0
0070
0030
0038
0038
0070
C0F0
FFE0
7F80
0600
0600
0700
0700
0700
3E00
3C00
ENDCHAR
STARTCHAR 049A
ENCODING 1178
SWIDTH 600 0
DWIDTH 20 0
BBX 19 30 2 -6
BITMAP
0E00E0
0E01C0
0E0380
0E0700
0C0E00
1C1C00
1C3800
1C7000
18E000
39C000
3B8000
3F0000
3F0000
338000
738000
71C000
71C000
70E000
607000
E07000
E03800
E01C00
E01F00
C00F00
000700
000700
000700
000600
000E00
000E00
ENDCHAR
STARTCHAR 049B
ENCODING 1179
SWIDTH 510 0
DWIDTH 17 0
BBX 16 24 1 -6
BITMAP
0C07
1C0E
1C1C
1C38
1870
18E0
39C0
3B80
3F00
3700
3700
7380
71C0
71C0
60E0
E070
E07E
E03C
000C
001C
001C
001C
0018
0018
ENDCHAR
STARTCHAR 049C
ENCODING 1180
SWIDTH 570 0
DWIDTH 19 0
BBX 19 24 2 0
BITMAP
0E00E0
0E01C0
0E0380
0E0700
0C6E00
1C7C00
1CF800
1CF000
18E000
39C000
3BC000
3F8000
3F8000
378000
738000
73C000
73C000
73E000
637000
E07000
E03800
E01C00
C01C00
C00E00
ENDCHAR
STARTCHAR 049D
ENCODING 1181
SWIDTH 450 0
DWIDTH 15 0
BBX 16 18 1 0
BITMAP
0C07
1C0E
1DDC
1DB8
19F0
19E0
39C0
3B80
3F00
3700
3700
7380
77C0
77C0
66E0
E670
E670
E038
ENDCHAR
STARTCHAR 049E
ENCODING 1182
SWIDTH 540 0
DWIDTH 18 0
BBX 19 24 2 0
BITMAP
0E00E0
0E01C0
0E0380
7FC700
7F8E00
7F9C00
1C3800
1C7000
18E000
39C000
3B8000
3F0000
3F0000
370000
738000
71C000
71C000
70E000
607000
E07000
E03800
E01C00
C01C00
C00E00
ENDCHAR
STARTCHAR 049F
ENCODING 1183
SWIDTH 450 0
DWIDTH 15 0
BBX 16 25 1 0
BITMAP
0700
0700
0600
3FF0
3FE0
0E00
0E00
0C07
1C0E
1C1C
1C38
1870
18E0
39C0
3B80
3F00
3700
3780
7380
71C0
71E0
60E0
E070
E078
E038
ENDCHAR
STARTCHAR 04A0
ENCODING 1184
SWIDTH 630 0
DWIDTH 21 0
BBX 21 24 3 0
BITMAP
FF8078
FF00F0
FF01E0
0703C0
070780
070F00
061E00
0E3C00
0E7800
0EF000
0DE000
0FC000
1F8000
1DC000
1CE000
18E000
387000
383800
383800
381C00
301E00
700E00
700700
700700
ENDCHAR
STARTCHAR 04A1
ENCODING 1185
SWIDTH 540 0
DWIDTH 18 0
BBX 18 18 2 0
BITMAP
FF03C0
FF0780
070F00
061E00
063C00
0E7800
0EF000
0FC000
0F8000
1F8000
1DC000
1CE000
1CE000
187000
383800
383800
381C00
300E00
ENDCHAR
STARTCHAR 04A2
ENCODING 1186
SWIDTH 660 0
DWIDTH 22 0
BBX 21 30 2 -6
BITMAP
0E0038
0E0038
0E0030
0E0070
0C0070
1C0070
1C0060
1C0060
1800E0
3800E0
3FFFE0
3FFFC0
3FFFC0
3001C0
7001C0
7001C0
700180
700380
600380
E00380
E00300
E00300
C007E0
C007E0
0000C0
0001C0
0001C0
0001C0
0001C0
000180
ENDCHAR
STARTCHAR 04A3
ENCODING 1187
SWIDTH 600 0
DWIDTH 20 0
BBX 18 24 1 -6
BITMAP
0C01C0
1C01C0
1C0180
1C0380
1C0380
180380
380380
380300
3FFF00
3FFF00
300700
700700
700600
700E00
600E00
E00E00
E00F80
E00F80
000300
000700
000700
000700
000700
000600
ENDCHAR
STARTCHAR 04A4
ENCODING 1188
SWIDTH 750 0
DWIDTH 25 0
BBX 26 24 2 0
BITMAP
0E003FC0
0E003FC0
0E003FC0
0C007000
0C007000
1C007000
1C006000
1C00E000
1800E000
3800E000
3FFFE000
3FFFC000
3FFFC000
3001C000
7001C000
7001C000
70018000
70038000
60038000
E0038000
E0030000
E0070000
C0070000
C0070000
ENDCHAR
STARTCHAR 04A5
ENCODING 1189
SWIDTH 660 0
DWIDTH 22 0
BBX 23 18 1 0
BITMAP
0C01FE
1C01FE
1C0180
1C0380
1C0380
180380
380380
380300
3FFF00
3FFF00
300700
700700
700600
700E00
600E00
E00E00
E00C00
E00C00
ENDCHAR
STARTCHAR 04A6
ENCODING 1190
SWIDTH 990 0
DWIDTH 33 0
BBX 28 32 2 -8
BITMAP
0FFFF000
0FFFF000
0FFFF000
0E007000
0C006000
1C00E000
1C00E000
1C00E000
1800E000
3800C000
3801C000
3801FF00
3801FF80
3001C7E0
700181E0
700380F0
70038070
70038070
60038030
E0030030
E0070030
E0070070
E0070070
C0060070
00000070
000000E0
000000E0
000001E0
000003C0
00060F80
0007FF00
0007FC00
ENDCHAR
STARTCHAR 04A7
ENCODING 1191
SWIDTH 810 0
DWIDTH 27 0
BBX 24 26 1 -8
BITMAP
0FFF80
1FFF80
1C0380
1C0380
1C0300
180300
380700
380700
3807F8
3007FC
300E1E
700E0F
700E07
700E07
600C07
E01C07
E01C07
E01C07
000007
000006
00000E
00001E
00001C
000C78
000FF0
000FE0
ENDCHAR
STARTCHAR 04A8
ENCODING 1192
SWIDTH 720 0
DWIDTH 24 0
BBX 21 25 2 -1
BITMAP
007F00
01FF00
07E300
0F0000
0E0000
1C07E0
380FF0
381E70
701C38
703838
703838
707038
607038
E07038
E07070
E07070
607070
7070E0
7071E0
7871C0
383B80
3E3F00
1FFE00
07FFE0
0007E0
ENDCHAR
STARTCHAR 04A9
ENCODING 1193
SWIDTH 570 0
DWIDTH 19 0
BBX 16 19 2 -1
BITMAP
07F0
0FE0
3E00
3800
703E
707F
E0E7
E1C3
E1C3
C183
C387
C387
C38E
E18E
E1DC
71F8
7FF0
1FFE
003E
ENDCHAR
STARTCHAR 04AA
ENCODING 1194
SWIDTH 570 0
DWIDTH 19 0
BBX 19 31 2 -7
BITMAP
007F80
01FFE0
03E1C0
078000
0E0000
1C0000
1C0000
380000
380000
700000
700000
700000
700000
E00000
E00000
E00000
E00000
700000
700000
700000
380000
3E0600
1FFE00
07FC00
00C000
00C000
00C000
00C000
00C000
07C000
078000
ENDCHAR
STARTCHAR 04AB
ENCODING 1195
SWIDTH 450 0
DWIDTH 15 0
BBX 13 25 2 -7
BITMAP
03F8
0FF8
1E18
3800
7800
7000
E000
E000
E000
E000
C000
C000
C000
E000
E000
7060
7FE0
1FC0
0C00
0600
0600
0600
0600
3E00
7C00
ENDCHAR
STARTCHAR 04AC
ENCODING 1196
SWIDTH 480 0
DWIDTH 16 0
BBX 17 30 3 -6
BITMAP
FFFF80
FFFF00
FFFF00
038000
038000
038000
038000
030000
070000
070000
070000
070000
060000
0E0000
0E0000
0E0000
0E0000
1C0000
1C0000
1C0000
1C0000
180000
3F0000
3F0000
060000
060000
0E0000
0E0000
0E0000
0C0000
ENDCHAR
STARTCHAR 04AD
ENCODING 1197
SWIDTH 870 0
DWIDTH 29 0
BBX 27 24 1 -6
BITMAP
0C7C1F00
1CFE3F80
1D8E73C0
1F06C1C0
1E0781C0
1C0701C0
380701C0
380601C0
380E01C0
300E0180
300E0380
700C0380
701C0380
701C0300
601C0300
E01C0700
E01803E0
E03803C0
000000C0
000001C0
000001C0
000001C0
00000180
00000380
ENDCHAR
STARTCHAR 04AE
ENCODING 1198
SWIDTH 480 0
DWIDTH 16 0
BBX 17 24 3 0
BITMAP
E00380
E00700
600E00
700E00
701C00
703800
303800
387000
38E000
18E000
19C000
1F8000
1F8000
0F0000
0E0000
0E0000
0C0000
1C0000
1C0000
1C0000
1C0000
180000
380000
380000
ENDCHAR
STARTCHAR 04AF
ENCODING 1199
SWIDTH 450 0
DWIDTH 15 0
BBX 15 26 2 -8
BITMAP
C00E
E01C
E01C
E038
E030
E070
E0E0
60E0
61C0
61C0
7380
7300
7700
7600
3E00
3C00
3C00
3800
3800
3000
7000
7000
7000
7000
6000
E000
ENDCHAR
STARTCHAR 04B0
ENCODING 1200
SWIDTH 480 0
DWIDTH 16 0
BBX 18 24 2 0
BITMAP
7001C0
700380
300700
380700
380E00
381C00
181C00
1C3800
1C7000
0C7000
0CE000
0FC000
0FC000
078000
070000
070000
FFF000
FFF000
0E0000
0E0000
0E0000
0C0000
1C0000
1C0000
ENDCHAR
STARTCHAR 04B1
ENCODING 1201
SWIDTH 450 0
DWIDTH 15 0
BBX 17 26 0 -8
BITMAP
300380
380700
380700
380E00
380C00
381C00
383800
183800
187000
187000
1CE000
1CC000
1DC000
1D8000
0F8000
0F0000
0F0000
0E0000
FFE000
FFE000
1C0000
1C0000
1C0000
1C0000
180000
380000
ENDCHAR
STARTCHAR 04B2
ENCODING 1202
SWIDTH 570 0
DWIDTH 19 0
BBX 21 30 -1 -6
BITMAP
070038
070070
0300E0
0380E0
0381C0
018380
01C700
00CE00
00CE00
00FC00
007800
007000
00F000
01F800
019800
039C00
071C00
0E0C00
0C0E00
1C0E00
380600
700700
E007C0
E003C0
0001C0
0001C0
000180
000180
000380
000380
ENDCHAR
STARTCHAR 04B3
ENCODING 1203
SWIDTH 510 0
DWIDTH 17 0
BBX 17 24 0 -6
BITMAP
0C0380
0E0700
0E0700
070E00
071C00
033800
03F000
01E000
01E000
01C000
03E000
076000
0E7000
1C3000
3C3800
383800
701F00
E01F00
000600
000E00
000E00
000E00
000C00
000C00
ENDCHAR
STARTCHAR 04B4
ENCODING 1204
SWIDTH 780 0
DWIDTH 26 0
BBX 23 30 3 -6
BITMAP
FFFF8E
FFFF0E
FFFF0E
03800C
03801C
03801C
03801C
03001C
070018
070038
070038
070038
060038
0E0030
0E0070
0E0070
0E0070
1C0060
1C00E0
1C00E0
1C00E0
1800E0
3FFFF8
3FFFF8
000038
000030
000030
000070
000070
000070
ENDCHAR
STARTCHAR 04B5
ENCODING 1205
SWIDTH 630 0
DWIDTH 21 0
BBX 19 24 2 -6
BITMAP
FFF8E0
FFF8C0
0600C0
0E01C0
0E01C0
0E01C0
0C0180
1C0380
1C0380
1C0380
1C0380
180700
380700
380F00
381F00
1C3700
1FE7C0
0FC3C0
0001C0
0001C0
000180
000380
000380
000380
ENDCHAR
STARTCHAR 04B6
ENCODING 1206
SWIDTH 630 0
DWIDTH 21 0
BBX 17 30 4 -6
BITMAP
380180
380380
300380
700380
700300
700700
700700
600700
E00700
E00600
E00E00
E00E00
E03E00
FFFE00
7FEC00
0F1C00
001C00
001C00
001C00
001800
003800
003800
003E00
003E00
000E00
000E00
000E00
000C00
001C00
001C00
ENDCHAR
STARTCHAR 04B7
ENCODING 1207
SWIDTH 540 0
DWIDTH 18 0
BBX 14 24 3 -6
BITMAP
700C
601C
E01C
E01C
E01C
C038
C038
C078
E0F8
FFB8
7F30
3C70
0070
0070
0060
00E0
00FC
00F8
0038
0038
0038
0030
0070
0070
ENDCHAR
STARTCHAR 04B8
ENCODING 1208
SWIDTH 630 0
DWIDTH 21 0
BBX 17 24 4 0
BITMAP
380180
380380
300380
700380
700300
700700
700700
600700
E18700
E18600
E38E00
E30E00
E33E00
7FFE00
7FEC00
0F1C00
061C00
061C00
061C00
061800
0C3800
003800
003800
003000
ENDCHAR
STARTCHAR 04B9
ENCODING 1209
SWIDTH 540 0
DWIDTH 18 0
BBX 14 18 3 0
BITMAP
700C
601C
E01C
E01C
E01C
C638
C638
C678
E6F8
F7B8
7F30
3C70
0C70
0C70
1860
18E0
00E0
00E0
ENDCHAR
STARTCHAR 04BA
ENCODING 1210
SWIDTH 630 0
DWIDTH 21 0
BBX 17 24 2 0
BITMAP
0E0000
0E0000
0E0000
0E0000
0C0000
1C0000
1C0000
1C0000
1C0000
39FE00
3FFF00
3E0780
380380
300380
700380
700380
700300
700700
600700
E00700
E00600
E00E00
E00E00
C00E00
ENDCHAR
STARTCHAR 04BB
ENCODING 1211
SWIDTH 570 0
DWIDTH 19 0
BBX 16 25 1 0
BITMAP
0700
0700
0600
0E00
0E00
0E00
0E00
0C7C
1CFF
1D87
1F07
1E03
1C03
3C07
3807
3807
3006
300E
700E
700E
700E
600C
E01C
E01C
E01C
ENDCHAR
STARTCHAR 04BC
ENCODING 1212
SWIDTH 750 0
DWIDTH 25 0
BBX 23 24 2 0
BITMAP
0007F0
003FFC
007E7C
00F00E
01E00E
03C00E
03800E
67000E
E7001E
E7007C
EE0FF8
FFFFE0
7FFF00
0E0000
0E0000
0E0000
0E0000
0E0000
0E0000
0F0000
078000
03C0E0
01FFE0
00FFC0
ENDCHAR
STARTCHAR 04BD
ENCODING 1213
SWIDTH 570 0
DWIDTH 19 0
BBX 18 18 1 0
BITMAP
003F00
00FF80
01E3C0
03C1C0
0381C0
6701C0
E70380
EE0F00
7FFE00
3FF800
0E0000
0E0000
0E0000
0E0000
0E0000
078300
03FF00
01FE00
ENDCHAR
STARTCHAR 04BE
ENCODING 1214
SWIDTH 750 0
DWIDTH 25 0
BBX 23 30 2 -6
BITMAP
0007F0
003FFC
007E7C
00F00E
01E00E
03C00E
03800E
67000E
E7001E
E7007C
EE0FF8
FFFFE0
7FFF00
0E0000
0E0000
0E0000
0E0000
0E0000
0E0000
0F0000
078000
03C0E0
01FFE0
00FFC0
003800
003800
003800
003800
003000
007000
ENDCHAR
STARTCHAR 04BF
ENCODING 1215
SWIDTH 570 0
DWIDTH 19 0
BBX 18 24 1 -6
BITMAP
003F00
00FF80
01E3C0
03C1C0
0381C0
6701C0
E70380
EE0F00
7FFE00
7FF800
0E0000
0E0000
0E0000
0E0000
0E0000
078300
03FF00
01FE00
00E000
00E000
00E000
00E000
00C000
01C000
ENDCHAR
STARTCHAR 04C0
ENCODING 1216
SWIDTH 270 0
DWIDTH 9 0
BBX 7 24 2 0
BITMAP
0E
0E
0E
0C
0C
1C
1C
1C
18
38
38
38
38
30
70
70
70
60
60
E0
E0
E0
C0
C0
ENDCHAR
STARTCHAR 04C1
ENCODING 1217
SWIDTH 750 0
DWIDTH 25 0
BBX 30 31 -1 0
BITMAP
00060300
00060700
00070E00
0007FC00
0000F000
00000000
00000000
0700C03C
0700C078
0381C0F0
0381C1E0
01C1C1C0
01C18380
00E18700
00E38E00
00739C00
0033B800
003B7000
001FE000
003FE000
00777000
00E77000
01C63800
038E3800
078E1C00
0F0E1C00
1E0C0E00
1C0C0E00
381C0700
701C0700
E01C0380
ENDCHAR
STARTCHAR 04C2
ENCODING 1218
SWIDTH 810 0
DWIDTH 27 0
BBX 28 25 0 0
BITMAP
00180E00
001C0C00
001E3C00
000FF800
0003E000
00000000
00000000
3F0381F0
3F8383F0
03838780
01C30E00
01C31C00
01C71C00
00C73800
01C73800
01FFF800
01FFF800
01CE3000
018E3000
038C3000
038C3800
070C3800
0E1C3C00
FC1C1F80
F8180F80
ENDCHAR
STARTCHAR 04C3
ENCODING 1219
SWIDTH 600 0
DWIDTH 20 0
BBX 19 32 2 -8
BITMAP
0E00E0
0E01C0
0E0380
0E0700
0C0E00
1C1C00
1C3800
1C7000
18E000
39C000
3B8000
3F8000
3FF800
3FFC00
701E00
700E00
700700
700700
600700
E00700
E00700
E00700
E00700
C00700
000700
000E00
000E00
001C00
003C00
40F800
7FF000
7FC000
ENDCHAR
STARTCHAR 04C4
ENCODING 1220
SWIDTH 510 0
DWIDTH 17 0
BBX 16 26 1 -8
BITMAP
0C07
1C0E
1C1C
1C38
1C70
18E0
39C0
3B80
3FC0
3FF0
3070
7038
7038
701C
601C
E01C
E01C
E01C
0018
0038
0038
0070
00F0
21E0
3FC0
3F80
ENDCHAR
STARTCHAR 04C5
ENCODING 1221
SWIDTH 630 0
DWIDTH 21 0
BBX 23 30 -1 -6
BITMAP
001FFE
001FFC
003FFC
00381C
00381C
00301C
007018
007038
006038
00E038
00E030
00E070
00C070
01C070
01C070
018060
0380E0
0380E0
0700E0
0700E0
0E00C0
1E01C0
FC01F8
F801F0
000070
000060
0000E0
0001C0
0001C0
000380
ENDCHAR
STARTCHAR 04C6
ENCODING 1222
SWIDTH 540 0
DWIDTH 18 0
BBX 19 24 -2 -6
BITMAP
000FE0
003FE0
0078C0
0071C0
00E1C0
00C1C0
01C1C0
01C180
018380
038380
038380
030300
070300
060700
0E0700
1C0700
FC07C0
F80FC0
000180
000380
000300
000700
000600
000E00
ENDCHAR
STARTCHAR 04C7
ENCODING 1223
SWIDTH 660 0
DWIDTH 22 0
BBX 21 32 2 -8
BITMAP
0E0038
0E0030
0E0070
0E0070
0C0070
1C0070
1C0060
1C00E0
1800E0
3800E0
3FFFE0
3FFFC0
3FFFC0
3001C0
7001C0
7001C0
700180
700380
600380
E00380
E00300
E00700
E00700
C00700
000600
000E00
000E00
001C00
003C00
60F800
7FF000
7FC000
ENDCHAR
STARTCHAR 04C8
ENCODING 1224
SWIDTH 570 0
DWIDTH 19 0
BBX 18 26 1 -8
BITMAP
0C01C0
1C01C0
1C0180
1C0380
1C0380
180380
380380
380300
3FFF00
3FFF00
300700
700700
700600
700E00
600E00
E00E00
E00C00
E00C00
001C00
001C00
001800
003800
007800
10F000
1FE000
1FC000
ENDCHAR
STARTCHAR 04C9
ENCODING 1225
SWIDTH 660 0
DWIDTH 22 0
BBX 21 30 2 -6
BITMAP
0E0038
0E0030
0E0070
0E0070
0C0070
1C0070
1C0060
1C00E0
1800E0
3800E0
3FFFE0
3FFFC0
3FFFC0
3001C0
7001C0
700180
700180
700380
600380
E00380
E00300
E00700
E007E0
C007C0
0001C0
000180
000380
000300
000700
000F00
ENDCHAR
STARTCHAR 04CA
ENCODING 1226
SWIDTH 600 0
DWIDTH 20 0
BBX 18 24 1 -6
BITMAP
0C01C0
1C01C0
1C0180
1C0380
1C0380
180380
380380
380300
3FFF00
3FFF00
300700
700700
700600
700E00
600E00
E00E00
E00F80
E00F80
000300
000700
000600
000E00
000C00
001C00
ENDCHAR
STARTCHAR 04CB
ENCODING 1227
SWIDTH 630 0
DWIDTH 21 0
BBX 17 30 4 -6
BITMAP
380380
300380
700380
700380
700300
700700
600700
E00700
E00600
E00E00
E00E00
E00E00
E03E00
FFFC00
7FFC00
1C1C00
001C00
001C00
001800
003800
003800
003800
01F800
01F000
018000
038000
038000
038000
030000
030000
ENDCHAR
STARTCHAR 04CC
ENCODING 1228
SWIDTH 570 0
DWIDTH 19 0
BBX 15 24 3 -6
BITMAP
700E
700E
700E
600C
601C
E01C
E03C
E07C
E0F8
7FF8
7FB8
1E38
0030
0070
0070
0070
03F0
03E0
0380
0380
0300
0700
0700
0700
ENDCHAR
STARTCHAR 04CD
ENCODING 1229
SWIDTH 840 0
DWIDTH 28 0
BBX 27 30 1 -6
BITMAP
078003E0
078003E0
07C007C0
07C006C0
0FC00FC0
0EC00DC0
0EC01DC0
0CC01980
0CC03B80
1CC03380
1CE07380
1CE0E380
18E0C300
1861C700
38618700
38638700
38630700
30670600
30760E00
707E0E00
703C0E00
70380C00
60380F80
E0301F80
00000300
00000700
00000E00
00000E00
00001C00
00001C00
ENDCHAR
STARTCHAR 04CE
ENCODING 1230
SWIDTH 690 0
DWIDTH 23 0
BBX 21 24 1 -6
BITMAP
0E0078
1E0078
1F00F8
1F01F0
1B01B0
1B03B0
3B0370
330770
330660
338C60
739CE0
7198E0
61B8E0
61B0C0
61F0C0
E1E1C0
E1C1F0
C1C1F0
000060
0000E0
0000C0
0001C0
0001C0
000380
ENDCHAR
STARTCHAR 04CF
ENCODING 1231
SWIDTH 270 0
DWIDTH 9 0
BBX 7 24 2 0
BITMAP
0E
0E
0E
0C
0C
1C
1C
1C
18
38
38
38
38
30
70
70
70
60
60
E0
E0
E0
C0
C0
ENDCHAR
STARTCHAR 04D0
ENCODING 1232
SWIDTH 540 0
DWIDTH 18 0
BBX 22 31 -2 0
BITMAP
00301C
003038
003878
001FF0
000780
000000
000000
000700
000F00
000F00
001F00
001B80
003B80
003380
007380
006380
00E180
00C180
01C180
0381C0
0381C0
07FFC0
07FFC0
0E01C0
0E00C0
1C00C0
1C00C0
3800E0
7000E0
7000E0
E000E0
ENDCHAR
STARTCHAR 04D1
ENCODING 1233
SWIDTH 540 0
DWIDTH 18 0
BBX 16 25 2 0
BITMAP
0603
0607
070E
03FC
00F0
0000
0000
07E3
0FF3
1E3F
3C1E
780E
700E
700E
E00E
E00C
E01C
C01C
C01C
C03C
C078
E078
F1D8
7FB8
3E38
ENDCHAR
STARTCHAR 04D2
ENCODING 1234
SWIDTH 540 0
DWIDTH 18 0
BBX 20 30 -2 0
BITMAP
001C70
001C70
001860
000000
000000
000000
000700
000F00
000F00
001F00
001B80
003B80
003380
007380
006380
00E180
00C180
01C180
0381C0
0381C0
07FFC0
07FFC0
0E01C0
0E00C0
1C00C0
1C00C0
3800E0
7000E0
7000E0
E000E0
ENDCHAR
STARTCHAR 04D3
ENCODING 1235
SWIDTH 540 0
DWIDTH 18 0
BBX 16 24 2 0
BITMAP
038E
038E
030C
0000
0000
0000
07E3
0FF3
1E3F
3C1E
780E
700E
700E
E00E
E00C
E01C
C01C
C01C
C03C
C078
E078
F1D8
7FB8
3E38
ENDCHAR
STARTCHAR 04D4
ENCODING 1236
SWIDTH 810 0
DWIDTH 27 0
BBX 31 24 -2 0
BITMAP
0001FFFE
0003FFFC
0003FFFC
00073800
00063000
000E7000
001C7000
001C7000
00387000
00706000
0070FFF0
00E0FFF0
01C0FFE0
01C0C000
03FFC000
07FFC000
0701C000
0E01C000
0E018000
1C038000
38038000
38038000
7003FFC0
F003FFC0
ENDCHAR
STARTCHAR 04D5
ENCODING 1237
SWIDTH 810 0
DWIDTH 27 0
BBX 25 18 2 0
BITMAP
07C67E00
0FE6FF00
1E37C700
381F0380
781E0380
701E0300
701C0700
E01C3E00
E01FFC00
E01FF000
C0380000
C0380000
C0780000
C07C0000
E0FC0000
E1BE0C00
7F3FFC00
3E33FC00
ENDCHAR
STARTCHAR 04D6
ENCODING 1238
SWIDTH 510 0
DWIDTH 17 0
BBX 17 31 2 0
BITMAP
030180
030380
038700
01FE00
007C00
000000
000000
0FFF00
0FFF00
0FFF00
0C0000
0C0000
1C0000
1C0000
1C0000
180000
380000
3FFC00
3FFC00
3FF800
300000
700000
700000
700000
700000
600000
E00000
E00000
E00000
FFF000
FFF000
ENDCHAR
STARTCHAR 04D7
ENCODING 1239
SWIDTH 480 0
DWIDTH 16 0
BBX 15 25 2 0
BITMAP
0C06
0C0E
0E1E
07FC
01F0
0000
0000
03F0
0FF8
1E38
381C
701C
7018
6038
E1F0
FFE0
FF80
C000
C000
C000
E000
E000
7020
7FE0
1FC0
ENDCHAR
STARTCHAR 04D8
ENCODING 1240
SWIDTH 630 0
DWIDTH 21 0
BBX 20 24 1 0
BITMAP
03FE00
0FFF80
0F8FC0
0801E0
0000E0
0000E0
000070
000070
000070
000070
000070
007FF0
07FFF0
1FFCE0
3E00E0
7800E0
7001C0
E001C0
E00380
E00780
700F00
783E00
3FF800
1FE000
ENDCHAR
STARTCHAR 04D9
ENCODING 1241
SWIDTH 480 0
DWIDTH 16 0
BBX 14 18 1 0
BITMAP
0FE0
3FF0
3078
0038
001C
001C
001C
001C
07FC
1FFC
7E18
7038
E038
E070
E0F0
E1E0
7FC0
7F00
ENDCHAR
STARTCHAR 04DA
ENCODING 1242
SWIDTH 630 0
DWIDTH 21 0
BBX 20 30 1 0
BITMAP
0071C0
0071C0
006180
000000
000000
000000
03FE00
0FFF80
0F8FC0
0801E0
0000E0
0000E0
000070
000070
000070
000070
000070
007FF0
07FFF0
1FFCE0
3E00E0
7800E0
7001C0
E001C0
E00380
E00780
700F00
783E00
3FF800
1FE000
ENDCHAR
STARTCHAR 04DB
ENCODING 1243
SWIDTH 480 0
DWIDTH 16 0
BBX 14 24 1 0
BITMAP
071C
071C
0618
0000
0000
0000
0FE0
3FF0
3078
0038
001C
001C
001C
001C
07FC
1FFC
7E18
7038
E038
E070
E0F0
E1E0
7FC0
7F00
ENDCHAR
STARTCHAR 04DC
ENCODING 1244
SWIDTH 750 0
DWIDTH 25 0
BBX 30 30 -1 0
BITMAP
00030C00
00038E00
00030C00
00000000
00000000
00000000
0700C03C
0700C078
0381C0F0
0381C1E0
01C1C1C0
01C18380
00E18700
00E38E00
00739C00
0033B800
003B7000
001FE000
003FE000
00777000
00E77000
01C63800
038E3800
078E1C00
0F0E1C00
1E0C0E00
1C0C0E00
381C0700
701C0700
E01C0380
ENDCHAR
STARTCHAR 04DD
ENCODING 1245
SWIDTH 810 0
DWIDTH 27 0
BBX 28 24 0 0
BITMAP
000E3800
000E3800
000C3000
00000000
00000000
00000000
3F0381F0
3F8383F0
03838780
01C30E00
01C31C00
01C71C00
00C73800
01C73800
01FFF800
01FFF800
01CE3000
018E3000
038C3000
038C3800
070C3800
0E1C3C00
FC1C1F80
F8180F80
ENDCHAR
STARTCHAR 04DE
ENCODING 1246
SWIDTH 510 0
DWIDTH 17 0
BBX 17 30 0 0
BITMAP
00C300
00E300
00C300
000000
000000
000000
01FE00
07FF00
0F8780
040380
000180
000180
000180
000380
000380
000F00
007E00
07F000
0FF800
001E00
000E00
000700
000700
000700
000700
000E00
001E00
E03C00
FFF800
7FE000
ENDCHAR
STARTCHAR 04DF
ENCODING 1247
SWIDTH 420 0
DWIDTH 14 0
BBX 14 24 0 0
BITMAP
030C
071C
030C
0000
0000
0000
0FF0
1FF8
1C3C
001C
001C
001C
0038
01F0
0FC0
0FE0
0070
0030
0038
0038
0070
C0F0
FFE0
7F80
ENDCHAR
STARTCHAR 04E0
ENCODING 1248
SWIDTH 510 0
DWIDTH 17 0
BBX 18 24 0 0
BITMAP
07FFC0
07FFC0
07FFC0
000700
000E00
001C00
003800
007000
00E000
01C000
038000
07F800
07FC00
001E00
000E00
000E00
000600
000600
000E00
000E00
001C00
E07C00
FFF800
7FE000
ENDCHAR
STARTCHAR 04E1
ENCODING 1249
SWIDTH 450 0
DWIDTH 15 0
BBX 17 26 -2 -8
BITMAP
07FF80
07FF80
000700
000E00
001C00
003800
007000
00E000
01C000
038000
070000
07E000
07F800
003800
001C00
001C00
001C00
001C00
001C00
001C00
001C00
003800
007800
E1F000
FFE000
7F8000
ENDCHAR
STARTCHAR 04E2
ENCODING 1250
SWIDTH 690 0
DWIDTH 23 0
BBX 21 28 2 0
BITMAP
007FC0
007FC0
000000
000000
0E0038
0E0078
0E00F8
0C00F8
0C01F8
1C03B0
1C0730
1C0670
180E70
381C60
383860
3870E0
3060E0
30E0E0
71C0C0
7380C0
7701C0
6701C0
6E01C0
FC0180
F80180
F80380
F00380
E00380
ENDCHAR
STARTCHAR 04E3
ENCODING 1251
SWIDTH 570 0
DWIDTH 19 0
BBX 16 22 2 0
BITMAP
03FE
07FC
0000
0000
3807
3807
3807
3807
3006
700E
700E
700E
600C
601C
E01C
E01C
E03C
E078
E078
E1F8
FFB8
7E38
ENDCHAR
STARTCHAR 04E4
ENCODING 1252
SWIDTH 690 0
DWIDTH 23 0
BBX 21 30 2 0
BITMAP
0071C0
0071C0
0071C0
000000
000000
000000
0E0038
0E0078
0E00F8
0C00F8
0C01F8
1C03B0
1C0730
1C0670
180E70
381C60
383860
3870E0
3060E0
30E0E0
71C0C0
7380C0
7701C0
6701C0
6E01C0
FC0180
F80180
F80380
F00380
E00380
ENDCHAR
STARTCHAR 04E5
ENCODING 1253
SWIDTH 570 0
DWIDTH 19 0
BBX 16 24 2 0
BITMAP
038E
038E
030C
0000
0000
0000
3807
3807
3807
3807
3006
700E
700E
700E
600C
601C
E01C
E01C
E03C
E078
E078
E1F8
FFB8
7E38
ENDCHAR
STARTCHAR 04E6
ENCODING 1254
SWIDTH 720 0
DWIDTH 24 0
BBX 21 30 2 0
BITMAP
0030C0
0071C0
0030C0
000000
000000
000000
007F00
01FFC0
07E7E0
0F00F0
0E0070
1C0070
380038
380038
700038
700038
700038
700038
700038
E00038
E00070
E00070
E00070
7000E0
7001E0
7001C0
380780
3E1F00
1FFE00
07F800
ENDCHAR
STARTCHAR 04E7
ENCODING 1255
SWIDTH 540 0
DWIDTH 18 0
BBX 15 24 2 0
BITMAP
071C
071C
0718
0000
0000
0000
03F0
0FF8
1E3C
381E
700E
700E
E00E
E00E
E00E
E00E
C00E
C00C
C01C
E01C
E038
70F0
7FE0
1FC0
ENDCHAR
STARTCHAR 04E8
ENCODING 1256
SWIDTH 720 0
DWIDTH 24 0
BBX 21 24 2 0
BITMAP
007F00
01FFC0
07C7E0
0F00F0
0E0070
1C0070
380038
380038
700038
700038
700038
7FFFF8
7FFFF8
E00038
E00070
E00070
E00070
7000E0
7001E0
7001C0
380780
3E0F00
1FFE00
07F800
ENDCHAR
STARTCHAR 04E9
ENCODING 1257
SWIDTH 540 0
DWIDTH 18 0
BBX 15 18 2 0
BITMAP
03F0
0FF8
1E3C
380E
700E
700E
E00E
E00E
FFFE
FFFE
C00E
C00C
C01C
E01C
E038
7070
7FE0
1FC0
ENDCHAR
STARTCHAR 04EA
ENCODING 1258
SWIDTH 720 0
DWIDTH 24 0
BBX 21 30 2 0
BITMAP
002080
0071C0
006180
000000
000000
000000
007F00
01FFC0
07C7E0
0F00F0
0E0070
1C0070
380038
380038
700038
700038
700038
7FFFF8
7FFFF8
E00038
E00070
E00070
E00070
7000E0
7001E0
7001C0
380780
3E0F00
1FFE00
07F800
ENDCHAR
STARTCHAR 04EB
ENCODING 1259
SWIDTH 540 0
DWIDTH 18 0
BBX 15 24 2 0
BITMAP
071C
071C
0618
0000
0000
0000
03F0
0FF8
1E3C
380E
700E
700E
E00E
E00E
FFFE
FFFE
C00E
C00C
C01C
E01C
E038
7070
7FE0
1FC0
ENDCHAR
STARTCHAR 04EC
ENCODING 1260
SWIDTH 570 0
DWIDTH 19 0
BBX 19 30 0 0
BITMAP
00C300
01C700
01C700
000000
000000
000000
03FC00
0FFF00
0F1F80
000380
0003C0
0001C0
0001C0
0000C0
0000E0
0000E0
07FFC0
07FFC0
07FFC0
0001C0
0001C0
0001C0
000380
000380
000700
000F00
801E00
E07C00
FFF800
7FE000
ENDCHAR
STARTCHAR 04ED
ENCODING 1261
SWIDTH 450 0
DWIDTH 15 0
BBX 14 24 0 0
BITMAP
0618
0618
0618
0000
0000
0000
1FC0
3FF0
1078
0038
0038
001C
001C
001C
1FFC
1FF8
0038
0038
0038
0070
00F0
81E0
FFC0
FF00
ENDCHAR
STARTCHAR 04EE
ENCODING 1262
SWIDTH 570 0
DWIDTH 19 0
BBX 22 28 0 0
BITMAP
007FC0
00FF80
000000
000000
0C001C
0E0038
0E0038
0E0070
0600E0
0700E0
0701C0
0301C0
038380
038700
038700
018E00
01CC00
01DC00
00D800
00F800
00F000
00E000
00E000
01C000
038000
8F8000
FF0000
FC0000
ENDCHAR
STARTCHAR 04EF
ENCODING 1263
SWIDTH 450 0
DWIDTH 15 0
BBX 20 30 -3 -8
BITMAP
00FF80
00FF80
000000
000000
060070
0700E0
0700E0
0701C0
0701C0
070380
030380
030700
030600
038E00
038C00
039C00
039800
01B800
01B000
01F000
01E000
01E000
01C000
018000
038000
070000
070000
1E0000
FC0000
F80000
ENDCHAR
STARTCHAR 04F0
ENCODING 1264
SWIDTH 570 0
DWIDTH 19 0
BBX 22 30 0 0
BITMAP
0071C0
0071C0
006180
000000
000000
000000
0C001C
0E0038
0E0038
0E0070
0600E0
0700E0
0701C0
0301C0
038380
038700
038700
018E00
01CC00
01DC00
00D800
00F800
00F000
00E000
00E000
01C000
038000
8F8000
FF0000
FC0000
ENDCHAR
STARTCHAR 04F1
ENCODING 1265
SWIDTH 450 0
DWIDTH 15 0
BBX 20 32 -3 -8
BITMAP
006180
00E380
006180
000000
000000
000000
060070
0700E0
0700E0
0701C0
0701C0
070380
030380
030700
030600
038E00
038C00
039C00
039800
01B800
01B000
01F000
01E000
01E000
01C000
018000
038000
070000
070000
1E0000
FC0000
F80000
ENDCHAR
STARTCHAR 04F2
ENCODING 1266
SWIDTH 570 0
DWIDTH 19 0
BBX 22 32 0 0
BITMAP
000738
000E38
001C70
0018E0
0031C0
006100
000000
000000
0C001C
0E0038
0E0038
0E0070
0600E0
0700E0
0701C0
0301C0
038380
038700
038700
018E00
01CC00
01DC00
00D800
00F800
00F000
00E000
00E000
01C000
038000
8F8000
FF0000
FC0000
ENDCHAR
STARTCHAR 04F3
ENCODING 1267
SWIDTH 450 0
DWIDTH 15 0
BBX 21 34 -3 -8
BITMAP
000E38
000E70
001CE0
0038C0
007180
00C300
000000
000000
060070
0700E0
0700E0
0701C0
0701C0
070380
030380
030700
030600
038E00
038C00
039C00
039800
01B800
01B000
01F000
01E000
01E000
01C000
018000
038000
070000
070000
1E0000
FC0000
F80000
ENDCHAR
STARTCHAR 04F4
ENCODING 1268
SWIDTH 630 0
DWIDTH 21 0
BBX 17 30 4 0
BITMAP
038E00
038E00
038E00
000000
000000
000000
380180
380380
300380
700380
700300
700700
700700
600700
E00700
E00600
E00E00
E00E00
E03E00
7FFE00
7FEC00
1F1C00
001C00
001C00
001C00
001800
003800
003800
003800
003000
ENDCHAR
STARTCHAR 04F5
ENCODING 1269
SWIDTH 540 0
DWIDTH 18 0
BBX 14 24 3 0
BITMAP
0E38
0E38
0C30
0000
0000
0000
700C
601C
E01C
E01C
E01C
E038
C038
C078
E0F8
F7B8
7F30
3C70
0070
0070
0060
00E0
00E0
00E0
ENDCHAR
STARTCHAR 04F6
ENCODING 1270
SWIDTH 450 0
DWIDTH 15 0
BBX 16 30 2 -6
BITMAP
0FFF
0FFF
0FFF
0E00
0C00
1C00
1C00
1C00
1800
3800
3800
3800
3800
3000
7000
7000
7000
7000
6000
E000
E000
E000
F800
F800
3800
3800
3000
3000
7000
7000
ENDCHAR
STARTCHAR 04F7
ENCODING 1271
SWIDTH 360 0
DWIDTH 12 0
BBX 13 24 1 -6
BITMAP
0FF8
1FF8
1C00
1C00
1C00
1800
3800
3800
3800
3000
3000
7000
7000
7000
6000
E000
F800
F800
3800
3800
3800
3000
7000
7000
ENDCHAR
STARTCHAR 04F8
ENCODING 1272
SWIDTH 780 0
DWIDTH 26 0
BBX 24 30 2 0
BITMAP
001C70
001C70
001860
000000
000000
000000
0E0007
0E0007
0E0007
0C0007
0C0006
1C000E
1C000E
1C000E
18000E
38000C
3FC01C
3FF01C
3FF81C
303C18
701C18
700C38
700E38
700C38
601C30
E01C70
E03870
E1F870
FFE070
FF8060
ENDCHAR
STARTCHAR 04F9
ENCODING 1273
SWIDTH 690 0
DWIDTH 23 0
BBX 21 24 2 0
BITMAP
00E380
00E380
00C300
000000
000000
000000
380038
380038
380038
380030
300070
700070
700070
700060
7FE0E0
7FF0E0
E070E0
E038E0
E038C0
E039C0
E071C0
F0F1C0
7FE1C0
3FC180
ENDCHAR
STARTCHAR 04FA
ENCODING 1274
SWIDTH 450 0
DWIDTH 15 0
BBX 18 30 0 -6
BITMAP
03FFC0
03FFC0
03FFC0
030000
070000
070000
070000
070000
060000
0E0000
0E0000
3FF000
7FF000
0C0000
1C0000
1C0000
1C0000
1C0000
180000
380000
380000
380000
3E0000
3E0000
0C0000
0C0000
0C0000
1C0000
F80000
F80000
ENDCHAR
STARTCHAR 04FB
ENCODING 1275
SWIDTH 360 0
DWIDTH 12 0
BBX 14 24 0 -6
BITMAP
07FC
0FFC
0E00
0E00
0E00
0C00
1C00
1C00
7FC0
FFC0
1800
3800
3800
3800
3000
7000
7C00
7C00
0C00
1C00
1800
1800
F800
F000
ENDCHAR
STARTCHAR 04FC
ENCODING 1276
SWIDTH 510 0
DWIDTH 17 0
BBX 21 30 -1 -6
BITMAP
070038
070070
0300E0
0380E0
0381C0
018380
01C700
00CE00
00CE00
00FC00
007800
007000
00F000
01F800
019800
039C00
071C00
0E0C00
0C0E00
1C0E00
380600
700700
E007C0
E003C0
000180
000180
000180
000380
001F00
001F00
ENDCHAR
STARTCHAR 04FD
ENCODING 1277
SWIDTH 450 0
DWIDTH 15 0
BBX 18 24 -1 -6
BITMAP
0E03C0
0E0380
060700
070E00
031C00
03B800
03B000
01F000
01E000
01E000
03E000
077000
0E7000
0E3000
1C3800
381800
701F00
E00E00
000600
000600
000E00
000E00
007C00
007800
ENDCHAR
STARTCHAR 04FE
ENCODING 1278
SWIDTH 510 0
DWIDTH 17 0
BBX 21 24 -1 0
BITMAP
070038
070070
0300E0
0380E0
0381C0
018380
01C700
01CE00
00CE00
00FC00
0FFF80
0FFF80
0FFF80
01F800
019800
039C00
071C00
0E0C00
1C0E00
1C0E00
380600
700700
E00700
E00300
ENDCHAR
STARTCHAR 04FF
ENCODING 1279
SWIDTH 480 0
DWIDTH 16 0
BBX 18 18 -1 0
BITMAP
0E03C0
0E0380
060700
070E00
031C00
03B800
03B000
01F000
1FFE00
1FFE00
03E000
077000
0E7000
0E3000
1C3800
381800
701C00
E00C00
ENDCHAR
STARTCHAR 0500
ENCODING 1280
SWIDTH 540 0
DWIDTH 18 0
BBX 17 24 2 0
BITMAP
000380
000380
000380
000300
000700
000700
000700
000600
000E00
000E00
01FE00
1FFE00
3FFC00
781C00
E01C00
E01C00
C01C00
C01800
C03800
E03800
E03800
FC3800
7FF000
1FF000
ENDCHAR
STARTCHAR 0501
ENCODING 1281
SWIDTH 570 0
DWIDTH 19 0
BBX 18 25 2 0
BITMAP
0001C0
000180
000180
000380
000380
000380
000300
07E700
0FF700
1E3F00
381F00
780E00
700E00
700E00
E00E00
E00E00
E00C00
C01C00
C01C00
C03C00
C07800
E07800
F1D800
7FB800
3E3800
ENDCHAR
STARTCHAR 0502
ENCODING 1282
SWIDTH 810 0
DWIDTH 27 0
BBX 24 24 2 0
BITMAP
000380
000380
000380
000300
000700
000700
000700
000700
000600
000E00
01FE07
0FFE07
3FFE07
780C06
701C0E
E01C0E
E01C0E
E0180E
C0380C
E0381C
E0781C
F0FC38
7FCFF8
3F87E0
ENDCHAR
STARTCHAR 0503
ENCODING 1283
SWIDTH 840 0
DWIDTH 28 0
BBX 24 25 2 0
BITMAP
0001C0
000180
000180
000380
000380
000380
000300
07E300
0FF700
1E3F00
381F00
780E00
700E00
600E00
E00E07
E00E07
E00C07
C01C06
C01C0E
C03C0E
C03C0E
E07C1C
F1CE1C
7F8FF8
3F07F0
ENDCHAR
STARTCHAR 0504
ENCODING 1284
SWIDTH 810 0
DWIDTH 27 0
BBX 22 24 4 0
BITMAP
1FE000
7FF000
F87800
403800
003800
001800
003800
003800
003800
00F000
07C01C
FF001C
FF801C
01E01C
00E018
00E038
00E038
00E038
00E038
00E070
00E070
0070E0
007FE0
003F80
ENDCHAR
STARTCHAR 0505
ENCODING 1285
SWIDTH 720 0
DWIDTH 24 0
BBX 19 18 3 0
BITMAP
7F0000
FFC000
C1C000
01C000
00C000
01C000
01C000
0F8060
7E00E0
7F00E0
0380E0
0380E0
0180C0
0381C0
0181C0
01C380
01FF00
00FE00
ENDCHAR
STARTCHAR 0506
ENCODING 1286
SWIDTH 570 0
DWIDTH 19 0
BBX 13 30 4 -6
BITMAP
1FE0
7FF0
F878
4038
0038
0018
0038
0038
0030
00F0
07C0
FF00
FFC0
01E0
00E0
0060
0060
0060
00E0
00E0
00E0
00E0
00F8
01F8
0038
0030
0030
0070
0070
0070
ENDCHAR
STARTCHAR 0507
ENCODING 1287
SWIDTH 450 0
DWIDTH 15 0
BBX 11 24 3 -6
BITMAP
7F00
FFC0
C1C0
00C0
00C0
00C0
01C0
0F80
7E00
7F00
0380
0380
0180
0380
0380
0380
03E0
03E0
00E0
00C0
01C0
01C0
01C0
01C0
ENDCHAR
STARTCHAR 0508
ENCODING 1288
SWIDTH 900 0
DWIDTH 30 0
BBX 29 24 -1 0
BITMAP
001FFC00
001FFC00
003FFC00
00381800
00383800
00303800
00703800
00703800
00703000
00E07000
00E07018
00E07038
00C06038
01C0E038
01C0E030
0180E070
0380E070
0380C070
0701C070
0701C0E0
0E00C0E0
1E00E1C0
FC00FFC0
F8003F00
ENDCHAR
STARTCHAR 0509
ENCODING 1289
SWIDTH 780 0
DWIDTH 26 0
BBX 26 18 -1 0
BITMAP
001FC000
007FC000
00F18000
00E18000
01C38000
01838000
03838000
038301C0
03070180
07070380
07070380
06070380
0E060300
0C060700
1C060700
38070E00
F807FE00
F003F800
ENDCHAR
STARTCHAR 050A
ENCODING 1290
SWIDTH 930 0
DWIDTH 31 0
BBX 28 24 2 0
BITMAP
0E003800
0E003000
0E007000
0E007000
0C007000
1C007000
1C006000
1C00E000
1800E000
3800E000
3FFFE070
3FFFC070
3FFFC070
3001C060
7001C0E0
7001C0E0
700180E0
700380C0
600380C0
E00381C0
E00381C0
E003C380
C001FF00
C000FE00
ENDCHAR
STARTCHAR 050B
ENCODING 1291
SWIDTH 840 0
DWIDTH 28 0
BBX 25 18 1 0
BITMAP
0C01C000
1C01C000
1C018000
1C038000
1C038000
18038000
38030000
38030180
3FFF0380
3FFF0380
30070380
70060380
700E0300
700E0700
600E0700
E0070E00
E007FC00
E003F800
ENDCHAR
STARTCHAR 050C
ENCODING 1292
SWIDTH 690 0
DWIDTH 23 0
BBX 20 24 2 0
BITMAP
007FC0
01FFF0
03E1F0
078000
0F0000
1E0000
3C0000
380000
380000
700000
700000
700000
701FF0
E01FF0
E00070
E000E0
E000E0
7000E0
7001C0
7001C0
380380
3E0F00
1FFE00
07FC00
ENDCHAR
STARTCHAR 050D
ENCODING 1293
SWIDTH 570 0
DWIDTH 19 0
BBX 16 18 2 0
BITMAP
03FC
0FFF
1E06
3800
7000
7000
E000
E000
E000
E0FF
C0FF
C006
C00E
E00E
E01C
7038
3FF8
1FE0
ENDCHAR
STARTCHAR 050E
ENCODING 1294
SWIDTH 630 0
DWIDTH 21 0
BBX 17 24 3 0
BITMAP
FFFF80
FFFF00
FFFF00
038000
038000
038000
038000
030000
070000
070000
070380
070380
060380
0E0300
0E0300
0E0700
0C0700
1C0700
1C0600
1C0E00
1C0E00
0E1C00
0FFC00
07F000
ENDCHAR
STARTCHAR 050F
ENCODING 1295
SWIDTH 570 0
DWIDTH 19 0
BBX 15 18 2 0
BITMAP
FFF8
FFF0
0600
0E00
0E00
0E00
0C00
1C06
1C0E
1C0E
1C0E
180C
381C
381C
381C
1C38
1FF0
0FE0
ENDCHAR
STARTCHAR 0510
ENCODING 1296
SWIDTH 510 0
DWIDTH 17 0
BBX 17 24 2 0
BITMAP
01FE00
07FF00
0F8780
0E0100
1C0000
1C0000
1C0000
1C0000
1C0000
0E0000
07C000
01F800
1FF800
3C0000
700000
700000
E00000
E00000
E00000
E00000
F00000
781C00
3FFC00
1FF000
ENDCHAR
STARTCHAR 0511
ENCODING 1297
SWIDTH 420 0
DWIDTH 14 0
BBX 14 18 1 0
BITMAP
03F8
0FFC
1E0C
1800
3800
3800
1800
1F00
07C0
3FC0
7800
E000
E000
E000
E000
F030
7FF0
3FE0
ENDCHAR
STARTCHAR 0512
ENCODING 1298
SWIDTH 630 0
DWIDTH 21 0
BBX 23 30 -1 -6
BITMAP
001FFE
001FFC
003FFC
00381C
00381C
00301C
007018
007038
007038
00E038
00E038
00E030
00C070
01C070
01C070
018070
038060
0380E0
0700E0
0700E0
0E00C0
1E01C0
FC01F8
F801F0
000030
000030
000070
000060
0003E0
0003C0
ENDCHAR
STARTCHAR 0513
ENCODING 1299
SWIDTH 510 0
DWIDTH 17 0
BBX 18 24 -1 -6
BITMAP
001FC0
007FC0
00F180
00E180
01C380
018380
038380
038300
030700
070700
070700
060700
0E0600
0C0E00
1C0E00
380E00
F80F80
F00F80
000380
000300
000300
000700
003E00
003E00
ENDCHAR
STARTCHAR 05B0
ENCODING 1456
SWIDTH 0 0
DWIDTH 0 0
BBX 4 7 -5 -8
BITMAP
20
70
60
00
00
60
E0
ENDCHAR
STARTCHAR 05B1
ENCODING 1457
SWIDTH 0 0
DWIDTH 0 0
BBX 11 6 2 -7
BITMAP
CE60
CC60
0000
0000
70C0
60C0
ENDCHAR
STARTCHAR 05B2
ENCODING 1458
SWIDTH 0 0
DWIDTH 0 0
BBX 9 7 3 -8
BITMAP
0080
FD80
0180
0000
0000
0380
0300
ENDCHAR
STARTCHAR 05B3
ENCODING 1459
SWIDTH 0 0
DWIDTH 0 0
BBX 9 7 -7 -8
BITMAP
0080
FD80
2180
2000
6000
4300
0300
ENDCHAR
STARTCHAR 05B4
ENCODING 1460
SWIDTH 0 0
DWIDTH 0 0
BBX 3 3 -4 -4
BITMAP
40
E0
C0
ENDCHAR
STARTCHAR 05B5
ENCODING 1461
SWIDTH 0 0
DWIDTH 0 0
BBX 7 3 3 -4
BITMAP
42
C6
C6
ENDCHAR
STARTCHAR 05B6
ENCODING 1462
SWIDTH 0 0
DWIDTH 0 0
BBX 7 7 -6 -8
BITMAP
40
C6
C6
00
00
30
70
ENDCHAR
STARTCHAR 05B7
ENCODING 1463
SWIDTH 0 0
DWIDTH 0 0
BBX 6 1 -5 -3
BITMAP
FC
ENDCHAR
STARTCHAR 05B8
ENCODING 1464
SWIDTH 0 0
DWIDTH 0 0
BBX 6 5 -5 -7
BITMAP
FC
20
60
60
40
ENDCHAR
STARTCHAR 05B9
ENCODING 1465
SWIDTH 0 0
DWIDTH 0 0
BBX 2 3 2 20
BITMAP
C0
C0
80
ENDCHAR
STARTCHAR 05BA
ENCODING 1466
SWIDTH 0 0
DWIDTH 0 0
BBX 2 3 2 20
BITMAP
C0
C0
80
ENDCHAR
STARTCHAR 05BB
ENCODING 1467
SWIDTH 0 0
DWIDTH 0 0
BBX 6 7 -6 -8
BITMAP
C0
C0
30
30
0C
0C
08
ENDCHAR
STARTCHAR 05BC
ENCODING 1468
SWIDTH 0 0
DWIDTH 0 0
BBX 2 3 -1 8
BITMAP
40
C0
80
ENDCHAR
STARTCHAR 05BD
ENCODING 1469
SWIDTH 0 0
DWIDTH 0 0
BBX 2 5 -4 -7
BITMAP
40
40
C0
C0
80
ENDCHAR
STARTCHAR 05BE
ENCODING 1470
SWIDTH 480 0
DWIDTH 16 0
BBX 8 2 4 19
BITMAP
FF
FF
ENDCHAR
STARTCHAR 05C1
ENCODING 1473
SWIDTH 0 0
DWIDTH 0 0
BBX 2 3 2 20
BITMAP
C0
C0
80
ENDCHAR
STARTCHAR 05C2
ENCODING 1474
SWIDTH 0 0
DWIDTH 0 0
BBX 2 3 2 20
BITMAP
C0
C0
80
ENDCHAR
STARTCHAR 05C7
ENCODING 1479
SWIDTH 0 0
DWIDTH 0 0
BBX 5 4 -5 -5
BITMAP
F8
20
20
60
ENDCHAR
STARTCHAR 05D0
ENCODING 1488
SWIDTH 540 0
DWIDTH 18 0
BBX 20 21 -1 0
BITMAP
070030
038070
038070
038070
01C060
01C060
00E0E0
03E0E0
0FE0E0
0E70C0
1C71C0
183380
383F00
383E00
301C00
301C00
701E00
700E00
700E00
600700
E00700
ENDCHAR
STARTCHAR 05D1
ENCODING 1489
SWIDTH 510 0
DWIDTH 17 0
BBX 17 21 -1 0
BITMAP
07FE00
0FFF00
000700
000380
000380
000380
000300
000700
000700
000700
000700
000600
000E00
000E00
000E00
000E00
000C00
001C00
001C00
7FFF00
FFFF00
ENDCHAR
STARTCHAR 05D2
ENCODING 1490
SWIDTH 390 0
DWIDTH 13 0
BBX 14 21 -1 0
BITMAP
01F8
03F8
003C
001C
0018
0038
0038
0038
0038
0030
0070
0070
0070
0060
00E0
00E0
01E0
03E0
0EC0
FCC0
F8C0
ENDCHAR
STARTCHAR 05D3
ENCODING 1491
SWIDTH 480 0
DWIDTH 16 0
BBX 15 21 3 0
BITMAP
FFFE
FFFE
003C
0070
0060
00E0
00E0
00C0
01C0
01C0
01C0
01C0
0180
0380
0380
0380
0380
0300
0700
0700
0700
ENDCHAR
STARTCHAR 05D4
ENCODING 1492
SWIDTH 600 0
DWIDTH 20 0
BBX 19 21 0 0
BITMAP
07FF80
0FFFC0
0001E0
0000E0
0000E0
0000E0
0000E0
0000E0
1C00C0
1801C0
1801C0
3801C0
380180
380380
300380
700380
700380
700300
700700
600700
E00700
ENDCHAR
STARTCHAR 05D5
ENCODING 1493
SWIDTH 210 0
DWIDTH 7 0
BBX 7 21 0 0
BITMAP
06
0E
0E
0E
0E
0C
1C
1C
1C
1C
18
38
38
38
30
70
70
70
70
60
E0
ENDCHAR
STARTCHAR 05D6
ENCODING 1494
SWIDTH 270 0
DWIDTH 9 0
BBX 9 21 2 0
BITMAP
3F80
3F80
0300
0600
0E00
1C00
1C00
3800
3800
3800
3000
3000
7000
7000
7000
6000
E000
E000
E000
E000
C000
ENDCHAR
STARTCHAR 05D7
ENCODING 1495
SWIDTH 600 0
DWIDTH 20 0
BBX 19 21 0 0
BITMAP
07FF80
0FFFC0
0E01E0
0E00E0
0E00E0
0C00E0
1C00E0
1C00E0
1C00C0
1801C0
3801C0
3801C0
380180
380380
300380
700380
700380
700300
700700
600700
E00700
ENDCHAR
STARTCHAR 05D8
ENCODING 1496
SWIDTH 600 0
DWIDTH 20 0
BBX 17 21 2 0
BITMAP
187E00
387F00
380780
380380
380380
300380
700180
700380
700380
600380
E00380
E00380
E00700
E00700
E00700
E00E00
E00E00
F01C00
787800
3FF000
1FC000
ENDCHAR
STARTCHAR 05D9
ENCODING 1497
SWIDTH 210 0
DWIDTH 7 0
BBX 5 13 2 8
BITMAP
38
38
38
38
30
70
70
70
70
60
E0
C0
80
ENDCHAR
STARTCHAR 05DA
ENCODING 1498
SWIDTH 480 0
DWIDTH 16 0
BBX 13 29 2 -8
BITMAP
7FC0
7FE0
80F0
0070
0038
0038
0038
0038
0030
0070
0070
0070
0070
0060
00E0
00E0
00E0
00E0
00C0
01C0
01C0
01C0
01C0
0380
0380
0380
0380
0300
0700
ENDCHAR
STARTCHAR 05DB
ENCODING 1499
SWIDTH 450 0
DWIDTH 15 0
BBX 16 21 -1 0
BITMAP
0FF8
0FFC
001E
000F
0007
0007
0007
0007
0007
0007
0006
000E
000E
000E
001C
001C
0038
0078
80F0
FFE0
FF80
ENDCHAR
STARTCHAR 05DC
ENCODING 1500
SWIDTH 450 0
DWIDTH 15 0
BBX 14 25 3 0
BITMAP
7000
7000
6000
E000
FFFC
FFFC
001C
0018
0038
0030
0070
0060
00E0
00C0
01C0
0180
0380
0300
0700
0700
0E00
0E00
0C00
1C00
1C00
ENDCHAR
STARTCHAR 05DD
ENCODING 1501
SWIDTH 600 0
DWIDTH 20 0
BBX 19 21 0 0
BITMAP
07FF80
0FFFC0
0E01E0
0E00E0
0E00E0
0C00E0
1C00E0
1C00E0
1C00C0
1801C0
1801C0
3801C0
380180
380380
300380
700380
700380
700300
700700
7FFF00
FFFF00
ENDCHAR
STARTCHAR 05DE
ENCODING 1502
SWIDTH 600 0
DWIDTH 20 0
BBX 19 21 0 0
BITMAP
0E3F80
0EFFC0
07C3E0
0700E0
0E00E0
0E00E0
0E00E0
0C00C0
1C01C0
1C01C0
1801C0
3801C0
380180
300380
700380
700380
600380
E00300
E00700
E07F00
C07F00
ENDCHAR
STARTCHAR 05DF
ENCODING 1503
SWIDTH 210 0
DWIDTH 7 0
BBX 8 29 -2 -8
BITMAP
07
03
03
03
07
07
07
07
06
0E
0E
0E
0E
0C
1C
1C
1C
1C
18
38
38
38
38
30
70
70
70
60
E0
ENDCHAR
STARTCHAR 05E0
ENCODING 1504
SWIDTH 390 0
DWIDTH 13 0
BBX 14 21 -1 0
BITMAP
01F8
03F8
003C
001C
001C
0018
0018
0038
0038
0038
0030
0070
0070
0070
0070
0060
00E0
00E0
00C0
7FC0
FFC0
ENDCHAR
STARTCHAR 05E1
ENCODING 1505
SWIDTH 570 0
DWIDTH 19 0
BBX 17 21 1 0
BITMAP
1FFE00
1FFF00
060780
0C0380
1C0380
380180
380180
700180
700380
700380
600380
E00380
E00700
E00700
E00700
E00E00
E00E00
F01C00
787800
3FF000
1FC000
ENDCHAR
STARTCHAR 05E2
ENCODING 1506
SWIDTH 600 0
DWIDTH 20 0
BBX 22 22 -1 -1
BITMAP
03801C
03801C
038018
038038
038038
038030
038070
038070
038060
0380E0
0380E0
0380C0
0381C0
038380
018700
018F00
019E00
01BC00
01F000
7FC000
FF0000
C00000
ENDCHAR
STARTCHAR 05E3
ENCODING 1507
SWIDTH 570 0
DWIDTH 19 0
BBX 16 29 2 -8
BITMAP
03F8
0FFC
3C1E
380F
7007
E007
E007
C007
C007
C007
E006
F00E
7C0E
380E
000E
000C
001C
001C
001C
001C
0038
0038
0038
0038
0030
0070
0070
0070
0070
ENDCHAR
STARTCHAR 05E4
ENCODING 1508
SWIDTH 570 0
DWIDTH 19 0
BBX 16 21 2 0
BITMAP
03FC
0FFE
1E0E
3807
7007
6007
E007
E007
E007
E007
E007
7006
7C0E
1C0E
000C
001C
0018
0038
00F0
FFE0
FF80
ENDCHAR
STARTCHAR 05E5
ENCODING 1509
SWIDTH 450 0
DWIDTH 15 0
BBX 16 29 1 -8
BITMAP
3007
3806
3806
380E
380E
380E
180C
1C1C
1C1C
1C38
1C78
1FF0
1FC0
1E00
1C00
1800
3800
3800
3800
3800
3000
7000
7000
7000
7000
6000
E000
E000
E000
ENDCHAR
STARTCHAR 05E6
ENCODING 1510
SWIDTH 540 0
DWIDTH 18 0
BBX 20 21 -1 0
BITMAP
0E0070
070060
070060
0380E0
0380E0
0180C0
01C1C0
01C180
00E380
00E700
006E00
007C00
007800
003800
003800
001C00
001C00
000E00
000E00
FFFF00
FFFE00
ENDCHAR
STARTCHAR 05E7
ENCODING 1511
SWIDTH 570 0
DWIDTH 19 0
BBX 22 29 -1 -8
BITMAP
03FFFC
03FFF8
000038
000038
000070
000070
0000E0
0000E0
0001C0
0E0180
0C0380
1C0300
1C0700
1C0600
1C0E00
180C00
381C00
381C00
383800
303800
703000
700000
700000
700000
600000
E00000
E00000
E00000
E00000
ENDCHAR
STARTCHAR 05E8
ENCODING 1512
SWIDTH 480 0
DWIDTH 16 0
BBX 12 21 3 0
BITMAP
FFC0
FFF0
00F0
0070
0070
0070
0070
0070
0070
0060
00E0
00E0
00E0
00E0
00C0
01C0
01C0
01C0
0180
0380
0380
ENDCHAR
STARTCHAR 05E9
ENCODING 1513
SWIDTH 720 0
DWIDTH 24 0
BBX 24 21 1 0
BITMAP
180E07
180C06
180C06
381C0E
381C0E
38180C
38381C
38301C
307018
306038
71E038
73C030
7F0070
7C00E0
7000C0
6001C0
600380
600F00
E03E00
FFF800
FFC000
ENDCHAR
STARTCHAR 05EA
ENCODING 1514
SWIDTH 630 0
DWIDTH 21 0
BBX 21 21 -1 0
BITMAP
03FFE0
07FFF0
01C078
01C038
01C038
01C038
018038
038030
038070
038070
038070
030070
070060
0700E0
0700E0
0600E0
0E00E0
0E00C0
1C01C0
FC01C0
F001C0
ENDCHAR
STARTCHAR 1E00
ENCODING 7680
SWIDTH 540 0
DWIDTH 18 0
BBX 19 33 -2 -9
BITMAP
000700
000F00
000F00
001F00
001B80
003B80
003380
007380
006380
00E180
00C180
01C180
0381C0
0381C0
07FFC0
07FFC0
0E01C0
0E00C0
1C00C0
1C00C0
3800E0
7000E0
7000E0
E000E0
000000
000000
01E000
03F000
021800
021800
021800
03F000
01E000
ENDCHAR
STARTCHAR 1E01
ENCODING 7681
SWIDTH 540 0
DWIDTH 18 0
BBX 16 27 2 -9
BITMAP
07E3
0FF3
1E3F
3C1E
780E
700E
700E
E00E
E00C
E01C
C01C
C01C
C03C
C078
E078
F1D8
7FB8
3E38
0000
0000
1E00
3F00
3180
2180
3180
3F00
1E00
ENDCHAR
STARTCHAR 1E3E
ENCODING 7742
SWIDTH 810 0
DWIDTH 27 0
BBX 27 32 1 0
BITMAP
00003800
00003800
00007000
0000E000
0001C000
00018000
00000000
00000000
078001E0
078003E0
07C007E0
07C007C0
0FC00FC0
0EC00DC0
0EC01DC0
0CC01980
0CC03980
1CC03380
1CE07380
1CE06380
18E0E300
1861C700
38618700
38638700
38630700
30670600
30760E00
707E0E00
703C0E00
703C0E00
60380C00
E0301C00
ENDCHAR
STARTCHAR 1E3F
ENCODING 7743
SWIDTH 870 0
DWIDTH 29 0
BBX 26 26 1 0
BITMAP
00003C00
00003800
00007000
0000E000
0001C000
00018000
00000000
00000000
0C7C1F00
1CFE3F80
1D8E73C0
1F06C1C0
1E0781C0
1C0701C0
380701C0
380601C0
380E01C0
300E0180
300E0380
700C0380
701C0380
701C0300
601C0700
E01C0700
E0180700
E0380700
ENDCHAR
STARTCHAR 1E80
ENCODING 7808
SWIDTH 840 0
DWIDTH 28 0
BBX 27 32 4 0
BITMAP
00380000
001C0000
001C0000
000E0000
00060000
00030000
00000000
00000000
C00E00E0
C01E00E0
C01E01C0
C03E01C0
C0360380
E0360380
E0760300
E0660700
E0E60600
E0C60E00
E1C60E00
E1861C00
E3861C00
E3063800
E7073800
E6073000
EE077000
EE076000
EC07E000
FC07C000
7807C000
7803C000
70038000
70038000
ENDCHAR
STARTCHAR 1E81
ENCODING 7809
SWIDTH 690 0
DWIDTH 23 0
BBX 23 26 2 0
BITMAP
00E000
007000
007000
003800
001800
000C00
000000
000000
E0380E
E0780C
E0781C
E0F81C
E0D838
E1D838
E19870
E39870
E318E0
E718E0
E618C0
E619C0
EC1980
EC1F80
7C1F00
781F00
781F00
700E00
ENDCHAR
STARTCHAR 1E82
ENCODING 7810
SWIDTH 840 0
DWIDTH 28 0
BBX 27 32 4 0
BITMAP
0000E000
0001E000
0001C000
00038000
00070000
000C0000
00000000
00000000
C00E00E0
C01E00E0
C01E01C0
C03E01C0
C0360380
E0360380
E0760300
E0660700
E0E60600
E0C60E00
E1C60E00
E1861C00
E3861C00
E3063800
E7073800
E6073000
EE077000
EE076000
EC07E000
FC07C000
7807C000
7803C000
70038000
70038000
ENDCHAR
STARTCHAR 1E83
ENCODING 7811
SWIDTH 690 0
DWIDTH 23 0
BBX 23 26 2 0
BITMAP
000380
000780
000700
000E00
001C00
003000
000000
000000
E0380E
E0780C
E0781C
E0F81C
E0D838
E1D838
E19870
E39870
E318E0
E718E0
E618C0
E619C0
EC1980
EC1F80
7C1F00
781F00
781F00
700E00
ENDCHAR
STARTCHAR 1E84
ENCODING 7812
SWIDTH 840 0
DWIDTH 28 0
BBX 27 30 4 0
BITMAP
0038E000
0038E000
0030C000
00000000
00000000
00000000
C00E00E0
C01E00E0
C01E01C0
C03E01C0
C0360380
E0360380
E0760300
E0660700
E0E60600
E0C60E00
E1C60E00
E1861C00
E3861C00
E3063800
E7073800
E6073000
EE077000
EE076000
EC07E000
FC07C000
7807C000
7803C000
70038000
70038000
ENDCHAR
STARTCHAR 1E85
ENCODING 7813
SWIDTH 690 0
DWIDTH 23 0
BBX 23 24 2 0
BITMAP
00E380
00E380
00C300
000000
000000
000000
E0380E
E0780C
E0781C
E0F81C
E0D838
E1D838
E19870
E39870
E318E0
E718E0
E618C0
E619C0
EC1980
EC1F80
7C1F00
781F00
781F00
700E00
ENDCHAR
STARTCHAR 1E9E
ENCODING 7838
SWIDTH 660 0
DWIDTH 22 0
BBX 20 24 1 0
BITMAP
007F00
01FFC0
03E1E0
0780E0
070070
0E00F0
0E01E0
0C0380
1C0700
1C0E00
1C1E00
181F80
181FC0
3801E0
3800E0
380070
300070
700070
700060
7000E0
7401E0
6703C0
E7FF80
E3FE00
ENDCHAR
STARTCHAR 1EA0
ENCODING 7840
SWIDTH 540 0
DWIDTH 18 0
BBX 19 30 -2 -6
BITMAP
000700
000F00
000F00
001F00
001B80
003B80
003380
007380
006380
00E180
00C180
01C180
0381C0
0381C0
07FFC0
07FFC0
0E01C0
0E00C0
1C00C0
1C00C0
3800E0
7000E0
7000E0
E000E0
000000
000000
00C000
01C000
01C000
008000
ENDCHAR
STARTCHAR 1EA1
ENCODING 7841
SWIDTH 540 0
DWIDTH 18 0
BBX 16 24 2 -6
BITMAP
07E3
0FF3
1E3F
3C1E
780E
700E
700E
E00E
E00C
E01C
C01C
C01C
C03C
C078
E078
F1D8
7FB8
3E38
0000
0000
0C00
1C00
1C00
0800
ENDCHAR
STARTCHAR 1EA2
ENCODING 7842
SWIDTH 540 0
DWIDTH 18 0
BBX 19 33 -2 0
BITMAP
000780
0007E0
000060
000060
0000E0
000380
000300
000200
000000
000700
000F00
000F00
001F00
001B80
003B80
003380
007380
006380
00E180
00C180
01C180
0381C0
0381C0
07FFC0
07FFC0
0E01C0
0E00C0
1C00C0
1C00C0
3800E0
7000E0
7000E0
E000E0
ENDCHAR
STARTCHAR 1EA3
ENCODING 7843
SWIDTH 540 0
DWIDTH 18 0
BBX 16 27 2 0
BITMAP
00F8
009C
000C
001C
0078
0060
0040
0000
0000
07E3
0FF3
1E3F
3C1E
780E
700E
700E
E00E
E00C
E01C
C01C
C01C
C03C
C078
E078
F1D8
7FB8
3E38
ENDCHAR
STARTCHAR 1EA4
ENCODING 7844
SWIDTH 540 0
DWIDTH 18 0
BBX 24 33 -2 0
BITMAP
000007
00000E
00038C
0007D8
000EC0
001860
003020
000000
000000
000700
000F00
000F00
001F00
001B80
003B80
003380
007380
006380
00E180
00C180
01C180
0381C0
0381C0
07FFC0
07FFC0
0E01C0
0E00C0
1C00C0
1C00C0
3800E0
7000E0
7000E0
E000E0
ENDCHAR
STARTCHAR 1EA5
ENCODING 7845
SWIDTH 540 0
DWIDTH 18 0
BBX 19 27 2 0
BITMAP
0000E0
0001C0
007380
00F200
01D800
031C00
060400
000000
000000
07E300
0FF300
1E3F00
3C1E00
780E00
700E00
700E00
E00E00
E00C00
E01C00
C01C00
C01C00
C03C00
C07800
E07800
F1D800
7FB800
3E3800
ENDCHAR
STARTCHAR 1EA6
ENCODING 7846
SWIDTH 540 0
DWIDTH 18 0
BBX 20 33 -2 0
BITMAP
00C000
00C000
006380
0037C0
000EC0
001860
003030
000000
000000
000700
000F00
000F00
001F00
001B80
003B80
003380
007380
006380
00E180
00C180
01C180
0381C0
0381C0
07FFC0
07FFC0
0E01C0
0E00C0
1C00C0
1C00C0
3800E0
7000E0
7000E0
E000E0
ENDCHAR
STARTCHAR 1EA7
ENCODING 7847
SWIDTH 540 0
DWIDTH 18 0
BBX 16 27 2 0
BITMAP
3800
1800
0C70
06F0
01D8
030C
0604
0000
0000
07E3
0FF3
1E3F
3C1E
780E
700E
700E
E00E
E00C
E01C
C01C
C01C
C03C
C078
E078
F1D8
7FB8
3E38
ENDCHAR
STARTCHAR 1EA8
ENCODING 7848
SWIDTH 540 0
DWIDTH 18 0
BBX 23 35 -2 0
BITMAP
000018
00001E
000006
000006
00039C
0007C0
000EC0
001860
003030
000000
000000
000700
000F00
000F00
001F00
001B80
003B80
003380
007380
006380
00E180
00C180
01C180
0381C0
0381C0
07FFC0
07FFC0
0E01C0
0E00C0
1C00C0
1C00C0
3800E0
7000E0
7000E0
E000E0
ENDCHAR
STARTCHAR 1EA9
ENCODING 7849
SWIDTH 540 0
DWIDTH 18 0
BBX 18 29 2 0
BITMAP
000300
0003C0
0000C0
0001C0
007300
00F000
01D800
030C00
060400
000000
000000
07E300
0FF300
1E3F00
3C1E00
780E00
700E00
700E00
E00E00
E00C00
E01C00
C01C00
C01C00
C03C00
C07800
E07800
F1D800
7FB800
3E3800
ENDCHAR
STARTCHAR 1EAA
ENCODING 7850
SWIDTH 540 0
DWIDTH 18 0
BBX 22 35 -2 0
BITMAP
000F8C
001FF8
0010F0
000000
000380
0007C0
000EC0
001860
003030
000000
000000
000700
000F00
000F00
001F00
001B80
003B80
003380
007380
006380
00E180
00C180
01C180
0381C0
0381C0
07FFC0
07FFC0
0E01C0
0E00C0
1C00C0
1C00C0
3800E0
7000E0
7000E0
E000E0
ENDCHAR
STARTCHAR 1EAB
ENCODING 7851
SWIDTH 540 0
DWIDTH 18 0
BBX 17 29 2 0
BITMAP
01F180
03FF00
061E00
000000
007000
00F000
01D800
030C00
060400
000000
000000
07E300
0FF300
1E3F00
3C1E00
780E00
700E00
700E00
E00E00
E00C00
E01C00
C01C00
C01C00
C03C00
C07800
E07800
F1D800
7FB800
3E3800
ENDCHAR
STARTCHAR 1EAC
ENCODING 7852
SWIDTH 540 0
DWIDTH 18 0
BBX 20 37 -2 -6
BITMAP
000380
0007C0
000EE0
001860
003030
000000
000000
000700
000F00
000F00
001F00
001B80
003B80
003380
007380
006380
00E180
00C180
01C180
0381C0
0381C0
07FFC0
07FFC0
0E01C0
0E00C0
1C00C0
1C00C0
3800E0
7000E0
7000E0
E000E0
000000
000000
00C000
01C000
01C000
008000
ENDCHAR
STARTCHAR 1EAD
ENCODING 7853
SWIDTH 540 0
DWIDTH 18 0
BBX 16 32 2 -6
BITMAP
0070
00F0
01F8
0198
070C
0606
0000
0000
07E3
0FF3
1E3F
3C1E
780E
700E
700E
E00E
E00C
E01C
C01C
C01C
C03C
C078
E078
F1D8
7FB8
3E38
0000
0000
0C00
1C00
1C00
0800
ENDCHAR
STARTCHAR 1EAE
ENCODING 7854
SWIDTH 540 0
DWIDTH 18 0
BBX 20 34 -2 0
BITMAP
000070
0000E0
000180
000100
001830
001CE0
000FE0
000780
000000
000000
000700
000F00
000F00
001F00
001B80
003B80
003380
007380
006380
00E180
00C180
01C180
0381C0
0381C0
07FFC0
07FFC0
0E01C0
0E00C0
1C00C0
1C00C0
3800E0
7000E0
7000E0
E000E0
ENDCHAR
STARTCHAR 1EAF
ENCODING 7855
SWIDTH 540 0
DWIDTH 18 0
BBX 16 28 2 0
BITMAP
000E
001C
0030
0060
0206
039C
01F8
00F0
0000
0000
07E3
0FF3
1E3F
3C1E
780E
700E
700E
E00E
E00C
E01C
C01C
C01C
C03C
C078
E078
F1D8
7FB8
3E38
ENDCHAR
STARTCHAR 1EB0
ENCODING 7856
SWIDTH 540 0
DWIDTH 18 0
BBX 20 34 -2 0
BITMAP
000E00
000600
000300
000100
001830
001CE0
000FE0
000780
000000
000000
000700
000F00
000F00
001F00
001B80
003B80
003380
007380
006380
00E180
00C180
01C180
0381C0
0381C0
07FFC0
07FFC0
0E01C0
0E00C0
1C00C0
1C00C0
3800E0
7000E0
7000E0
E000E0
ENDCHAR
STARTCHAR 1EB1
ENCODING 7857
SWIDTH 540 0
DWIDTH 18 0
BBX 16 28 2 0
BITMAP
01C0
00C0
0060
0020
0606
039C
03F8
00F0
0000
0000
07E3
0FF3
1E3F
3C1E
780E
700E
700E
E00E
E00C
E01C
C01C
C01C
C03C
C078
E078
F1D8
7FB8
3E38
ENDCHAR
STARTCHAR 1EB2
ENCODING 7858
SWIDTH 540 0
DWIDTH 18 0
BBX 20 35 -2 0
BITMAP
0003C0
000040
0000C0
0003C0
000300
001830
001CE0
000FE0
000780
000000
000000
000700
000F00
000F00
001F00
001B80
003B80
003380
007380
006380
00E180
00C180
01C180
0381C0
0381C0
07FFC0
07FFC0
0E01C0
0E00C0
1C00C0
1C00C0
3800E0
7000E0
7000E0
E000E0
ENDCHAR
STARTCHAR 1EB3
ENCODING 7859
SWIDTH 540 0
DWIDTH 18 0
BBX 16 29 2 0
BITMAP
0078
0018
0018
0070
0060
0206
039C
03F8
00F0
0000
0000
07E3
0FF3
1E3F
3C1E
780E
700E
700E
E00E
E00C
E01C
C01C
C01C
C03C
C078
E078
F1D8
7FB8
3E38
ENDCHAR
STARTCHAR 1EB4
ENCODING 7860
SWIDTH 540 0
DWIDTH 18 0
BBX 22 35 -2 0
BITMAP
000F0C
001FF8
0030F0
000000
000000
001830
001CE0
000FE0
000780
000000
000000
000700
000F00
000F00
001F00
001B80
003B80
003380
007380
006380
00E180
00C180
01C180
0381C0
0381C0
07FFC0
07FFC0
0E01C0
0E00C0
1C00C0
1C00C0
3800E0
7000E0
7000E0
E000E0
ENDCHAR
STARTCHAR 1EB5
ENCODING 7861
SWIDTH 540 0
DWIDTH 18 0
BBX 16 29 2 0
BITMAP
03E1
03FF
061E
0000
0000
0606
039C
03F8
00F0
0000
0000
07E3
0FF3
1E3F
3C1E
780E
700E
700E
E00E
E00C
E01C
C01C
C01C
C03C
C078
E078
F1D8
7FB8
3E38
ENDCHAR
STARTCHAR 1EB6
ENCODING 7862
SWIDTH 540 0
DWIDTH 18 0
BBX 20 37 -2 -6
BITMAP
001830
001830
001EE0
000FE0
000780
000000
000000
000700
000F00
000F00
001F00
001B80
003B80
003380
007380
006380
00E180
00C180
01C180
0381C0
0381C0
07FFC0
07FFC0
0E01C0
0E00C0
1C00C0
1C00C0
3800E0
7000E0
7000E0
E000E0
000000
000000
00C000
01C000
01C000
008000
ENDCHAR
STARTCHAR 1EB7
ENCODING 7863
SWIDTH 540 0
DWIDTH 18 0
BBX 16 31 2 -6
BITMAP
0206
0306
03FC
03F8
00F0
0000
0000
07E3
0FF3
1E3F
3C1E
780E
700E
700E
E00E
E00C
E01C
C01C
C01C
C03C
C078
E078
F1D8
7FB8
3E38
0000
0000
0C00
1C00
1C00
0800
ENDCHAR
STARTCHAR 1EB8
ENCODING 7864
SWIDTH 510 0
DWIDTH 17 0
BBX 16 30 2 -6
BITMAP
0FFF
0FFF
0FFF
0C00
0C00
1C00
1C00
1C00
1800
3800
3FFC
3FFC
3FF8
3000
7000
7000
7000
7000
6000
E000
E000
E000
FFF0
FFF0
0000
0000
0C00
0E00
1E00
0C00
ENDCHAR
STARTCHAR 1EB9
ENCODING 7865
SWIDTH 480 0
DWIDTH 16 0
BBX 14 24 2 -6
BITMAP
03F0
0FF8
1E38
381C
701C
7018
6038
E1F0
FFE0
FF80
C000
C000
C000
E000
E000
7020
7FE0
1FC0
0000
0000
0C00
1C00
1C00
0800
ENDCHAR
STARTCHAR 1EBA
ENCODING 7866
SWIDTH 510 0
DWIDTH 17 0
BBX 16 33 2 0
BITMAP
0078
007C
0006
0006
001C
0038
0060
0060
0000
0FFF
0FFF
0FFF
0C00
0C00
1C00
1C00
1C00
1800
3800
3FFC
3FFC
3FF8
3000
7000
7000
7000
7000
6000
E000
E000
E000
FFF0
FFF0
ENDCHAR
STARTCHAR 1EBB
ENCODING 7867
SWIDTH 480 0
DWIDTH 16 0
BBX 14 27 2 0
BITMAP
01F0
0138
0018
0038
00F0
00C0
0080
0000
0000
03F0
0FF8
1E38
381C
701C
7018
6038
E1F0
FFE0
FF80
C000
C000
C000
E000
E000
7020
7FE0
1FC0
ENDCHAR
STARTCHAR 1EBC
ENCODING 7868
SWIDTH 510 0
DWIDTH 17 0
BBX 17 30 2 0
BITMAP
01E180
03FF80
033F00
060C00
000000
000000
0FFF00
0FFF00
0FFF00
0C0000
0C0000
1C0000
1C0000
1C0000
180000
380000
3FFC00
3FFC00
3FF800
300000
700000
700000
700000
700000
600000
E00000
E00000
E00000
FFF000
FFF000
ENDCHAR
STARTCHAR 1EBD
ENCODING 7869
SWIDTH 480 0
DWIDTH 16 0
BBX 15 24 2 0
BITMAP
07C6
0FFE
0C7C
1830
0000
0000
03F0
0FF8
1E38
381C
701C
7018
6038
E1F0
FFE0
FF80
C000
C000
C000
E000
E000
7020
7FE0
1FC0
ENDCHAR
STARTCHAR 1EBE
ENCODING 7870
SWIDTH 510 0
DWIDTH 17 0
BBX 20 33 2 0
BITMAP
000070
0000E0
0039C0
007900
00EC00
018600
030200
000000
000000
0FFF00
0FFF00
0FFF00
0C0000
0C0000
1C0000
1C0000
1C0000
180000
380000
3FFC00
3FFC00
3FF800
300000
700000
700000
700000
700000
600000
E00000
E00000
E00000
FFF000
FFF000
ENDCHAR
STARTCHAR 1EBF
ENCODING 7871
SWIDTH 480 0
DWIDTH 16 0
BBX 18 27 2 0
BITMAP
0001C0
000380
00E700
01F400
03B000
061800
0C0800
000000
000000
03F000
0FF800
1E3800
381C00
701C00
701800
603800
E1F000
FFE000
FF8000
C00000
C00000
C00000
E00000
E00000
702000
7FE000
1FC000
ENDCHAR
STARTCHAR 1EC0
ENCODING 7872
SWIDTH 510 0
DWIDTH 17 0
BBX 16 33 2 0
BITMAP
1C00
0C00
0638
0378
00EC
0186
0302
0000
0000
0FFF
0FFF
0FFF
0C00
0C00
1C00
1C00
1C00
1800
3800
3FFC
3FFC
3FF8
3000
7000
7000
7000
7000
6000
E000
E000
E000
FFF0
FFF0
ENDCHAR
STARTCHAR 1EC1
ENCODING 7873
SWIDTH 480 0
DWIDTH 16 0
BBX 14 27 2 0
BITMAP
3000
3000
18E0
0DF0
03B0
0618
0C08
0000
0000
03F0
0FF8
1E38
381C
701C
7018
6038
E1F0
FFE0
FF80
C000
C000
C000
E000
E000
7020
7FE0
1FC0
ENDCHAR
STARTCHAR 1EC2
ENCODING 7874
SWIDTH 510 0
DWIDTH 17 0
BBX 19 35 2 0
BITMAP
000180
0001E0
000060
0000E0
003980
007800
00EC00
018600
030200
000000
000000
0FFF00
0FFF00
0FFF00
0C0000
0C0000
1C0000
1C0000
1C0000
180000
380000
3FFC00
3FFC00
3FF800
300000
700000
700000
700000
700000
600000
E00000
E00000
E00000
FFF000
FFF000
ENDCHAR
STARTCHAR 1EC3
ENCODING 7875
SWIDTH 480 0
DWIDTH 16 0
BBX 17 29 2 0
BITMAP
000600
000780
000180
000380
00E600
01F000
03B000
061800
0C0800
000000
000000
03F000
0FF800
1E3800
381C00
701C00
701800
603800
E1F000
FFE000
FF8000
C00000
C00000
C00000
E00000
E00000
702000
7FE000
1FC000
ENDCHAR
STARTCHAR 1EC4
ENCODING 7876
SWIDTH 510 0
DWIDTH 17 0
BBX 18 35 2 0
BITMAP
00F0C0
01FF80
030F00
000000
003800
007800
00EC00
018600
030200
000000
000000
0FFF00
0FFF00
0FFF00
0C0000
0C0000
1C0000
1C0000
1C0000
180000
380000
3FFC00
3FFC00
3FF800
300000
700000
700000
700000
700000
600000
E00000
E00000
E00000
FFF000
FFF000
ENDCHAR
STARTCHAR 1EC5
ENCODING 7877
SWIDTH 480 0
DWIDTH 16 0
BBX 16 29 2 0
BITMAP
03E3
07FE
043C
0000
00E0
01F0
03B0
0618
0C08
0000
0000
03F0
0FF8
1E38
381C
701C
7018
6038
E1F0
FFE0
FF80
C000
C000
C000
E000
E000
7020
7FE0
1FC0
ENDCHAR
STARTCHAR 1EC6
ENCODING 7878
SWIDTH 510 0
DWIDTH 17 0
BBX 16 37 2 -6
BITMAP
0078
007C
00CC
0386
0303
0000
0000
0FFF
0FFF
0FFF
0C00
0C00
1C00
1C00
1C00
1800
3800
3FFC
3FFC
3FF8
3000
7000
7000
7000
7000
6000
E000
E000
E000
FFF0
FFF0
0000
0000
0C00
0E00
1E00
0C00
ENDCHAR
STARTCHAR 1EC7
ENCODING 7879
SWIDTH 480 0
DWIDTH 16 0
BBX 14 32 2 -6
BITMAP
00E0
01E0
01F0
0330
0618
0C0C
0000
0000
03F0
0FF8
1E38
381C
701C
7018
6038
E1F0
FFE0
FF80
C000
C000
C000
E000
E000
7020
7FE0
1FC0
0000
0000
0C00
1C00
1C00
0800
ENDCHAR
STARTCHAR 1EC8
ENCODING 7880
SWIDTH 270 0
DWIDTH 9 0
BBX 11 33 2 0
BITMAP
0780
07C0
00E0
00E0
01C0
0780
0600
0600
0000
0E00
0E00
0E00
0C00
0C00
1C00
1C00
1C00
1800
3800
3800
3800
3800
3000
7000
7000
7000
6000
6000
E000
E000
E000
C000
C000
ENDCHAR
STARTCHAR 1EC9
ENCODING 7881
SWIDTH 240 0
DWIDTH 8 0
BBX 10 27 1 0
BITMAP
0F80
09C0
00C0
01C0
0780
0600
0400
0000
0000
0C00
1C00
1C00
1C00
1C00
1800
3800
3800
3800
3000
3000
7000
7000
7000
6000
E000
E000
E000
ENDCHAR
STARTCHAR 1ECA
ENCODING 7882
SWIDTH 270 0
DWIDTH 9 0
BBX 9 30 0 -6
BITMAP
0380
0380
0380
0300
0300
0700
0700
0700
0600
0E00
0E00
0E00
0E00
0C00
1C00
1C00
1C00
1800
1800
3800
3800
3800
3000
3000
0000
0000
6000
F000
E000
4000
ENDCHAR
STARTCHAR 1ECB
ENCODING 7883
SWIDTH 240 0
DWIDTH 8 0
BBX 9 30 0 -6
BITMAP
0380
0780
0300
0000
0000
0000
0600
0E00
0E00
0E00
0E00
0C00
1C00
1C00
1C00
1800
1800
3800
3800
3800
3000
7000
7000
7000
0000
0000
6000
E000
E000
4000
ENDCHAR
STARTCHAR 1ECC
ENCODING 7884
SWIDTH 720 0
DWIDTH 24 0
BBX 21 30 2 -6
BITMAP
007F00
01FFC0
07E7E0
0F00F0
0E0070
1C0070
380038
380038
700038
700038
700038
700038
700038
E00038
E00070
E00070
E00070
7000E0
7001E0
7001C0
380780
3E1F00
1FFE00
07FC00
000000
000000
018000
03C000
03C000
018000
ENDCHAR
STARTCHAR 1ECD
ENCODING 7885
SWIDTH 540 0
DWIDTH 18 0
BBX 15 24 2 -6
BITMAP
03F0
0FF8
1E3C
381E
700E
700E
E00E
E00E
E00E
E00E
C00E
C00C
C01C
E01C
E038
70F0
7FE0
1FC0
0000
0000
0E00
0E00
0E00
0400
ENDCHAR
STARTCHAR 1ECE
ENCODING 7886
SWIDTH 720 0
DWIDTH 24 0
BBX 21 33 2 0
BITMAP
000F00
000F80
0001C0
0000C0
000380
000F00
000C00
000C00
000000
007F00
01FFC0
07E7E0
0F00F0
0E0070
1C0070
380038
380038
700038
700038
700038
700038
700038
E00038
E00070
E00070
E00070
7000E0
7001E0
7001C0
380780
3E1F00
1FFE00
07F800
ENDCHAR
STARTCHAR 1ECF
ENCODING 7887
SWIDTH 540 0
DWIDTH 18 0
BBX 15 27 2 0
BITMAP
00F8
0038
001C
0018
00F8
00C0
00C0
0000
0000
03F0
0FF8
1E3C
381E
700E
700E
E00E
E00E
E00E
E00E
C00E
C00C
C01C
E01C
E038
70F0
7FE0
1FC0
ENDCHAR
STARTCHAR 1ED0
ENCODING 7888
SWIDTH 720 0
DWIDTH 24 0
BBX 23 33 2 0
BITMAP
00000E
00001C
000738
000F60
001B80
003180
00C0C0
000000
000000
007F00
01FFC0
07E7E0
0F00F0
0E0070
1C0070
380038
380038
700038
700038
700038
700038
700038
E00038
E00070
E00070
E00070
7000E0
7001E0
7001C0
380780
3E1F00
1FFE00
07F800
ENDCHAR
STARTCHAR 1ED1
ENCODING 7889
SWIDTH 540 0
DWIDTH 18 0
BBX 18 27 2 0
BITMAP
0000C0
000180
00E300
01F600
03B000
071800
0C0C00
000000
000000
03F000
0FF800
1E3C00
381E00
700E00
700E00
E00E00
E00E00
E00E00
E00E00
C00E00
C00C00
C01C00
E01C00
E03800
70F000
7FE000
1FC000
ENDCHAR
STARTCHAR 1ED2
ENCODING 7890
SWIDTH 720 0
DWIDTH 24 0
BBX 21 33 2 0
BITMAP
030000
018000
00C700
004F00
001B80
003180
00C0C0
000000
000000
007F00
01FFC0
07E7E0
0F00F0
0E0070
1C0070
380038
380038
700038
700038
700038
700038
700038
E00038
E00070
E00070
E00070
7000E0
7001E0
7001C0
380780
3E1F00
1FFE00
07F800
ENDCHAR
STARTCHAR 1ED3
ENCODING 7891
SWIDTH 540 0
DWIDTH 18 0
BBX 15 27 2 0
BITMAP
3000
1800
18E0
0DF0
03B0
0718
0C0C
0000
0000
03F0
0FF8
1E3C
381E
700E
700E
E00E
E00E
E00E
E00E
C00E
C00C
C01C
E01C
E038
70F0
7FE0
1FC0
ENDCHAR
STARTCHAR 1ED4
ENCODING 7892
SWIDTH 720 0
DWIDTH 24 0
BBX 22 35 2 0
BITMAP
000020
00003C
00000C
000018
000730
000F00
001B80
003180
0040C0
000000
000000
007F00
01FFC0
07E7E0
0F00F0
0E0070
1C0070
380038
380038
700038
700038
700038
700038
700038
E00038
E00070
E00070
E00070
7000E0
7001E0
7001C0
380780
3E1F00
1FFE00
07F800
ENDCHAR
STARTCHAR 1ED5
ENCODING 7893
SWIDTH 540 0
DWIDTH 18 0
BBX 17 29 2 0
BITMAP
000600
000780
000080
000180
00E700
01F000
03B000
071800
0C0C00
000000
000000
03F000
0FF800
1E3C00
381E00
700E00
700E00
E00E00
E00E00
E00E00
E00E00
C00E00
C00C00
C01C00
E01C00
E03800
70F000
7FE000
1FC000
ENDCHAR
STARTCHAR 1ED6
ENCODING 7894
SWIDTH 720 0
DWIDTH 24 0
BBX 21 35 2 0
BITMAP
003E10
003FF0
0061E0
000000
000700
000F00
001B80
003180
0040C0
000000
000000
007F00
01FFC0
07E7E0
0F00F0
0E0070
1C0070
380038
380038
700038
700038
700038
700038
700038
E00038
E00070
E00070
E00070
7000E0
7001E0
7001C0
380780
3E1F00
1FFE00
07F800
ENDCHAR
STARTCHAR 1ED7
ENCODING 7895
SWIDTH 540 0
DWIDTH 18 0
BBX 16 29 2 0
BITMAP
03E3
07FE
061E
0000
00E0
01F0
03B0
0718
0C0C
0000
0000
03F0
0FF8
1E3C
381E
700E
700E
E00E
E00E
E00E
E00E
C00E
C00C
C01C
E01C
E038
70F0
7FE0
1FC0
ENDCHAR
STARTCHAR 1ED8
ENCODING 7896
SWIDTH 720 0
DWIDTH 24 0
BBX 21 37 2 -6
BITMAP
000F00
001F80
003980
0071C0
00E0C0
000000
000000
007F00
01FFC0
07E7E0
0F00F0
0E0070
1C0070
380038
380038
700038
700038
700038
700038
700038
E00038
E00070
E00070
E00070
7000E0
7001E0
7001C0
380780
3E1F00
1FFE00
07FC00
000000
000000
018000
03C000
038000
018000
ENDCHAR
STARTCHAR 1ED9
ENCODING 7897
SWIDTH 540 0
DWIDTH 18 0
BBX 15 32 2 -6
BITMAP
0060
00F0
01F0
03B8
0718
0C0C
0000
0000
03F0
0FF8
1E3C
381E
700E
700E
E00E
E00E
E00E
E00E
C00E
C00C
C01C
E01C
E038
70F0
7FE0
1FC0
0000
0000
0E00
0E00
0E00
0400
ENDCHAR
STARTCHAR 1EDA
ENCODING 7898
SWIDTH 690 0
DWIDTH 23 0
BBX 26 32 2 0
BITMAP
0001C000
0003C000
00038000
00070000
000E0000
00180000
00000000
000003C0
007F0380
01FFC380
07E7E700
0F00FE00
0E007800
1C007000
38003800
38003800
70003800
70003800
70003800
70003800
70003800
E0003800
E0007000
E0007000
E0007000
7000E000
7001E000
7001C000
38078000
3E1F0000
1FFE0000
07F80000
ENDCHAR
STARTCHAR 1EDB
ENCODING 7899
SWIDTH 540 0
DWIDTH 18 0
BBX 20 26 2 0
BITMAP
001C00
001C00
003800
007000
00E000
00C000
000070
000070
03F0E0
0FF9C0
1E3F80
381F00
700E00
700E00
E00E00
E00E00
E00E00
E00E00
C00E00
C00C00
C01C00
E01C00
E03800
70F000
7FE000
1FC000
ENDCHAR
STARTCHAR 1EDC
ENCODING 7900
SWIDTH 690 0
DWIDTH 23 0
BBX 26 32 2 0
BITMAP
00300000
00380000
00180000
001C0000
000C0000
00060000
00000000
000003C0
007F0380
01FFC380
07E7E700
0F00FE00
0E007800
1C007000
38003800
38003800
70003800
70003800
70003800
70003800
70003800
E0003800
E0007000
E0007000
E0007000
7000E000
7001E000
7001C000
38078000
3E1F0000
1FFE0000
07F80000
ENDCHAR
STARTCHAR 1EDD
ENCODING 7901
SWIDTH 540 0
DWIDTH 18 0
BBX 20 26 2 0
BITMAP
038000
038000
01C000
00C000
00E000
006000
000070
000070
03F0E0
0FF9C0
1E3F80
381F00
700E00
700E00
E00E00
E00E00
E00E00
E00E00
C00E00
C00C00
C01C00
E01C00
E03800
70F000
7FE000
1FC000
ENDCHAR
STARTCHAR 1EDE
ENCODING 7902
SWIDTH 690 0
DWIDTH 23 0
BBX 26 33 2 0
BITMAP
000F0000
000F8000
0001C000
0000C000
00038000
000F0000
000C0000
000C0000
000003C0
007F0380
01FFC380
07E7E700
0F00FE00
0E007800
1C007000
38003800
38003800
70003800
70003800
70003800
70003800
70003800
E0003800
E0007000
E0007000
E0007000
7000E000
7001E000
7001C000
38078000
3E1F0000
1FFE0000
07F80000
ENDCHAR
STARTCHAR 1EDF
ENCODING 7903
SWIDTH 540 0
DWIDTH 18 0
BBX 20 27 2 0
BITMAP
00F800
003800
001C00
001800
00F800
00C000
00C000
000070
000070
03F0E0
0FF9C0
1E3F80
381F00
700E00
700E00
E00E00
E00E00
E00E00
E00E00
C00E00
C00C00
C01C00
E01C00
E03800
70F000
7FE000
1FC000
ENDCHAR
STARTCHAR 1EE0
ENCODING 7904
SWIDTH 690 0
DWIDTH 23 0
BBX 26 30 2 0
BITMAP
007C6000
00FFE000
00C7C000
01838000
00000000
000003C0
007F0380
01FFC380
07E7E700
0F00FE00
0E007800
1C007000
38003800
38003800
70003800
70003800
70003800
70003800
70003800
E0003800
E0007000
E0007000
E0007000
7000E000
7001E000
7001C000
38078000
3E1F0000
1FFE0000
07F80000
ENDCHAR
STARTCHAR 1EE1
ENCODING 7905
SWIDTH 540 0
DWIDTH 18 0
BBX 20 24 2 0
BITMAP
07C200
0FFE00
0C7C00
081800
000070
000070
03F0E0
0FF9C0
1E3F80
381F00
700E00
700E00
E00E00
E00E00
E00E00
E00E00
C00E00
C00C00
C01C00
E01C00
E03800
70F000
7FE000
1FC000
ENDCHAR
STARTCHAR 1EE2
ENCODING 7906
SWIDTH 690 0
DWIDTH 23 0
BBX 26 31 2 -6
BITMAP
000003C0
007F0380
01FFC380
07E7E700
0F00FE00
0E007800
1C007000
38003800
38003800
70003800
70003800
70003800
70003800
70003800
E0003800
E0007000
E0007000
E0007000
7000E000
7001E000
7001C000
38078000
3E1F0000
1FFE0000
07FC0000
00000000
00000000
01800000
03800000
03800000
03000000
ENDCHAR
STARTCHAR 1EE3
ENCODING 7907
SWIDTH 540 0
DWIDTH 18 0
BBX 20 26 2 -6
BITMAP
000070
000070
03F0E0
0FF9C0
1E3F80
381F00
700E00
700E00
E00E00
E00E00
E00E00
E00E00
C00E00
C00C00
C01C00
E01C00
E03800
70F000
7FE000
1FC000
000000
000000
0C0000
1C0000
1C0000
080000
ENDCHAR
STARTCHAR 1EE4
ENCODING 7908
SWIDTH 660 0
DWIDTH 22 0
BBX 20 30 3 -6
BITMAP
1C0070
1C0070
180060
3800E0
3800E0
3800E0
3800E0
3000C0
7001C0
7001C0
7001C0
7001C0
E00180
E00380
E00380
E00380
E00300
C00700
C00700
E00E00
E01E00
783C00
7FF800
1FE000
000000
000000
060000
070000
0F0000
060000
ENDCHAR
STARTCHAR 1EE5
ENCODING 7909
SWIDTH 570 0
DWIDTH 19 0
BBX 16 24 2 -6
BITMAP
3807
3807
3807
3807
3006
700E
700E
700E
600C
601C
E01C
E01C
E03C
E078
E078
E1F8
FFB8
7E38
0000
0000
0C00
1C00
1C00
0800
ENDCHAR
STARTCHAR 1EE6
ENCODING 7910
SWIDTH 660 0
DWIDTH 22 0
BBX 20 33 3 0
BITMAP
003C00
003E00
000300
000300
000E00
001C00
003000
003000
000000
1C0070
1C0070
180060
3800E0
3800E0
3800E0
3800E0
3000C0
7001C0
7001C0
7001C0
7001C0
E00180
E00380
E00380
E00380
E00300
C00700
C00700
E00E00
E01E00
783C00
7FF800
1FE000
ENDCHAR
STARTCHAR 1EE7
ENCODING 7911
SWIDTH 570 0
DWIDTH 19 0
BBX 16 27 2 0
BITMAP
00F8
009C
000C
001C
0078
0060
0040
0000
0000
3807
3807
3807
3807
3006
700E
700E
700E
600C
601C
E01C
E01C
E03C
E078
E078
E1F8
FFB8
7E38
ENDCHAR
STARTCHAR 1EE8
ENCODING 7912
SWIDTH 720 0
DWIDTH 24 0
BBX 26 32 3 0
BITMAP
00038000
00078000
00070000
000E0000
001C0000
00300000
00000000
000003C0
1C007380
1C007380
18006700
3800FE00
3800FC00
3800E000
3800E000
3000C000
7001C000
7001C000
7001C000
7001C000
E0018000
E0038000
E0038000
E0038000
C0030000
C0070000
C0070000
E00E0000
E01E0000
783C0000
7FF80000
1FF00000
ENDCHAR
STARTCHAR 1EE9
ENCODING 7913
SWIDTH 600 0
DWIDTH 20 0
BBX 22 26 2 0
BITMAP
000E00
001C00
001C00
003800
006000
00C000
00001C
00001C
380738
380770
3807E0
3807C0
300600
700E00
700E00
700E00
600C00
601C00
E01C00
E01C00
E03C00
E07800
E07800
E1F800
FFB800
7E3800
ENDCHAR
STARTCHAR 1EEA
ENCODING 7914
SWIDTH 720 0
DWIDTH 24 0
BBX 26 32 3 0
BITMAP
00E00000
00700000
00700000
00380000
00180000
000C0000
00000000
000003C0
1C007380
1C007380
18006700
3800FE00
3800FC00
3800E000
3800E000
3000C000
7001C000
7001C000
7001C000
7001C000
E0018000
E0038000
E0038000
E0038000
C0030000
C0070000
C0070000
E00E0000
E01E0000
783C0000
7FF80000
1FF00000
ENDCHAR
STARTCHAR 1EEB
ENCODING 7915
SWIDTH 600 0
DWIDTH 20 0
BBX 22 26 2 0
BITMAP
038000
01C000
01C000
00E000
006000
003000
00001C
00001C
380738
380770
3807E0
3807C0
300600
700E00
700E00
700E00
600C00
601C00
E01C00
E01C00
E03C00
E07800
E07800
E1F800
FFB800
7E3800
ENDCHAR
STARTCHAR 1EEC
ENCODING 7916
SWIDTH 720 0
DWIDTH 24 0
BBX 26 33 3 0
BITMAP
003C0000
003F0000
00030000
00030000
000E0000
001C0000
00100000
00300000
000003C0
1C007380
1C007380
18006700
3800FE00
3800FC00
3800E000
3800E000
3000C000
7001C000
7001C000
7001C000
7001C000
E0018000
E0038000
E0038000
E0038000
C0030000
C0070000
C0070000
E00E0000
E01E0000
783C0000
7FF80000
1FF00000
ENDCHAR
STARTCHAR 1EED
ENCODING 7917
SWIDTH 600 0
DWIDTH 20 0
BBX 22 27 2 0
BITMAP
007800
001C00
000C00
000C00
007800
006000
006000
00001C
00001C
380738
380770
3807E0
3807C0
300600
700E00
700E00
700E00
600C00
601C00
E01C00
E01C00
E03C00
E07800
E07800
E1F800
FFB800
7E3800
ENDCHAR
ENDFONT
